<svg width="406" height="294" viewBox="0 0 406 294" fill="none" xmlns="http://www.w3.org/2000/svg">
<g clip-path="url(#clip0_27_769)">
<path opacity="0.18" d="M64.7198 61.5578C52.7222 64.0989 40.2514 66.8567 30.6199 74.4455C22.4868 80.8475 9.81389 92.6666 5.97408 102.27C-10.2921 142.834 8.09855 192.193 43.7955 217.437C60.5842 229.31 81.5085 235.057 96.5967 249.033C106.14 257.873 112.823 269.574 122.978 277.699C137.814 289.563 157.846 292.188 176.804 293.458C189.975 294.35 203.658 294.734 215.877 289.73C224.71 286.116 232.193 279.916 239.537 273.804L288.193 233.21C296.011 226.695 303.321 216.319 313.499 216.388C405.113 217.043 411.289 109.327 270.685 61.6169C258.293 57.4113 249.795 45.7202 238.152 39.7269C214.103 27.3415 186.426 31.3551 162.169 39.9239C131.372 50.832 96.6805 54.7667 64.7198 61.5578Z" fill="#68E1FD"/>
<path opacity="0.05" d="M384.016 235.328C387.851 235.392 392.79 236.347 393.381 240.13C393.702 242.099 392.573 244.015 391.35 245.606C383.705 255.588 371.037 260.636 358.537 261.99C346.037 263.344 333.438 261.448 320.957 259.912C302.923 257.686 284.816 256.208 266.638 255.48C253.713 254.958 240.119 254.633 228.989 248.053C226.923 246.837 224.893 245.315 223.902 243.129C221.93 238.78 225.045 233.486 229.324 231.374C233.602 229.261 238.63 229.468 243.402 229.724C290.258 232.245 337.08 235.328 384.016 235.328Z" fill="#000405"/>
<path d="M384.179 62.2472C384.179 62.2472 367.503 83.7925 364.339 87.4022C358.567 93.9618 354.845 102.565 354.845 102.565L346.466 138.19L337.1 135.693L316.738 130.276C316.738 130.276 323.974 110.804 320.469 104.894C315.796 97.0151 319.838 92.0905 320.903 88.7072C322.875 82.4382 312.804 70.9786 312.804 70.9786L306.352 42.1055L316.092 40.8054L323.16 64.2122L335.271 75.0119L343.897 75.4698C343.897 75.4698 350.404 76.8093 355.136 74.6228C359.661 72.5249 375.646 54.5156 375.646 54.5156L382.167 60.4251L384.179 62.2472Z" fill="#68E1FD"/>
<path d="M304.292 98.783V227.099C304.291 228.707 303.974 230.299 303.357 231.784C302.741 233.269 301.838 234.618 300.699 235.754C299.561 236.891 298.21 237.792 296.723 238.407C295.236 239.021 293.642 239.337 292.033 239.337H99.9487C98.3391 239.337 96.7452 239.02 95.2582 238.404C93.7712 237.789 92.4201 236.887 91.2822 235.749C90.1442 234.612 89.2417 233.262 88.6262 231.776C88.0107 230.29 87.6942 228.697 87.6948 227.089V98.783C87.6935 97.1747 88.0096 95.5819 88.6249 94.0957C89.2402 92.6095 90.1426 91.259 91.2807 90.1216C92.4188 88.9841 93.7701 88.0819 95.2574 87.4665C96.7448 86.8512 98.3389 86.5348 99.9487 86.5355H292.033C293.643 86.5355 295.237 86.8523 296.724 87.4678C298.212 88.0833 299.563 88.9854 300.701 90.1227C301.84 91.26 302.743 92.6102 303.359 94.0961C303.975 95.582 304.292 97.1747 304.292 98.783V98.783Z" fill="#FFBE55"/>
<path d="M300.969 90.4505H90.6865L92.392 89.1455C92.4708 89.0773 92.5531 89.0132 92.6385 88.9535L192.671 12.346L195.83 9.92804L297.603 87.875L300.969 90.4505Z" fill="#68E1FD"/>
<path d="M304.292 98.783L301.734 100.63L283.106 114.108L192.671 179.552L105.696 112.631L87.6948 98.783L87.9265 96.4044C88.365 94.1744 89.4203 92.1117 90.9727 90.4505C91.4085 89.9766 91.8833 89.54 92.3923 89.1455C92.4711 89.0773 92.5534 89.0132 92.6388 88.9535C94.7501 87.3799 97.3146 86.5316 99.9487 86.5355H292.033C295.079 86.5371 298.015 87.6709 300.27 89.7164C302.525 91.7618 303.938 94.5724 304.233 97.6011C304.272 97.9938 304.292 98.3883 304.292 98.783V98.783Z" fill="#68E1FD"/>
<path opacity="0.61" d="M92.392 89.1357C91.8854 89.533 91.4108 89.9693 90.9724 90.4407H90.6865L92.392 89.1357Z" fill="url(#paint0_linear_27_769)"/>
<path opacity="0.61" d="M304.292 98.783L301.734 100.635L283.106 114.108L192.671 179.552L105.696 112.636L87.6948 98.783L87.9265 96.4093C88.3651 94.1779 89.4204 92.1137 90.9727 90.4506C91.4111 89.9792 91.8857 89.5428 92.3923 89.1455L92.6388 88.9584L192.671 12.346L195.831 9.92804L297.603 87.875C299.438 88.8087 301.008 90.19 302.167 91.891C303.326 93.592 304.036 95.5577 304.233 97.606C304.272 97.9971 304.292 98.3899 304.292 98.783Z" fill="url(#paint1_linear_27_769)"/>
<path d="M283.106 89.3031V114.113L249.731 138.244L242.076 143.799L192.671 179.552L146.204 143.799L139.012 138.264L105.696 112.656V89.3031C105.696 87.374 106.463 85.5239 107.828 84.1599C109.194 82.7958 111.045 82.0294 112.976 82.0294H275.831C277.761 82.0308 279.611 82.7977 280.975 84.1616C282.34 85.5255 283.106 87.3749 283.106 89.3031V89.3031Z" fill="white"/>
<path d="M258.648 111.055H127.039C126.305 111.055 125.6 110.764 125.08 110.245C124.561 109.726 124.269 109.022 124.269 108.288V108.288C124.269 107.924 124.341 107.564 124.48 107.228C124.619 106.893 124.823 106.588 125.08 106.331C125.338 106.074 125.643 105.87 125.979 105.731C126.315 105.591 126.675 105.52 127.039 105.52H258.648C259.012 105.52 259.372 105.591 259.708 105.731C260.044 105.87 260.349 106.074 260.607 106.331C260.864 106.588 261.068 106.893 261.207 107.228C261.346 107.564 261.418 107.924 261.418 108.288C261.418 109.022 261.126 109.726 260.607 110.245C260.087 110.764 259.382 111.055 258.648 111.055Z" fill="url(#paint2_linear_27_769)"/>
<path d="M258.648 127.43H127.039C126.305 127.43 125.6 127.138 125.08 126.619C124.561 126.1 124.269 125.396 124.269 124.662V124.662C124.269 123.928 124.561 123.224 125.08 122.705C125.6 122.186 126.305 121.894 127.039 121.894H258.648C259.382 121.894 260.087 122.186 260.607 122.705C261.126 123.224 261.418 123.928 261.418 124.662V124.662C261.418 125.396 261.126 126.1 260.607 126.619C260.087 127.138 259.382 127.43 258.648 127.43Z" fill="url(#paint3_linear_27_769)"/>
<path d="M249.731 138.264L242.076 143.799H146.204L139.007 138.264H249.731Z" fill="url(#paint4_linear_27_769)"/>
<path opacity="0.05" d="M192.671 179.552L112.395 239.347H274.603L192.671 179.552Z" fill="#000405"/>
<path d="M123.426 44.4201C119.384 35.7577 104.203 37.1809 104.203 37.1809C113.568 31.6604 111.774 17.64 111.66 16.8127C115.757 29.0356 129.898 26.3369 131.165 26.071C121.775 28.3855 123.426 44.4201 123.426 44.4201Z" fill="#68E1FD"/>
<path d="M97.1042 62.1931C94.5361 56.6873 84.8799 57.5935 84.8799 57.5935C90.992 53.964 89.6069 44.622 89.6069 44.622V44.6762C92.2293 52.4029 101.2 50.6891 101.999 50.5217C96.0543 51.9991 97.1042 62.1931 97.1042 62.1931Z" fill="#68E1FD"/>
<path d="M355.668 45.6513C356.858 44.6955 358.364 44.2209 359.888 44.3216C361.003 44.2763 362.094 44.6526 362.944 45.3755C363.597 46.11 364.013 47.0251 364.136 48.0003C364.377 49.2092 364.468 50.443 364.408 51.6741C364.299 53.9345 363.713 56.3278 364.689 58.3716C364.922 58.8571 365.235 59.3 365.615 59.6815C366.056 60.1751 366.67 60.4801 367.331 60.5335C367.659 60.5481 367.981 60.4449 368.24 60.2426C368.498 60.0402 368.676 59.7521 368.74 59.4304C368.412 60.1602 367.921 60.8052 367.304 61.3155C366.687 61.8258 365.961 62.1879 365.182 62.3739C364.403 62.5599 363.592 62.5648 362.811 62.3883C362.029 62.2118 361.299 61.8586 360.676 61.3559L361.534 63.0943C360.824 62.9109 360.136 62.6499 359.483 62.3162C357.388 61.1786 356.215 58.869 355.658 56.5347C355.165 54.3925 355.067 52.1813 354.603 50.0292C354.244 48.3795 354.332 46.843 355.668 45.6513Z" fill="#3F3D56"/>
<path d="M355.037 48.0151C355.463 48.0014 355.887 48.0665 356.289 48.2071C356.622 48.3455 356.911 48.5724 357.124 48.8633C357.337 49.1542 357.466 49.4978 357.497 49.8569C357.515 50.2177 357.428 50.5761 357.246 50.8883C357.064 51.2004 356.795 51.4529 356.472 51.615C356.05 51.7881 355.596 51.8671 355.141 51.8464C354.727 51.8464 354.308 51.8464 353.894 51.807C353.775 51.8073 353.658 51.7786 353.554 51.7233C353.448 51.6366 353.367 51.5224 353.322 51.3934C353.052 50.8568 352.849 50.2896 352.716 49.7042C352.375 47.892 353.598 48.0003 355.037 48.0151Z" fill="#68E1FD"/>
<path d="M347.018 65.3054C347.018 65.3054 346.939 66.7286 346.84 68.5803C346.756 70.1414 346.653 72.0275 346.569 73.5936C346.425 76.2426 345.286 78.7399 343.38 80.5865C342.266 81.7241 339.609 83.8466 337.583 83.0932C336.597 82.7287 336.563 81.4877 336.77 80.7441C337.226 79.3884 337.48 77.973 337.524 76.5434C337.556 75.3861 337.452 74.2291 337.214 73.0962C335.942 69.9296 347.018 65.3054 347.018 65.3054Z" fill="url(#paint5_linear_27_769)"/>
<path d="M347.018 65.3054C347.018 65.3054 346.939 66.7286 346.84 68.5803C346.062 70.3138 345.332 71.7271 344.933 72.4314C344.129 73.8546 340.827 76.0953 337.539 76.5434C337.571 75.3861 337.467 74.2291 337.228 73.0962C335.942 69.9296 347.018 65.3054 347.018 65.3054Z" fill="url(#paint6_linear_27_769)"/>
<path d="M337.371 46.449C335.92 46.5372 334.502 46.9231 333.206 47.5825C331.91 48.242 330.764 49.161 329.839 50.2823C328.915 51.4035 328.231 52.703 327.83 54.0998C327.43 55.4966 327.322 56.9608 327.513 58.4011C327.842 62.7037 328.948 66.9114 330.776 70.821C334.226 76.7306 342.971 71.8699 344.356 69.4372C345.741 67.0044 351.055 56.0324 348.822 52.9249C347.284 50.827 343.02 46.2225 337.371 46.449Z" fill="url(#paint7_linear_27_769)"/>
<path d="M334.266 40.4459C337.976 39.3632 341.933 39.4787 345.574 40.7759C349.157 42.1351 352.248 44.9323 353.613 48.5125C354.788 51.8303 354.675 55.4674 353.298 58.7064C351.91 61.919 349.7 64.7098 346.89 66.7976C346.165 64.5815 348.398 62.6117 349.266 60.4498C349.467 60.0502 349.511 59.5898 349.389 59.1595C349.073 58.3568 347.871 58.2681 347.185 58.7902C346.5 59.3122 346.2 60.1937 345.948 61.0161C346.614 57.495 347.107 53.3583 344.612 50.7778C343.134 49.2512 340.901 48.6799 338.771 48.6602C336.816 48.6544 334.88 49.0496 333.083 49.8213C331.287 50.593 329.668 51.7247 328.327 53.1465C327.543 53.9886 326.429 55.0228 325.433 54.4417C325.123 54.2301 324.881 53.9345 324.733 53.5898C321.79 47.7688 329.519 41.746 334.266 40.4459Z" fill="#3F3D56"/>
<path d="M339.028 46.9514C336.563 45.8679 333.975 44.9815 331.299 44.9815C328.622 44.9815 325.847 45.8876 324.077 47.8969C323.153 49.0165 322.481 50.3215 322.106 51.7233C321.808 52.6004 321.691 53.5282 321.761 54.4516C321.868 55.1211 322.033 55.7802 322.254 56.4214C322.717 58.017 322.914 59.8686 321.904 61.2081C321.716 61.4752 321.471 61.6964 321.186 61.8551C320.901 62.0137 320.583 62.1057 320.257 62.1241C319.931 62.1299 319.614 62.0165 319.365 61.8053C319.116 61.594 318.953 61.2994 318.907 60.9767C318.473 62.2029 319.183 63.6409 320.311 64.286C320.893 64.5818 321.531 64.7509 322.182 64.7823C322.834 64.8137 323.485 64.7067 324.092 64.4682C324.603 64.3073 325.076 64.048 325.487 63.7049C325.893 63.3147 326.226 62.8563 326.473 62.3507C327.503 60.4842 328.021 58.411 328.79 56.3968C329.559 54.3826 330.673 52.4571 332.491 51.3244C333.933 50.5385 335.552 50.1365 337.194 50.1573C338.825 50.1031 340.467 50.2361 342.093 50.0883C343.72 49.9406 342.542 48.9754 341.842 48.4681C340.959 47.8672 340.015 47.3589 339.028 46.9514V46.9514Z" fill="#3F3D56"/>
<path d="M405.231 29.2966C405.65 29.6216 401.727 32.6749 401.727 32.6749C401.727 32.6749 399.893 35.8316 398.03 36.7081C396.166 37.5847 382.168 60.4202 382.168 60.4202L376.642 55.4168L388.561 39.397C388.561 39.397 392.504 31.8475 392.065 28.5628C392.065 28.5628 392.302 24.6822 393.49 26.4846C394.328 27.77 393.791 29.794 394.781 30.0107C394.891 30.0205 395.001 29.9965 395.097 29.9417C395.919 29.4432 396.672 28.8407 397.34 28.1491C399.311 26.2729 401.667 23.6628 401.667 23.6628C401.667 23.6628 402.959 23.1162 402.796 23.6628C402.634 24.2094 400.263 27.898 400.13 28.095C400.351 27.8931 403.989 24.6477 404.566 24.8989C405.142 25.1501 401.746 28.8878 401.549 29.1045C401.761 28.9568 405.64 26.2581 405.931 26.4994C406.478 26.9574 402.974 29.9959 402.683 30.2273C402.905 30.1091 404.832 28.9814 405.231 29.2966Z" fill="url(#paint8_linear_27_769)"/>
<path d="M401.071 31.6358C400.777 31.7315 400.465 31.7568 400.159 31.7096C399.165 31.6341 398.168 31.6176 397.172 31.6604C396.502 31.6899 395.117 32.1529 395.082 31.1138C395.082 30.838 395.151 30.5671 395.136 30.2914C395.136 30.1732 395.107 30.055 395.087 29.9368C395.909 29.4383 396.663 28.8358 397.33 28.1442C397.632 28.245 397.917 28.3893 398.178 28.5727C398.835 28.9962 399.482 29.4148 400.12 29.8284C400.465 30.055 400.81 30.2815 401.14 30.5277C401.286 30.6189 401.403 30.7507 401.475 30.9069C401.507 31.0567 401.484 31.2129 401.409 31.3468C401.335 31.4807 401.215 31.5833 401.071 31.6358V31.6358Z" fill="url(#paint9_linear_27_769)"/>
<path d="M304.819 3.65407C304.287 3.71317 306.012 8.37186 306.012 8.37186C306.012 8.37186 305.904 12.021 307.023 13.7446C308.142 15.4682 307.984 41.8888 307.984 41.8888L315.318 40.9039L313.652 21.0035C313.652 21.0035 314.288 12.5135 316.393 9.95759C316.393 9.95759 318.236 6.53497 316.28 7.44111C314.89 8.09116 314.273 10.0906 313.322 9.75568C313.223 9.70661 313.142 9.62728 313.09 9.52914C312.643 8.67574 312.311 7.76652 312.105 6.82553C311.41 4.19085 310.798 0.733769 310.798 0.733769C310.798 0.733769 310.01 -0.398894 309.882 0.147739C309.753 0.694372 309.798 5.07236 309.803 5.32352C309.719 5.04281 308.349 0.354573 307.708 0.270854C307.067 0.187136 307.999 5.14623 308.058 5.43186C307.949 5.19548 306.086 0.861809 305.702 0.911055C304.997 1.01447 306.397 5.45648 306.5 5.78643C306.362 5.56975 305.322 3.60482 304.819 3.65407Z" fill="url(#paint10_linear_27_769)"/>
<path d="M307.106 7.83507C307.306 8.06877 307.557 8.25259 307.841 8.37186C308.725 8.83251 309.581 9.34558 310.404 9.90834C310.961 10.2875 311.882 11.4202 312.469 10.5436C312.627 10.3171 312.701 10.0512 312.858 9.8197C312.93 9.7218 313.008 9.62808 313.09 9.53899C312.643 8.68559 312.311 7.77636 312.104 6.83538C311.794 6.76221 311.476 6.73566 311.158 6.75658L308.846 6.8009C308.432 6.8009 308.018 6.8009 307.604 6.85507C307.429 6.85429 307.257 6.90573 307.111 7.00281C307.01 7.11773 306.954 7.26515 306.953 7.41802C306.952 7.5709 307.007 7.71897 307.106 7.83507V7.83507Z" fill="url(#paint11_linear_27_769)"/>
<path d="M278.828 235.993C276.856 240.016 275.422 243.143 275.422 243.143L250.613 244.325C250.613 244.325 254.724 233.457 261.413 236.264C263.676 237.209 271.873 235.431 271.873 235.431L272.129 234.609L278.828 235.993Z" fill="url(#paint12_linear_27_769)"/>
<path d="M366.754 237.209L362.954 239.337L330.421 205.17L326.833 159.558L297.169 186.441C297.169 186.441 297.963 204.953 287.592 219.436C285.733 222.032 281.953 229.571 279.094 235.461C279.005 235.643 278.916 235.83 278.833 236.013L278.276 235.899L276.338 235.495L272.134 234.629L285.768 179.571L316.748 130.296L337.11 135.713L346.475 138.21C346.475 138.21 352.795 150.861 346.475 183.605L342.286 202.348C342.286 202.348 359.173 211.345 364.378 229.143L366.749 237.199L366.754 237.209Z" fill="#3F3D56"/>
<path d="M366.754 237.209L370.613 241.242L360.819 251.446H348.003C348.003 251.446 350.734 246.94 356.196 246.226C361.657 245.512 362.963 239.332 362.963 239.332L366.754 237.209Z" fill="url(#paint13_linear_27_769)"/>
<path opacity="0.22" d="M106.376 36.4718L104.212 37.1809C113.578 31.6604 111.784 17.64 111.67 16.8127C111.818 17.4775 113.997 26.7309 112.809 29.7693C111.325 33.5662 106.376 36.4718 106.376 36.4718Z" fill="white"/>
<path opacity="0.22" d="M90.8987 53.4026C89.7551 54.9834 85.2104 57.4211 84.8999 57.5836C91.0121 53.9542 89.627 44.6122 89.627 44.6122V44.6663C89.8685 45.3065 92.0127 51.8563 90.8987 53.4026Z" fill="white"/>
<path opacity="0.22" d="M88.0596 105.52L188.452 182.694L192.671 179.552L87.6948 98.783L88.0596 105.52Z" fill="white"/>
<path opacity="0.22" d="M195.993 182.196L304.292 104.318V99.0046L192.671 179.768L195.993 182.196Z" fill="white"/>
<path opacity="0.22" d="M304.233 97.8227L303.937 98.6501L301.733 100.851C303.281 98.1822 298.909 91.987 298.909 91.987L297.164 90.682L291.924 86.7423L192.671 12.5676L195.83 10.1497L297.603 88.0917C299.437 89.0265 301.006 90.4081 302.165 92.1089C303.324 93.8097 304.035 95.7748 304.233 97.8227Z" fill="white"/>
<path opacity="0.61" d="M384.178 62.2472C384.178 62.2472 367.503 83.7925 364.339 87.4022C358.567 93.9618 354.845 102.565 354.845 102.565L346.465 138.19L337.1 135.693C337.1 135.693 345.844 103.028 349.359 96.0942C352.873 89.1603 382.158 60.4202 382.158 60.4202L384.178 62.2472Z" fill="url(#paint14_linear_27_769)"/>
<path d="M366.749 237.199C366.576 236.707 361.011 221.263 352.656 214.787C344.173 208.208 339.244 199.127 339.244 199.127C337.248 181.694 337.11 135.693 337.11 135.693L346.475 138.19C346.475 138.19 352.794 150.841 346.475 183.585L342.285 202.328C342.285 202.328 359.173 211.345 364.378 229.143L366.749 237.199Z" fill="#25233A"/>
<path d="M297.169 186.431C297.169 186.431 297.963 204.943 287.592 219.426C285.733 222.022 281.953 229.561 279.094 235.451L278.276 235.889L276.338 235.486L292.417 184.816C292.417 184.816 311.892 161.764 315.456 159.558C319.02 157.352 326.833 159.558 326.833 159.558L297.169 186.431Z" fill="#25233A"/>
</g>
<defs>
<linearGradient id="paint0_linear_27_769" x1="90.7654" y1="91.9033" x2="92.6502" y2="86.7757" gradientUnits="userSpaceOnUse">
<stop offset="0.36" stop-color="#00272E"/>
<stop offset="0.75" stop-color="#3F80A1" stop-opacity="0.25"/>
<stop offset="1" stop-color="#69B9EB" stop-opacity="0"/>
</linearGradient>
<linearGradient id="paint1_linear_27_769" x1="169.056" y1="170.875" x2="224.34" y2="20.4042" gradientUnits="userSpaceOnUse">
<stop offset="0.36" stop-color="#FF9E00"/>
<stop offset="0.75" stop-color="#FFBE55"/>
<stop offset="1" stop-color="#FFBE55"/>
</linearGradient>
<linearGradient id="paint2_linear_27_769" x1="193.652" y1="68.7527" x2="188.673" y2="312.201" gradientUnits="userSpaceOnUse">
<stop stop-color="#68E1FD"/>
<stop offset="0.01" stop-color="#67DDF9"/>
<stop offset="0.12" stop-color="#5CB3CE"/>
<stop offset="0.24" stop-color="#538EA9"/>
<stop offset="0.37" stop-color="#4C718B"/>
<stop offset="0.5" stop-color="#465A73"/>
<stop offset="0.63" stop-color="#424A63"/>
<stop offset="0.79" stop-color="#404059"/>
<stop offset="0.99" stop-color="#3F3D56"/>
</linearGradient>
<linearGradient id="paint3_linear_27_769" x1="193.987" y1="68.7576" x2="189.008" y2="312.212" gradientUnits="userSpaceOnUse">
<stop stop-color="#68E1FD"/>
<stop offset="0.01" stop-color="#67DDF9"/>
<stop offset="0.12" stop-color="#5CB3CE"/>
<stop offset="0.24" stop-color="#538EA9"/>
<stop offset="0.37" stop-color="#4C718B"/>
<stop offset="0.5" stop-color="#465A73"/>
<stop offset="0.63" stop-color="#424A63"/>
<stop offset="0.79" stop-color="#404059"/>
<stop offset="0.99" stop-color="#3F3D56"/>
</linearGradient>
<linearGradient id="paint4_linear_27_769" x1="195.791" y1="68.7921" x2="190.812" y2="312.246" gradientUnits="userSpaceOnUse">
<stop stop-color="#68E1FD"/>
<stop offset="0.01" stop-color="#67DDF9"/>
<stop offset="0.12" stop-color="#5CB3CE"/>
<stop offset="0.24" stop-color="#538EA9"/>
<stop offset="0.37" stop-color="#4C718B"/>
<stop offset="0.5" stop-color="#465A73"/>
<stop offset="0.63" stop-color="#424A63"/>
<stop offset="0.79" stop-color="#404059"/>
<stop offset="0.99" stop-color="#3F3D56"/>
</linearGradient>
<linearGradient id="paint5_linear_27_769" x1="336.671" y1="74.2781" x2="347.018" y2="74.2781" gradientUnits="userSpaceOnUse">
<stop stop-color="#ECC4D7"/>
<stop offset="0.42" stop-color="#EFD4D1"/>
<stop offset="1" stop-color="#F2EAC9"/>
</linearGradient>
<linearGradient id="paint6_linear_27_769" x1="342.153" y1="68.5261" x2="340.022" y2="92.4355" gradientUnits="userSpaceOnUse">
<stop stop-color="#ECC4D7"/>
<stop offset="0.42" stop-color="#EFD4D1"/>
<stop offset="1" stop-color="#F2EAC9"/>
</linearGradient>
<linearGradient id="paint7_linear_27_769" x1="327.429" y1="60.0361" x2="349.369" y2="60.0361" gradientUnits="userSpaceOnUse">
<stop stop-color="#ECC4D7"/>
<stop offset="0.42" stop-color="#EFD4D1"/>
<stop offset="1" stop-color="#F2EAC9"/>
</linearGradient>
<linearGradient id="paint8_linear_27_769" x1="376.642" y1="41.9184" x2="406" y2="41.9184" gradientUnits="userSpaceOnUse">
<stop stop-color="#ECC4D7"/>
<stop offset="0.42" stop-color="#EFD4D1"/>
<stop offset="1" stop-color="#F2EAC9"/>
</linearGradient>
<linearGradient id="paint9_linear_27_769" x1="399.247" y1="38.4465" x2="396.285" y2="15.4282" gradientUnits="userSpaceOnUse">
<stop stop-color="#ECC4D7"/>
<stop offset="0.42" stop-color="#EFD4D1"/>
<stop offset="1" stop-color="#F2EAC9"/>
</linearGradient>
<linearGradient id="paint10_linear_27_769" x1="322.734" y1="29.2412" x2="297.797" y2="13.6778" gradientUnits="userSpaceOnUse">
<stop stop-color="#ECC4D7"/>
<stop offset="0.42" stop-color="#EFD4D1"/>
<stop offset="1" stop-color="#F2EAC9"/>
</linearGradient>
<linearGradient id="paint11_linear_27_769" x1="305.282" y1="14.457" x2="319.999" y2="-3.55008" gradientUnits="userSpaceOnUse">
<stop stop-color="#ECC4D7"/>
<stop offset="0.42" stop-color="#EFD4D1"/>
<stop offset="1" stop-color="#F2EAC9"/>
</linearGradient>
<linearGradient id="paint12_linear_27_769" x1="262.645" y1="231.511" x2="266.439" y2="247.331" gradientUnits="userSpaceOnUse">
<stop stop-color="#68E1FD"/>
<stop offset="0.01" stop-color="#67DDF9"/>
<stop offset="0.12" stop-color="#5CB3CE"/>
<stop offset="0.24" stop-color="#538EA9"/>
<stop offset="0.37" stop-color="#4C718B"/>
<stop offset="0.5" stop-color="#465A73"/>
<stop offset="0.63" stop-color="#424A63"/>
<stop offset="0.79" stop-color="#404059"/>
<stop offset="0.99" stop-color="#3F3D56"/>
</linearGradient>
<linearGradient id="paint13_linear_27_769" x1="356.319" y1="242.173" x2="362.645" y2="251.033" gradientUnits="userSpaceOnUse">
<stop stop-color="#68E1FD"/>
<stop offset="0.01" stop-color="#67DDF9"/>
<stop offset="0.12" stop-color="#5CB3CE"/>
<stop offset="0.24" stop-color="#538EA9"/>
<stop offset="0.37" stop-color="#4C718B"/>
<stop offset="0.5" stop-color="#465A73"/>
<stop offset="0.63" stop-color="#424A63"/>
<stop offset="0.79" stop-color="#404059"/>
<stop offset="0.99" stop-color="#3F3D56"/>
</linearGradient>
<linearGradient id="paint14_linear_27_769" x1="379.496" y1="109.489" x2="342.15" y2="87.9486" gradientUnits="userSpaceOnUse">
<stop/>
<stop offset="0.98" stop-opacity="0"/>
</linearGradient>
<clipPath id="clip0_27_769">
<rect width="406" height="294" fill="white"/>
</clipPath>
</defs>
</svg>
