<svg width="224" height="219" viewBox="0 0 224 219" fill="none" xmlns="http://www.w3.org/2000/svg">
<path d="M17.9061 184.158C31.9382 214.134 64.8848 227.927 96.8412 212.666C114.322 204.336 127.876 187.06 145.629 179.242C165.568 170.433 187.794 163.434 203.533 145.134C220.297 125.639 227.194 96.4825 221.833 71.4909C215.278 41.0709 188.033 34.0036 164.988 21.6443C70.4498 -29.0217 -34.467 7.5439 10.907 149.538C14.6967 161.42 13.2628 174.223 17.9061 184.158Z" fill="#CCE9FF"/>
<path d="M182.024 53.2935L168.06 55.2737L164.066 67.2574L168.06 71.252L180.044 67.2574L182.024 53.2935Z" fill="#F7F7F7"/>
<path d="M165.056 70.2619C164.51 69.7156 164.51 68.8279 165.056 68.2816L171.031 62.3069C171.577 61.7606 172.465 61.7606 173.011 62.3069C173.557 62.8531 173.557 63.7408 173.011 64.2871L167.036 70.2619C166.49 70.8081 165.602 70.8081 165.056 70.2619Z" fill="#D3D3D3"/>
<path d="M175.025 64.2871C173.933 65.3796 172.123 65.3796 171.031 64.2871C169.938 63.1946 169.938 61.3851 171.031 60.2925C172.123 59.2 173.933 59.2 175.025 60.2925C176.118 61.3851 176.118 63.1604 175.025 64.2871Z" fill="#D3D3D3"/>
<path d="M156.077 71.2519V73.2321L162.051 79.2069H164.032L168.026 71.2178L164.032 67.2232L156.077 71.2519Z" fill="#FFBE55"/>
<path d="M141.874 56.0248L143.103 58.2782L151.092 60.2584L152.936 58.2782L151.297 52.1668L152.15 48.0357L146.62 46.9091L145.766 51.0402L141.874 56.0248Z" fill="#0E538C"/>
<path d="M146.62 46.9091L152.15 48.0357L153.277 42.5048L148.019 39.9783L146.62 46.9091Z" fill="#2A94F4"/>
<path d="M138.289 101.399C135.25 100.784 133.27 97.7799 133.885 94.7413L141.874 56.0248L152.936 58.3123L144.981 96.9947C144.332 100.067 141.362 102.013 138.289 101.399Z" fill="#0B4870"/>
<path d="M156.077 71.252L164.066 79.2411L144.127 99.1797C141.908 101.399 138.357 101.399 136.138 99.1797C133.919 96.9605 133.919 93.4098 136.138 91.1906L156.077 71.252Z" fill="#FFBE55"/>
<path d="M165.91 83.6112L173.557 81.7334L176.289 92.6928L168.641 94.5706L165.91 83.6112Z" fill="#0E538C"/>
<path d="M198.173 81.4261L186.804 77.3292C184.858 76.6463 182.741 76.5098 180.761 77.0219C179.191 77.3974 177.722 78.1485 176.493 79.2069L173.557 81.6993L176.254 92.6587L180.01 93.5122C181.58 93.8536 183.253 93.8536 184.824 93.4439C186.838 92.9318 188.648 91.8734 190.048 90.3371L198.173 81.4261Z" fill="#F7F7F7"/>
<path d="M194.247 85.7279L189.706 82.8601C186.907 81.153 183.39 81.1871 180.624 82.9625C179.976 83.3722 179.771 84.2599 180.181 84.9086C180.249 85.011 180.317 85.0793 180.386 85.1475C180.863 85.6255 181.58 85.6938 182.127 85.3524C183.97 84.1574 186.326 84.1233 188.204 85.2841L192.301 87.8789L194.247 85.7279Z" fill="#D3D3D3"/>
<path d="M166.695 83.4063L169.426 94.3657L140.645 101.501C137.606 102.252 134.568 100.409 133.817 97.3702C133.065 94.3316 134.909 91.293 137.948 90.5419L166.695 83.4063Z" fill="#2A94F4"/>
<path d="M82.3311 66.7111L67.1381 75.3831L51.9451 66.7111L67.1381 58.0733L82.3311 66.7111Z" fill="#FFBE55"/>
<path d="M67.1381 75.3831L57.715 69.9887L51.9451 73.2663L67.1381 81.9382L82.3311 73.2663L76.5612 69.9887L67.1381 75.3831Z" fill="#2A94F4"/>
<path d="M67.1381 81.9382L57.715 76.5439L51.9451 79.8215L67.1381 88.4934L82.3311 79.8215L76.5612 76.5439L67.1381 81.9382Z" fill="#0E538C"/>
<path d="M123.984 146.705H86.9743C85.2331 146.705 83.8333 145.305 83.8333 143.564C83.8333 141.822 85.2331 140.423 86.9743 140.423H123.984C125.725 140.423 127.125 141.822 127.125 143.564C127.125 145.339 125.725 146.705 123.984 146.705Z" fill="#D3D3D3"/>
<path d="M97.7998 183.018V186.159H129.654V183.018H97.7998Z" fill="#0E538C"/>
<path d="M100.767 185.524C101.041 187.162 99.9481 188.699 98.3093 188.972C96.6705 189.245 95.1341 188.152 94.861 186.514C94.5878 184.875 95.6804 183.339 97.3192 183.065C98.958 182.792 100.494 183.885 100.767 185.524Z" fill="#0E538C"/>
<path d="M115.141 144.656H112V184.294H115.141V144.656Z" fill="#0E538C"/>
<path d="M132.622 185.524C132.895 187.162 131.802 188.699 130.163 188.972C128.525 189.245 126.988 188.152 126.715 186.514C126.442 184.875 127.534 183.339 129.173 183.065C130.812 182.792 132.348 183.885 132.622 185.524Z" fill="#0E538C"/>
<path d="M133.714 146.705H98.719C96.3291 146.705 94.622 144.383 95.3049 142.027L112 84.4647C112.444 82.9283 113.844 81.8699 115.414 81.8699H150.375C152.765 81.8699 154.472 84.1916 153.789 86.5473L137.128 144.11C136.684 145.646 135.285 146.705 133.714 146.705Z" fill="#D3D3D3"/>
<path d="M128.9 146.705H98.4459C96.056 146.705 94.3489 144.383 95.0317 142.027L111.727 84.4647C112.171 82.9283 113.571 81.8699 115.141 81.8699H145.595C147.985 81.8699 149.692 84.1916 149.009 86.5473L132.314 144.11C131.87 145.646 130.471 146.705 128.9 146.705Z" fill="#F2F2F2"/>
<path d="M133.68 146.705H96.6705C94.9293 146.705 93.5295 145.305 93.5295 143.564C93.5295 141.822 94.9293 140.423 96.6705 140.423H133.68C135.421 140.423 136.821 141.822 136.821 143.564C136.821 145.339 135.421 146.705 133.68 146.705Z" fill="#D3D3D3"/>
<path d="M103.738 97.8482L96.1584 119.665L97.9337 123.966L108.142 122.02L111.044 98.6676L103.738 97.8482Z" fill="#FFE3CA"/>
<path d="M108.313 87.2302C108.313 87.2302 102.338 90.6102 101.006 101.809L108.927 106.52L108.313 87.2302Z" fill="#2A94F4"/>
<path d="M118.555 82.9283L108.313 87.2302L100.255 123.147L127.261 133.799L141.635 92.8294C141.635 92.8294 139.279 84.2599 125.793 82.1089L118.555 82.9283Z" fill="#2A94F4"/>
<path d="M145.834 125.127C145.8 124.649 145.527 121.816 145.425 121.372L140.986 92.8977C140.133 89.0055 135.728 87.0253 132.246 88.9714C129.685 90.4053 128.525 93.4781 129.515 96.2094L134.807 120.655L145.834 125.127Z" fill="#FFE3CA"/>
<path d="M139.791 119.016L109.678 116.66L108.176 122.02L137.162 131.819C141.635 133.321 146.176 129.805 145.834 125.127C145.595 121.884 143.035 119.289 139.791 119.016Z" fill="#FFE3CA"/>
<path d="M137.948 88.0837C137.948 88.0837 141.806 89.7566 143.444 99.6918L129.89 103.857C129.89 103.857 121.013 93.9219 130.505 87.2985L137.948 88.0837Z" fill="#2A94F4"/>
<path d="M100.221 122.328C101.314 125.298 106.913 125.4 109.849 124.308C112.819 123.215 115.858 121.508 114.731 118.538C113.639 115.568 108.688 113.826 105.479 114.543C101.553 115.465 99.0945 119.392 100.221 122.328Z" fill="#FFE3CA"/>
<path d="M116.609 126.356L95.1 123.591L95.4072 121.167L116.916 123.932C117.599 124.035 118.043 124.615 117.975 125.298C117.872 125.981 117.258 126.459 116.609 126.356Z" fill="#FFBE55"/>
<path d="M97.9338 123.966L69.4597 120.313C67.8209 120.108 66.5236 118.811 66.2846 117.172L63.2801 96.5167C63.007 94.673 64.5775 93.1025 66.387 93.3415L92.5394 96.6874C93.6319 96.824 94.4855 97.6775 94.622 98.77L97.9338 123.966Z" fill="#FFBE55"/>
<path d="M82.1262 109.764C81.9213 111.266 80.5898 112.29 79.0876 112.119C77.5854 111.914 76.5611 110.583 76.7318 109.081C76.9367 107.579 78.2682 106.554 79.7704 106.725C81.2726 106.93 82.331 108.295 82.1262 109.764Z" fill="white"/>
<path d="M63.8947 178.525L56.486 181.597L51.8086 181.939C49.6577 182.109 47.8823 183.646 47.4043 185.763L47.1995 186.753L72.5325 189.928L73.0446 179.72L63.8947 178.525Z" fill="#FFBE55"/>
<path d="M73.0787 179.72L75.571 168.589L66.387 167.36L63.8947 178.525L73.0787 179.72Z" fill="#FFE3CA"/>
<path d="M127.227 133.799C127.227 133.799 126.51 139.945 115.482 140.764H88.9887L76.4929 175.623L63.3484 173.506L76.4929 122.328L106.606 125.674L127.227 133.799Z" fill="#0B4870"/>
<path d="M42.6587 158.518L34.7378 157.357L30.5384 155.24C28.6265 154.284 26.2707 154.694 24.8026 156.264L24.1198 157.015L44.2292 172.755L49.8967 164.253L42.6587 158.518Z" fill="#FFBE55"/>
<path d="M49.9649 164.253L56.8615 155.479L49.6235 149.675L42.6586 158.518L49.9649 164.253Z" fill="#FFE3CA"/>
<path d="M100.255 123.147L79.8388 117.036C78.9852 116.763 78.1317 116.489 77.3123 116.148C75.5369 115.465 71.0985 114.543 67.6503 119.801C63.2119 126.561 45.5266 152.099 45.5266 152.099L56.3153 160.054L79.8729 130.01C81.8531 127.278 85.0283 125.674 88.3741 125.674L106.606 125.639L100.255 123.147Z" fill="#0B4870"/>
<path d="M126.51 71.7299C126.886 71.0471 133.202 59.7804 127.398 56.9467C127.398 56.9467 126.647 51.006 119.989 51.6547C113.332 52.3034 115.141 54.2495 110.908 53.2935C106.674 52.3376 102.679 54.5226 102.987 58.0392C103.294 61.5899 106.025 63.0921 110.908 62.2386C115.79 61.3851 119.648 62.0338 119.648 62.0338L123.711 63.2287L126.51 71.7299Z" fill="#FFBE55"/>
<path d="M127.33 83.9185L126.817 69.6132L116.882 73.1297L117.668 84.6013C117.838 87.2643 119.34 89.347 122.003 89.1421L122.823 89.0738C125.486 88.9031 127.5 86.6156 127.33 83.9185Z" fill="#FFE3CA"/>
<path d="M125.964 71.5934C125.964 71.5934 127.842 83.5429 117.633 84.2257L117.19 78.5583L125.964 71.5934Z" fill="#FCD2B1"/>
<path d="M117.531 81.5627H117.872C122.96 81.3237 126.886 77.0219 126.647 71.9348L126.169 61.5558C126.101 60.2243 124.974 59.2342 123.676 59.2683L111.556 59.8487C109.2 59.9511 107.391 61.9655 107.493 64.3213L107.903 72.8566C108.142 77.8754 112.444 81.8017 117.531 81.5627Z" fill="#FFE3CA"/>
<path d="M124.359 68.7938C124.428 70.5009 125.896 71.8324 127.603 71.7641C129.31 71.6958 130.641 70.2277 130.573 68.5207C130.505 66.8136 129.037 65.4821 127.33 65.5503C125.588 65.6186 124.257 67.0526 124.359 68.7938Z" fill="#FFE3CA"/>
<path d="M122.857 60.4632L123.472 72.0713C123.54 73.1297 123.096 74.1881 122.243 74.7685C121.696 75.1441 121.252 75.6562 120.296 75.5196C117.531 75.1099 118.794 73.0614 113.195 73.3687C108.074 73.6419 108.449 76.5097 108.449 76.5097C108.449 76.5097 109.439 81.9382 116.473 82.1772C123.506 82.4504 127.022 77.9778 126.203 72.0713L125.52 59.8145L122.857 60.4632Z" fill="#FFBE55"/>
<path d="M107.835 62.4093C107.835 62.4093 111.112 62.9214 115.858 61.7606C120.604 60.5998 124.359 64.4236 124.359 64.4236C124.359 64.4236 125.384 66.199 125.623 66.1307C125.861 66.0966 127.33 65.5162 127.33 65.5162L127.261 60.156L123.779 57.4588L114.151 57.0491L108.449 58.3123L107.835 62.4093Z" fill="#FFBE55"/>
<path d="M110.327 37.0763L110.566 37.5884L105.479 39.9101L105.24 39.3638C104.25 37.2129 102.372 35.4375 100.119 34.4816C98.1727 33.6622 96.8071 32.0917 96.1925 30.1115C95.339 27.107 96.7388 23.2832 100.221 21.6785C103.874 20.0056 108.108 21.5419 109.713 24.9902C110.43 26.5607 110.532 28.3702 109.917 30.0432C109.098 32.3307 109.269 34.7888 110.327 37.0763Z" fill="#FFBE55"/>
<path d="M111.761 40.1149C112.034 40.6953 111.761 41.3781 111.147 41.6513L108.21 42.9828C107.596 43.2559 106.913 43.0169 106.64 42.4024L106.025 41.0709L111.112 38.7492L111.761 40.1149Z" fill="#FFBE55"/>
<path d="M98.1916 15.739L96.9802 16.2916L98.2554 19.0872L99.4668 18.5346L98.1916 15.739Z" fill="#FFBE55"/>
<path d="M107.323 18.0936L108.552 18.5375L109.713 15.6355L108.483 15.1916L107.323 18.0936Z" fill="#FFBE55"/>
<path d="M117.112 22.3732L114.192 23.7051L114.73 24.8855L117.65 23.5536L117.112 22.3732Z" fill="#FFBE55"/>
<path d="M92.5006 33.6092L89.5807 34.9411L90.1192 36.1214L93.039 34.7896L92.5006 33.6092Z" fill="#FFBE55"/>
<path d="M89.8422 23.6928L89.3642 24.9219L92.3004 25.9462L92.7442 24.7171L89.8422 23.6928Z" fill="#FFBE55"/>
<path d="M63.5191 49.2307L62.1193 47.8309C61.8803 47.5919 61.5731 47.4553 61.2316 47.4553C60.8902 47.4553 60.583 47.5919 60.344 47.8309L60.1391 48.0357C58.2955 46.8066 56.1104 46.1579 53.8571 46.1238H53.8229C52.4231 46.1238 51.0575 46.3628 49.7942 46.8749L52.2524 44.4167C52.5597 44.5533 52.9011 44.6557 53.2425 44.6557C53.8571 44.6557 54.4716 44.4167 54.8813 43.9729C55.3252 43.529 55.5642 42.9486 55.5642 42.3341C55.5642 41.7195 55.3252 41.105 54.8813 40.6953C54.4375 40.2514 53.8571 40.0125 53.2425 40.0125C52.628 40.0125 52.0134 40.2514 51.6037 40.6953C51.1599 41.1391 50.9209 41.7195 50.9209 42.3341C50.9209 42.6755 50.9892 43.0169 51.1599 43.3242L46.7215 47.7626L46.5849 47.626C46.3459 47.387 46.0387 47.2505 45.6973 47.2505C45.3558 47.2505 45.0486 47.387 44.8096 47.626L43.3756 49.0258C43.1366 49.2648 43.0001 49.5721 43.0001 49.9135C43.0001 50.2549 43.1366 50.5622 43.3756 50.8012L43.5122 50.9377L39.0738 55.3761C38.7665 55.2396 38.4251 55.1371 38.0837 55.1371C37.4692 55.1371 36.8546 55.3761 36.4449 55.82C35.5231 56.7418 35.5231 58.2099 36.4449 59.1317C36.8887 59.5755 37.4692 59.8145 38.0837 59.8145C38.6982 59.8145 39.3128 59.5755 39.7225 59.1317C40.4395 58.4147 40.6102 57.3222 40.1663 56.4687L42.6245 54.0105C42.1465 55.3078 41.8734 56.6735 41.8734 58.0733C41.8734 60.3266 42.5221 62.4776 43.7853 64.3553L43.5463 64.5943C43.0684 65.0723 43.0684 65.8917 43.5463 66.3697L44.9461 67.7695C45.1851 68.0085 45.4924 68.1451 45.8338 68.1451C46.1752 68.1451 46.4825 68.0085 46.7215 67.7695L48.1213 66.3697C48.5993 65.8917 48.5993 65.0723 48.1213 64.5943L46.7215 63.1945C46.4825 62.9555 46.1752 62.819 45.8338 62.819C45.4924 62.819 45.1851 62.9555 44.9461 63.1945L44.912 63.2287C42.8977 59.9511 42.9659 55.6834 45.1851 52.4741C45.3217 52.5424 45.4924 52.5765 45.629 52.5765C45.9704 52.5765 46.2777 52.44 46.5167 52.201L47.9165 50.8012C48.292 50.4256 48.3603 49.9135 48.1896 49.4696C51.3989 47.2505 55.6666 47.148 58.9442 49.1965L58.8417 49.2989C58.3638 49.7769 58.3638 50.5963 58.8417 51.0743L60.2415 52.4741C60.4805 52.7131 60.7878 52.8497 61.1292 52.8497C61.4706 52.8497 61.7779 52.7131 62.0169 52.4741L63.4167 51.0743C63.9971 50.528 63.9971 49.7428 63.5191 49.2307ZM46.8581 65.482L45.868 66.4721L44.8779 65.482L45.868 64.4919L46.8581 65.482ZM52.6963 41.7195C52.8328 41.583 53.0377 41.4805 53.2425 41.4805C53.4474 41.4805 53.6522 41.5488 53.7888 41.7195C53.9254 41.8561 54.0278 42.0609 54.0278 42.2658C54.0278 42.4706 53.9595 42.6755 53.7888 42.8121C53.6522 42.9486 53.4474 43.051 53.2425 43.051C53.0377 43.051 52.8328 42.9828 52.6963 42.8121C52.5597 42.6755 52.4573 42.4706 52.4573 42.2658C52.4914 42.0609 52.5597 41.8902 52.6963 41.7195ZM38.63 58.005C38.4934 58.1416 38.2885 58.244 38.0837 58.244C37.8789 58.244 37.674 58.1757 37.5374 58.005C37.2302 57.6977 37.2302 57.2198 37.5374 56.9125C37.674 56.7759 37.8789 56.6735 38.0837 56.6735C38.2885 56.6735 38.4934 56.7418 38.63 56.9125C38.9372 57.2198 38.9372 57.7319 38.63 58.005ZM45.6631 50.8694L44.673 49.8793L45.6631 48.8892L46.6532 49.8793L45.6631 50.8694ZM61.1975 51.1084L60.2074 50.1183L61.1975 49.1282L62.1876 50.1183L61.1975 51.1084Z" fill="#0E538C"/>
</svg>
