<svg width="1792" height="1536" viewBox="0 0 1792 1536" fill="none" xmlns="http://www.w3.org/2000/svg">
<path d="M1408 928V1248C1408 1327.33 1379.83 1395.17 1323.5 1451.5C1267.17 1507.83 1199.33 1536 1120 1536H288C208.667 1536 140.833 1507.83 84.5 1451.5C28.1667 1395.17 0 1327.33 0 1248V416C0 336.667 28.1667 268.833 84.5 212.5C140.833 156.167 208.667 128 288 128H992C1001.33 128 1009 131 1015 137C1021 143 1024 150.667 1024 160V224C1024 233.333 1021 241 1015 247C1009 253 1001.33 256 992 256H288C244 256 206.333 271.667 175 303C143.667 334.333 128 372 128 416V1248C128 1292 143.667 1329.67 175 1361C206.333 1392.33 244 1408 288 1408H1120C1164 1408 1201.67 1392.33 1233 1361C1264.33 1329.67 1280 1292 1280 1248V928C1280 918.667 1283 911 1289 905C1295 899 1302.67 896 1312 896H1376C1385.33 896 1393 899 1399 905C1405 911 1408 918.667 1408 928ZM1792 64V576C1792 593.333 1785.67 608.333 1773 621C1760.33 633.667 1745.33 640 1728 640C1710.67 640 1695.67 633.667 1683 621L1507 445L855 1097C848.333 1103.67 840.667 1107 832 1107C823.333 1107 815.667 1103.67 809 1097L695 983C688.333 976.333 685 968.667 685 960C685 951.333 688.333 943.667 695 937L1347 285L1171 109C1158.33 96.3333 1152 81.3333 1152 64C1152 46.6667 1158.33 31.6667 1171 19C1183.67 6.33333 1198.67 0 1216 0H1728C1745.33 0 1760.33 6.33333 1773 19C1785.67 31.6667 1792 46.6667 1792 64Z" fill="white"/>
</svg>
