<svg width="927" height="570" viewBox="0 0 927 570" fill="none" xmlns="http://www.w3.org/2000/svg">
<path opacity="0.07" d="M778.488 536.146C774.591 536.146 913.72 234.796 764.344 277.661C614.968 320.525 590.577 333.37 616.267 231.621C641.956 129.872 563.444 -105.666 441.201 53.9575C318.958 213.581 148.943 115.728 128.305 204.633C107.666 293.537 205.519 314.031 143.748 352.71C81.9767 391.389 120.511 536.146 120.511 536.146H778.488Z" fill="#2A94F4"/>
<path d="M913.72 569.63H13.4222C6.06162 569.63 0 563.568 0 556.207V544.517C0 537.157 6.06162 531.095 13.4222 531.095H913.575C920.936 531.095 926.998 537.157 926.998 544.517V556.207C927.142 563.712 921.08 569.63 913.72 569.63Z" fill="#D3D3D3"/>
<path d="M286.629 456.912H222.549V532.394H286.629V456.912Z" fill="#FFBE55"/>
<path d="M224.425 525.322C209.849 525.322 197.87 513.487 197.87 498.766C197.87 484.045 209.704 472.21 224.425 472.21C239.146 472.21 250.981 484.045 250.981 498.766C250.981 513.487 239.146 525.322 224.425 525.322ZM224.425 478.128C213.024 478.128 203.643 487.365 203.643 498.911C203.643 510.457 212.879 519.693 224.425 519.693C235.971 519.693 245.208 510.457 245.208 498.911C245.208 487.365 235.827 478.128 224.425 478.128Z" fill="#FFBE55"/>
<g opacity="0.41">
<path d="M264.692 452.005C263.97 452.005 263.393 451.716 262.96 451.139C262.671 450.706 256.032 441.758 258.053 431.944C259.208 426.315 262.96 421.553 269.022 417.944C276.238 413.759 276.671 411.017 276.526 410.151C276.238 407.842 271.619 405.821 269.455 405.244C268.3 404.955 267.578 403.801 267.867 402.646C268.156 401.491 269.31 400.77 270.465 401.058C271.475 401.347 279.846 403.801 280.712 409.574C281.289 413.615 278.114 417.511 271.042 421.697C265.991 424.728 262.96 428.48 262.094 432.81C260.506 440.748 266.279 448.397 266.279 448.541C267.001 449.552 266.857 450.85 265.846 451.572C265.558 451.861 265.125 452.005 264.692 452.005Z" fill="#FFBE55"/>
</g>
<g opacity="0.41">
<path d="M240.877 449.84C239.867 449.84 239.001 449.119 238.712 448.253C238.424 447.098 239.145 445.943 240.3 445.655C243.475 444.933 243.908 444.067 243.908 444.067C243.908 443.49 243.186 441.325 231.352 434.397C228.032 432.521 227.599 430.212 227.599 428.624C228.032 421.408 243.908 414.336 247.083 413.037C248.238 412.604 249.392 413.037 249.97 414.192C250.403 415.347 249.97 416.501 248.815 417.078C240.877 420.542 232.073 426.027 231.929 429.057C231.929 429.635 232.362 430.212 233.517 430.789C243.186 436.418 248.815 440.603 248.093 444.789C247.516 448.397 242.753 449.552 241.31 449.985C241.166 449.84 241.022 449.84 240.877 449.84Z" fill="#FFBE55"/>
</g>
<g opacity="0.41">
<path d="M252.857 402.357C252.28 402.357 251.847 402.213 251.414 401.78C250.548 400.914 250.548 399.615 251.27 398.749C252.424 397.595 255.455 393.409 254.733 390.811C254.445 389.657 253.146 388.647 251.125 388.069C247.373 386.915 246.218 384.75 245.93 383.018C244.775 376.812 254.445 369.018 256.465 367.431C257.476 366.709 258.774 366.853 259.496 367.864C260.218 368.874 260.073 370.173 259.063 370.895C255.166 373.925 249.682 379.554 250.115 382.296C250.259 383.018 250.981 383.451 252.28 383.884C255.888 385.038 258.053 386.915 258.774 389.657C260.218 395.141 254.878 400.914 254.3 401.636C254.012 402.213 253.434 402.357 252.857 402.357Z" fill="#FFBE55"/>
</g>
<path d="M366.685 365.122C365.386 347.514 364.52 331.061 363.942 315.763C368.128 313.453 373.324 310.855 377.365 308.979C389.921 302.918 407.529 294.835 418.786 289.64C425.425 286.609 431.919 284.444 431.919 284.444C431.919 284.444 476.949 280.114 480.701 280.403C481.856 280.403 487.484 282.423 494.845 285.31C510.865 291.372 541.606 303.784 546.513 307.247C553.729 312.443 579.419 438.583 580.141 447.242C580.863 455.613 545.07 467.015 512.02 475.674C512.02 488.519 512.308 506.415 512.597 522.724C512.597 525.466 512.741 528.208 512.741 530.951H368.128C368.272 528.208 368.561 525.322 368.705 522.724C368.705 522.435 368.705 522.002 368.705 521.714C369.282 510.601 371.447 490.828 370.87 471.489C370.87 471.489 371.159 451.139 369.138 442.335C368.994 403.512 366.685 365.122 366.685 365.122ZM550.121 439.449C549.833 422.996 528.04 392.399 528.04 392.399L527.029 391.966L525.875 391.822L522.411 388.647C521.545 391.533 514.329 432.81 512.597 456.912C533.091 452.871 550.121 447.242 550.121 439.449Z" fill="#D3D3D3"/>
<path d="M363.943 522.724C364.953 515.941 365.819 509.013 366.541 502.374C366.541 502.374 366.541 502.374 366.541 502.23C366.829 500.065 367.118 497.756 367.262 495.591C367.262 495.447 367.262 495.302 367.262 495.302C368.273 486.066 369.139 477.262 369.86 469.18C370.293 462.974 369.86 456.912 368.994 450.995C366.541 409.574 365.242 365.843 365.242 365.843C363.943 347.947 363.221 331.205 362.644 315.618C362.644 315.618 419.219 288.918 424.415 287.331C424.415 287.331 413.735 312.587 405.653 368.874C402.622 390.523 396.849 426.893 392.664 464.128C390.354 484.189 386.169 504.684 382.994 522.724C382.561 525.466 381.984 528.208 381.551 530.951H362.788C363.221 528.208 363.654 525.466 363.943 522.724Z" fill="#FFBE55"/>
<path d="M458.187 456.19C456.022 435.263 454.001 414.336 454.867 402.935C462.661 310.855 484.743 286.465 487.918 282.856C490.371 283.867 499.752 287.331 502.639 288.485C517.793 294.402 548.534 305.371 552.719 308.402C559.936 313.598 588.223 445.943 589.089 454.459C589.667 460.232 552.575 472.355 514.906 483.179C515.195 493.571 514.329 508.147 517.649 523.446C518.226 526.188 519.092 527.92 519.236 531.384L466.702 530.951C466.413 528.208 465.98 525.466 465.692 522.724C464.681 514.498 463.671 506.127 462.661 497.034C446.93 501.075 436.105 503.818 436.105 503.818C436.105 503.818 421.24 478.705 416.91 468.602C416.333 466.87 435.383 462.252 458.187 456.19ZM526.308 424.439C526.741 405.532 526.741 392.399 526.741 392.399C524.865 398.894 522.267 417.367 519.958 435.696C527.751 431.944 526.308 428.336 526.308 424.439Z" fill="#FFBE55"/>
<path d="M483.01 281.846C483.01 281.846 477.238 271.022 478.825 240.281C479.258 231.766 434.084 260.486 434.084 260.486C434.084 260.486 434.229 263.373 434.373 267.414C434.373 269.001 434.517 270.877 434.517 272.754C434.517 273.331 434.517 273.764 434.517 274.341C434.517 275.207 434.517 276.073 434.517 276.795C434.517 277.805 434.517 278.815 434.373 279.826C434.373 280.98 434.229 281.991 434.084 283.001C433.94 284.877 432.786 288.197 432.353 289.062C430.332 293.681 466.125 293.97 483.01 281.846Z" fill="#FFE3CA"/>
<path d="M436.25 291.083L445.054 301.474C445.054 301.474 459.342 298.732 463.527 291.227C467.857 283.722 436.25 291.083 436.25 291.083Z" fill="#FFE3CA"/>
<path d="M350.52 399.038C363.365 380.564 375.489 376.09 375.489 376.09C375.489 376.09 413.302 331.782 382.994 312.01C382.994 312.01 370.004 311.721 362.788 315.618C355.428 319.659 339.84 352.277 337.098 358.05C334.5 363.823 334.067 372.771 332.191 374.07C332.336 373.925 329.016 397.017 350.52 399.038Z" fill="#FFBE55"/>
<path d="M399.302 514.931C399.302 514.931 403.199 514.786 404.787 513.92C404.787 513.92 407.673 512.044 409.838 510.889C410.56 510.457 411.137 510.168 411.57 510.024C413.302 509.302 417.199 508.436 420.807 505.694C424.415 502.952 436.25 491.983 436.25 491.983L428.6 480.293L425.136 468.747C425.136 468.747 397.715 471.489 393.962 473.654C393.674 473.798 393.241 474.087 392.952 474.375C390.066 476.54 388.767 479.282 387.323 480.581C386.746 481.014 381.983 486.21 382.272 488.231C382.705 491.117 384.004 492.993 385.88 493.859C385.88 493.859 386.89 499.488 389.777 501.941C389.777 501.941 390.499 507.137 394.973 509.302C394.973 509.158 396.272 514.353 399.302 514.931Z" fill="#FFE3CA"/>
<path d="M458.908 161.479C458.908 161.479 413.302 138.388 409.116 202.035C404.931 265.538 415.322 273.331 447.651 267.991C479.98 262.795 487.196 223.106 493.402 204.344C499.608 185.726 474.207 166.098 458.908 161.479Z" fill="#FFE3CA"/>
<path d="M469.156 204.488C469.877 199.004 480.846 197.128 481.567 205.354C482.289 213.725 476.227 228.157 472.186 226.57C468.145 225.127 468.145 212.137 469.156 204.488Z" fill="#FFE3CA"/>
<path d="M483.155 235.085C483.155 235.085 486.763 215.601 479.835 213.292C473.052 210.983 470.021 218.343 470.021 218.343L462.661 217.91C462.661 217.91 469.155 201.746 462.805 196.983C456.599 192.365 415.178 194.818 410.848 188.468C406.518 182.118 387.756 157.294 430.188 155.851C446.496 155.273 472.042 150.078 483.443 168.263C483.443 168.263 498.886 174.757 498.742 180.097C498.742 193.808 489.938 226.57 483.155 235.085Z" fill="#0B4870"/>
<path d="M415.611 468.602L436.105 503.818C436.105 503.818 490.371 489.818 503.072 486.21L474.062 451.716C474.207 451.861 431.487 461.53 415.611 468.602Z" fill="#FFBE55"/>
<path d="M434.229 276.362C460.929 273.62 471.176 253.126 471.176 253.126C454.435 269.723 434.373 269.29 434.373 269.29C434.373 269.867 434.373 270.3 434.373 270.878C434.373 271.743 434.373 272.609 434.373 273.331C434.373 274.341 434.374 275.352 434.229 276.362Z" fill="#FCD2B1"/>
<path d="M428.6 277.805C428.6 277.805 427.157 280.403 426.002 281.269C426.002 281.269 423.693 282.712 422.25 283.722C421.817 284.011 421.384 284.444 421.095 284.588C420.085 285.599 418.064 287.908 415.033 289.64C411.858 291.227 400.312 295.846 400.312 295.846L394.684 286.609L387.756 280.259C387.756 280.259 398.725 261.929 401.467 260.053C401.755 259.909 402.044 259.764 402.333 259.62C404.786 258.321 407.24 258.321 408.539 257.744C409.116 257.6 414.167 255.868 415.611 256.734C417.487 257.888 418.353 259.62 418.353 261.063C418.353 261.063 421.961 263.661 422.827 266.403C422.827 266.403 426.291 268.568 426.146 272.465C426.002 272.754 429.321 275.496 428.6 277.805Z" fill="#FFE3CA"/>
<path d="M386.746 275.496C386.746 275.496 342.005 343.329 339.408 362.812C336.81 382.296 349.077 390.667 359.613 384.317C370.004 377.967 404.354 297.722 404.354 297.722L386.746 275.496Z" fill="#FFBE55"/>
<path d="M628.679 396.584L614.246 531.239H804.755L819.331 396.584H628.679Z" fill="#2A94F4"/>
<path d="M599.001 531.117H630.896V518.994H599.001V531.117Z" fill="#2A94F4"/>
<path d="M706.181 461.675C704.594 469.18 708.202 476.252 713.975 477.406C719.748 478.561 725.809 473.509 727.397 466.004C728.985 458.5 725.376 451.428 719.604 450.273C713.686 449.118 707.769 454.17 706.181 461.675Z" fill="#D3D3D3"/>
</svg>
