<svg width="224" height="138" viewBox="0 0 224 138" fill="none" xmlns="http://www.w3.org/2000/svg">
<path opacity="0.07" d="M187.451 129.181C186.514 129.181 219.986 56.6806 184.049 66.9931C148.111 77.3056 142.243 80.3958 148.424 55.9167C154.604 31.4375 135.715 -25.2292 106.306 13.1736C76.8958 51.5764 35.993 28.0347 31.0278 49.4236C26.0625 70.8125 49.6041 75.7431 34.743 85.0486C19.8819 94.3542 29.1528 129.181 29.1528 129.181H187.451Z" fill="#2A94F4"/>
<path d="M219.986 137.236H3.38889C1.61806 137.236 0.159729 135.778 0.159729 134.007V131.194C0.159729 129.424 1.61806 127.965 3.38889 127.965H219.951C221.722 127.965 223.181 129.424 223.181 131.194V134.007C223.215 135.812 221.757 137.236 219.986 137.236Z" fill="#D3D3D3"/>
<path d="M69.1181 110.118H53.7014V128.278H69.1181V110.118Z" fill="#FFBE55"/>
<path d="M54.1528 126.576C50.6459 126.576 47.7639 123.729 47.7639 120.188C47.7639 116.646 50.6111 113.799 54.1528 113.799C57.6945 113.799 60.5417 116.646 60.5417 120.188C60.5417 123.729 57.6945 126.576 54.1528 126.576ZM54.1528 115.222C51.4097 115.222 49.1528 117.444 49.1528 120.222C49.1528 123 51.375 125.222 54.1528 125.222C56.9306 125.222 59.1528 123 59.1528 120.222C59.1528 117.444 56.8959 115.222 54.1528 115.222Z" fill="#FFBE55"/>
<g opacity="0.41">
<path d="M63.8403 108.938C63.6666 108.938 63.5277 108.868 63.4236 108.729C63.3541 108.625 61.7569 106.472 62.243 104.111C62.5208 102.757 63.4236 101.611 64.8819 100.743C66.618 99.7361 66.7222 99.0764 66.6875 98.8681C66.618 98.3125 65.5069 97.8264 64.9861 97.6875C64.7083 97.6181 64.5347 97.3403 64.6041 97.0625C64.6736 96.7847 64.9514 96.6111 65.2291 96.6806C65.4722 96.75 67.4861 97.3403 67.6944 98.7292C67.8333 99.7014 67.0694 100.639 65.368 101.646C64.1528 102.375 63.4236 103.278 63.2153 104.319C62.8333 106.229 64.2222 108.069 64.2222 108.104C64.3958 108.347 64.3611 108.66 64.118 108.833C64.0486 108.903 63.9444 108.938 63.8403 108.938Z" fill="#FFBE55"/>
</g>
<g opacity="0.41">
<path d="M58.1111 108.417C57.8681 108.417 57.6597 108.243 57.5903 108.035C57.5209 107.757 57.6945 107.479 57.9722 107.41C58.7361 107.236 58.8403 107.028 58.8403 107.028C58.8403 106.889 58.6667 106.368 55.8195 104.701C55.0209 104.25 54.9167 103.694 54.9167 103.312C55.0209 101.576 58.8403 99.875 59.6042 99.5625C59.882 99.4583 60.1597 99.5625 60.2986 99.8403C60.4028 100.118 60.2986 100.396 60.0209 100.535C58.1111 101.368 55.9931 102.688 55.9584 103.417C55.9584 103.556 56.0625 103.694 56.3403 103.833C58.6667 105.187 60.0209 106.194 59.8472 107.201C59.7084 108.069 58.5625 108.347 58.2153 108.451C58.1806 108.417 58.1459 108.417 58.1111 108.417Z" fill="#FFBE55"/>
</g>
<g opacity="0.41">
<path d="M60.9931 96.9931C60.8542 96.9931 60.75 96.9583 60.6459 96.8542C60.4375 96.6458 60.4375 96.3333 60.6111 96.125C60.8889 95.8472 61.6181 94.8403 61.4445 94.2153C61.375 93.9375 61.0625 93.6945 60.5764 93.5556C59.6736 93.2778 59.3959 92.757 59.3264 92.3403C59.0486 90.8472 61.375 88.9722 61.8611 88.5903C62.1042 88.4167 62.4167 88.4514 62.5903 88.6945C62.7639 88.9375 62.7292 89.25 62.4861 89.4236C61.5486 90.1528 60.2292 91.507 60.3334 92.1667C60.3681 92.3403 60.5417 92.4444 60.8542 92.5486C61.7222 92.8264 62.2431 93.2778 62.4167 93.9375C62.7639 95.2569 61.4792 96.6458 61.3403 96.8195C61.2709 96.9583 61.132 96.9931 60.9931 96.9931Z" fill="#FFBE55"/>
</g>
<path d="M133.562 88.0347C133.875 83.7986 134.083 79.8403 134.222 76.1597C133.215 75.6042 131.965 74.9792 130.993 74.5278C127.972 73.0694 123.736 71.125 121.028 69.875C119.431 69.1458 117.868 68.625 117.868 68.625C117.868 68.625 107.035 67.5833 106.132 67.6528C105.854 67.6528 104.5 68.1389 102.729 68.8333C98.875 70.2917 91.4792 73.2778 90.2986 74.1111C88.5625 75.3611 82.3819 105.708 82.2083 107.792C82.0347 109.806 90.6458 112.549 98.5972 114.632C98.5972 117.722 98.5278 122.028 98.4583 125.951C98.4583 126.611 98.4236 127.271 98.4236 127.931H133.215C133.181 127.271 133.111 126.576 133.076 125.951C133.076 125.882 133.076 125.778 133.076 125.708C132.938 123.035 132.417 118.278 132.556 113.625C132.556 113.625 132.486 108.729 132.972 106.611C133.007 97.2708 133.562 88.0347 133.562 88.0347ZM89.4306 105.917C89.5 101.958 94.7431 94.5972 94.7431 94.5972L94.9861 94.4931L95.2639 94.4583L96.0972 93.6945C96.3056 94.3889 98.0417 104.319 98.4583 110.118C93.5278 109.146 89.4306 107.792 89.4306 105.917Z" fill="#D3D3D3"/>
<path d="M134.222 125.951C133.979 124.319 133.771 122.653 133.597 121.056C133.597 121.056 133.597 121.056 133.597 121.021C133.528 120.5 133.458 119.944 133.424 119.424C133.424 119.389 133.424 119.354 133.424 119.354C133.181 117.132 132.972 115.014 132.799 113.069C132.694 111.576 132.799 110.118 133.007 108.694C133.597 98.7292 133.91 88.2083 133.91 88.2083C134.222 83.9028 134.396 79.875 134.535 76.125C134.535 76.125 120.924 69.7014 119.674 69.3195C119.674 69.3195 122.243 75.3958 124.187 88.9375C124.917 94.1458 126.306 102.896 127.312 111.854C127.868 116.681 128.875 121.611 129.639 125.951C129.743 126.611 129.882 127.271 129.986 127.931H134.5C134.396 127.271 134.292 126.611 134.222 125.951Z" fill="#FFBE55"/>
<path d="M111.549 109.944C112.069 104.91 112.556 99.875 112.347 97.1319C110.472 74.9792 105.16 69.1111 104.396 68.243C103.806 68.4861 101.549 69.3194 100.854 69.5972C97.2083 71.0208 89.8125 73.6597 88.8055 74.3889C87.0694 75.6389 80.2639 107.479 80.0556 109.528C79.9167 110.917 88.8403 113.833 97.9028 116.438C97.8333 118.938 98.0417 122.444 97.2431 126.125C97.1042 126.785 96.8958 127.201 96.8611 128.035L109.5 127.931C109.569 127.271 109.674 126.611 109.743 125.951C109.986 123.972 110.229 121.958 110.472 119.771C114.257 120.743 116.861 121.403 116.861 121.403C116.861 121.403 120.437 115.361 121.479 112.931C121.618 112.514 117.035 111.403 111.549 109.944ZM95.1597 102.306C95.0556 97.7569 95.0555 94.5972 95.0555 94.5972C95.5069 96.1597 96.1319 100.604 96.6875 105.014C94.8125 104.111 95.1597 103.243 95.1597 102.306Z" fill="#FFBE55"/>
<path d="M105.576 68C105.576 68 106.965 65.3958 106.583 58C106.479 55.9514 117.347 62.8611 117.347 62.8611C117.347 62.8611 117.313 63.5556 117.278 64.5278C117.278 64.9097 117.243 65.3611 117.243 65.8125C117.243 65.9514 117.243 66.0556 117.243 66.1945C117.243 66.4028 117.243 66.6111 117.243 66.7847C117.243 67.0278 117.243 67.2708 117.278 67.5139C117.278 67.7917 117.313 68.0347 117.347 68.2778C117.382 68.7292 117.66 69.5278 117.764 69.7361C118.25 70.8472 109.639 70.9167 105.576 68Z" fill="#FFE3CA"/>
<path d="M116.826 70.2222L114.708 72.7222C114.708 72.7222 111.271 72.0625 110.264 70.2569C109.222 68.4514 116.826 70.2222 116.826 70.2222Z" fill="#FFE3CA"/>
<path d="M137.451 96.1944C134.361 91.75 131.444 90.6736 131.444 90.6736C131.444 90.6736 122.347 80.0139 129.639 75.2569C129.639 75.2569 132.764 75.1875 134.5 76.125C136.271 77.0972 140.021 84.9444 140.681 86.3333C141.306 87.7222 141.41 89.875 141.861 90.1875C141.826 90.1528 142.625 95.7083 137.451 96.1944Z" fill="#FFBE55"/>
<path d="M125.715 124.076C125.715 124.076 124.778 124.042 124.396 123.833C124.396 123.833 123.701 123.382 123.181 123.104C123.007 123 122.868 122.931 122.764 122.896C122.347 122.722 121.41 122.514 120.542 121.854C119.674 121.194 116.826 118.556 116.826 118.556L118.667 115.743L119.5 112.965C119.5 112.965 126.097 113.625 127 114.146C127.069 114.181 127.174 114.25 127.243 114.319C127.937 114.84 128.25 115.5 128.597 115.812C128.736 115.917 129.882 117.167 129.812 117.653C129.708 118.347 129.396 118.799 128.944 119.007C128.944 119.007 128.701 120.361 128.007 120.951C128.007 120.951 127.833 122.201 126.757 122.722C126.757 122.688 126.444 123.938 125.715 124.076Z" fill="#FFE3CA"/>
<path d="M111.375 39.0417C111.375 39.0417 122.347 33.4861 123.354 48.7986C124.361 64.0764 121.861 65.9514 114.083 64.6667C106.306 63.4167 104.569 53.8681 103.076 49.3542C101.583 44.875 107.694 40.1528 111.375 39.0417Z" fill="#FFE3CA"/>
<path d="M108.91 49.3889C108.736 48.0694 106.097 47.6181 105.924 49.5972C105.75 51.6111 107.208 55.0833 108.181 54.7014C109.153 54.3542 109.153 51.2292 108.91 49.3889Z" fill="#FFE3CA"/>
<path d="M105.542 56.75C105.542 56.75 104.674 52.0625 106.34 51.5069C107.972 50.9514 108.701 52.7222 108.701 52.7222L110.472 52.6181C110.472 52.6181 108.91 48.7292 110.438 47.5833C111.931 46.4722 121.896 47.0625 122.938 45.5347C123.979 44.007 128.493 38.0347 118.285 37.6875C114.361 37.5486 108.215 36.2986 105.472 40.6736C105.472 40.6736 101.757 42.2361 101.792 43.5208C101.792 46.8194 103.91 54.7014 105.542 56.75Z" fill="#0B4870"/>
<path d="M121.792 112.931L116.861 121.403C116.861 121.403 103.806 118.035 100.75 117.167L107.729 108.868C107.694 108.903 117.972 111.229 121.792 112.931Z" fill="#FFBE55"/>
<path d="M117.313 66.6805C110.889 66.0208 108.424 61.0903 108.424 61.0903C112.451 65.0833 117.278 64.9792 117.278 64.9792C117.278 65.1181 117.278 65.2222 117.278 65.3611C117.278 65.5694 117.278 65.7778 117.278 65.9514C117.278 66.1944 117.278 66.4375 117.313 66.6805Z" fill="#FCD2B1"/>
<path d="M118.667 67.0278C118.667 67.0278 119.014 67.6528 119.292 67.8611C119.292 67.8611 119.847 68.2083 120.194 68.4514C120.299 68.5208 120.403 68.625 120.472 68.6597C120.715 68.9028 121.201 69.4583 121.931 69.875C122.694 70.2569 125.472 71.368 125.472 71.368L126.826 69.1458L128.493 67.618C128.493 67.618 125.854 63.2083 125.194 62.7569C125.125 62.7222 125.056 62.6875 124.986 62.6528C124.396 62.3403 123.806 62.3403 123.493 62.2014C123.354 62.1667 122.139 61.75 121.792 61.9583C121.34 62.2361 121.132 62.6528 121.132 63C121.132 63 120.264 63.625 120.056 64.2847C120.056 64.2847 119.222 64.8055 119.257 65.743C119.292 65.8125 118.493 66.4722 118.667 67.0278Z" fill="#FFE3CA"/>
<path d="M128.736 66.4722C128.736 66.4722 139.5 82.7917 140.125 87.4792C140.75 92.1667 137.799 94.1806 135.264 92.6528C132.764 91.125 124.5 71.8195 124.5 71.8195L128.736 66.4722Z" fill="#FFBE55"/>
<path d="M160.75 19.8403C144.361 19.8403 131.097 27.5139 131.097 36.9931C131.097 40.6736 133.111 44.1111 136.549 46.8889L136.097 50.7431L139.743 49.0764C145.125 52.2014 152.556 54.1111 160.75 54.1111C177.139 54.1111 190.403 46.4375 190.403 36.9583C190.403 27.4792 177.139 19.8403 160.75 19.8403Z" fill="#0B4870"/>
<path d="M143.493 38.0694C144.375 38.0694 145.09 37.3543 145.09 36.4722C145.09 35.5901 144.375 34.875 143.493 34.875C142.611 34.875 141.896 35.5901 141.896 36.4722C141.896 37.3543 142.611 38.0694 143.493 38.0694Z" fill="white"/>
<path d="M150.403 38.0694C151.285 38.0694 152 37.3543 152 36.4722C152 35.5901 151.285 34.875 150.403 34.875C149.521 34.875 148.806 35.5901 148.806 36.4722C148.806 37.3543 149.521 38.0694 150.403 38.0694Z" fill="white"/>
<path d="M157.347 38.0694C158.229 38.0694 158.944 37.3543 158.944 36.4722C158.944 35.5901 158.229 34.875 157.347 34.875C156.465 34.875 155.75 35.5901 155.75 36.4722C155.75 37.3543 156.465 38.0694 157.347 38.0694Z" fill="white"/>
<path d="M164.292 38.0694C165.174 38.0694 165.889 37.3543 165.889 36.4722C165.889 35.5901 165.174 34.875 164.292 34.875C163.41 34.875 162.694 35.5901 162.694 36.4722C162.694 37.3543 163.41 38.0694 164.292 38.0694Z" fill="white"/>
<path d="M171.236 38.0694C172.118 38.0694 172.833 37.3543 172.833 36.4722C172.833 35.5901 172.118 34.875 171.236 34.875C170.354 34.875 169.639 35.5901 169.639 36.4722C169.639 37.3543 170.354 38.0694 171.236 38.0694Z" fill="white"/>
<path d="M178.146 38.0694C179.028 38.0694 179.743 37.3543 179.743 36.4722C179.743 35.5901 179.028 34.875 178.146 34.875C177.264 34.875 176.549 35.5901 176.549 36.4722C176.549 37.3543 177.264 38.0694 178.146 38.0694Z" fill="white"/>
<path d="M151.41 95.6042L147.938 128H193.771L197.278 95.6042H151.41Z" fill="#2A94F4"/>
<path d="M144.27 127.971H151.943V125.054H144.27V127.971Z" fill="#2A94F4"/>
<path d="M170.056 111.264C169.674 113.069 170.542 114.771 171.931 115.049C173.319 115.326 174.778 114.111 175.16 112.306C175.542 110.5 174.674 108.799 173.285 108.521C171.861 108.243 170.437 109.458 170.056 111.264Z" fill="#D3D3D3"/>
</svg>
