<svg width="512" height="512" viewBox="0 0 512 512" fill="none" xmlns="http://www.w3.org/2000/svg">
<path d="M426.667 234.667H85.3333C72.5333 234.667 64 243.2 64 256C64 268.8 72.5333 277.333 85.3333 277.333H426.667C439.467 277.333 448 268.8 448 256C448 243.2 439.467 234.667 426.667 234.667ZM85.3333 170.667H426.667C439.467 170.667 448 162.133 448 149.333C448 136.533 439.467 128 426.667 128H85.3333C72.5333 128 64 136.533 64 149.333C64 162.133 72.5333 170.667 85.3333 170.667ZM426.667 341.333H85.3333C72.5333 341.333 64 349.867 64 362.667C64 375.467 72.5333 384 85.3333 384H426.667C439.467 384 448 375.467 448 362.667C448 349.867 439.467 341.333 426.667 341.333Z" fill="white"/>
</svg>
