<svg width="226" height="219" viewBox="0 0 226 219" fill="none" xmlns="http://www.w3.org/2000/svg">
<path opacity="0.57" d="M216.916 161.961C233.491 132.296 226.815 92.8284 197.312 69.8383C181.161 57.2687 159.962 53.2308 144.103 40.1076C126.258 25.3562 108.674 7.44612 85.423 1.84515C60.7071 -4.11403 33.4838 4.71076 16.2901 23.2721C-4.681 45.8388 -2.56435 77.5885 6.81402 105.235C30.6182 175.312 124.239 230.671 192.818 187.198C203.402 180.49 211.445 171.763 216.916 161.961Z" fill="#CCE9FF"/>
<path d="M103.17 75.016C103.17 75.016 96.3319 84.4595 95.7783 101.718C95.7132 103.412 96.3644 119.726 97.3739 124.48C97.5693 125.36 99.0998 126.434 99.0998 123.406C99.0998 120.377 99.4254 105.496 99.979 101.653C100.533 97.8432 103.04 85.3387 104.929 82.3103" fill="#F2F2F2"/>
<path d="M97.3739 124.48C97.3739 124.48 98.4485 132.035 98.9044 133.24C99.3603 134.477 102.161 134.054 103.007 133.207C103.854 132.361 104.277 130.895 104.049 130.016C103.822 129.137 102.747 129.821 102.128 129.235C101.477 128.616 100.305 125.425 99.0998 124.155C99.0672 124.155 98.2857 124.839 97.3739 124.48Z" fill="#FCD2B1"/>
<path d="M100.63 125.946C99.3603 127.085 96.3644 141.576 95.4527 152.094C94.5409 162.613 94.8014 166.162 95.5829 166.52C96.397 166.878 97.4065 166.064 98.2531 166.064C99.1324 166.064 99.5883 168.604 99.8162 170.037C100.044 171.47 99.8488 173.945 101.086 174.01C102.324 174.075 103.561 174.075 104.44 175.052C105.319 176.061 106.655 176.778 108.218 176.257C109.781 175.736 110.497 174.563 111.018 173.489C111.507 172.382 109.357 157.044 109.455 152.127C109.553 147.21 111.083 146.819 110.855 144.735C110.562 142.586 108.022 119.27 100.63 125.946Z" fill="#0E538C"/>
<path d="M109.423 152.094C109.52 147.177 111.051 146.787 110.823 144.702C110.595 142.618 108.087 119.791 100.858 125.75C100.858 125.783 100.891 125.815 100.891 125.848C103.854 133.794 102.096 143.302 101.64 151.508C101.249 158.575 101.444 165.478 100.012 172.317C100.142 173.228 100.37 173.977 101.054 174.01C102.291 174.075 103.528 174.075 104.408 175.052C105.287 176.061 106.622 176.778 108.185 176.257C109.748 175.736 110.465 174.563 110.986 173.489C111.507 172.382 109.325 157.044 109.423 152.094Z" fill="#0E538C"/>
<path d="M125.77 198.889C125.77 198.889 127.854 206.411 127.919 209.7C127.951 212.989 132.282 217.678 133.552 218.394C134.822 219.111 134.79 211.621 134.073 209.374C133.357 207.127 129.677 202.503 128.831 198.889H125.77Z" fill="#181717"/>
<path d="M102.421 108.85C102.421 108.85 103.235 120.215 103.366 125.262C103.496 130.309 105.645 153.527 106.003 156.393C106.362 159.259 111.246 193.06 111.246 194.916C111.246 196.772 111.669 198.889 113.33 198.596C115.805 198.172 114.079 186.645 114.307 179.741C114.502 172.838 114.112 157.435 113.656 154.667C112.874 149.945 112.451 137.506 112.288 130.83C112.093 124.187 113.428 110.738 113.428 110.738" fill="#0B4870"/>
<path d="M118.54 105.854C120.755 112.204 121.145 117.837 120.95 124.285C120.462 140.73 123.49 155.644 124.206 157.761C125.183 160.724 127.3 175.247 127.463 184.17C127.626 193.125 129.905 199.605 128.472 200.094C127.333 200.452 126.095 200.777 125.281 197.879C124.5 195.111 118.15 169.028 116.293 159.421C115.121 153.397 111.604 135.65 108.348 123.894C108.055 122.852 105.515 120.117 104.668 118.033C104.05 116.535 102.682 110.771 102.486 109.762" fill="#0B4870"/>
<path d="M101.249 102.174C101.51 104.193 101.998 108.068 102.519 110.152C103.626 114.679 111.507 113.344 113.526 113.083C115.251 112.855 118.606 110.869 119.615 109.436C119.615 109.436 119.127 105.952 119.127 104.356C119.257 95.5963 121.015 88.7905 124.434 80.7146C125.151 79.0213 125.965 77.1652 125.476 75.4067C125.118 74.1042 124.272 73.5506 122.871 73.0296C121.601 72.5737 120.038 72.2481 118.703 72.0852C113.005 71.4014 104.538 72.1829 102.617 75.6673C99.458 81.4962 100.142 93.3494 101.249 102.174Z" fill="#F7F7F7"/>
<path d="M109.129 65.3445C109.455 67.9171 109.781 70.4896 110.074 73.0621C110.106 73.2901 110.237 75.6021 110.367 75.8301C110.693 76.3185 110.855 76.1557 111.409 76.0255C111.702 75.9603 113.2 73.0621 113.33 72.6063C113.656 71.3037 115.121 61.4043 115.284 58.8643" fill="#FFE3CA"/>
<path d="M114.177 67.4937C114.665 64.2048 115.186 60.2971 115.284 58.8318L109.129 65.3445L109.553 68.7637C111.148 68.5358 112.679 68.0799 114.177 67.4937Z" fill="#FCD2B1"/>
<path d="M100.663 46.7506C100.467 50.3001 100.467 53.8821 100.695 57.4315C100.891 60.753 101.314 64.2048 102.975 67.103C103.17 67.4286 103.366 67.7868 103.691 68.0148C103.952 68.2101 104.277 68.3078 104.603 68.4055C106.264 68.7637 108.055 68.2427 109.488 67.2984C110.92 66.354 112.06 65.0515 113.135 63.7163C114.828 61.6648 116.489 59.483 117.173 56.9105C117.401 56.129 117.498 55.3475 117.629 54.5334C117.987 52.2213 118.312 49.9093 118.345 47.5647C118.345 46.425 118.247 45.2527 117.759 44.2106C117.14 42.9732 115.968 42.094 114.633 41.6707C113.33 41.2473 111.897 41.3125 110.562 41.6055" fill="#FFE3CA"/>
<path d="M117.563 52.5144C118.15 51.5375 119.257 51.0165 120.397 50.8536C120.918 50.7885 121.471 50.7885 121.927 51.0165C122.611 51.3421 123.002 52.0911 123.002 52.84C123.002 53.589 122.611 54.3054 122.09 54.8264C121.569 55.3475 120.852 55.6405 120.103 55.8359C119.387 55.9987 118.638 56.0639 117.889 56.0964C117.466 56.0964 117.042 56.129 116.684 55.9336" fill="#FFE3CA"/>
<path d="M98.1555 47.1088C99.0673 49.3883 104.017 48.8021 106.59 47.988C109.162 47.1739 111.637 46.0016 114.275 45.3504C114.47 45.3178 114.665 45.2527 114.828 45.3178C115.089 45.4155 115.219 45.7411 115.317 46.0016C116.554 50.0396 114.796 54.5659 116.619 58.3759C118.638 53.8821 119.973 48.2811 121.308 43.136C121.536 42.2568 121.732 41.1822 121.146 40.4658C120.722 39.9773 120.071 39.782 119.517 39.4238C118.833 38.9679 118.378 38.284 117.791 37.763C115.838 36.1348 112.874 36.8187 110.53 37.763C106.752 39.2935 103.17 41.2473 99.8814 43.6245C98.7416 44.4711 97.5042 45.8388 98.1555 47.1088Z" fill="#FFBE55"/>
<path d="M102.454 56.129C101.054 56.129 99.9139 55.0218 99.9139 53.6216C99.9139 52.2213 101.021 51.0816 102.421 51.049H102.454C103.854 51.049 104.994 52.1562 104.994 53.5564C104.994 54.9567 103.854 56.0964 102.454 56.129ZM102.454 51.3421C102.454 51.3421 102.421 51.3421 102.454 51.3421C101.216 51.3421 100.207 52.3516 100.207 53.589C100.207 54.8264 101.249 55.8033 102.454 55.8033C103.04 55.8033 103.594 55.5754 104.017 55.1195C104.44 54.6962 104.668 54.1426 104.668 53.5239C104.668 52.9377 104.44 52.3841 103.984 51.9608C103.594 51.57 103.04 51.3421 102.454 51.3421Z" fill="#551905"/>
<path d="M108.153 53.4262C105.808 52.2539 104.994 53.3611 104.961 53.4262L104.701 53.2634C104.733 53.1982 105.71 51.8957 108.283 53.1982L108.153 53.4262Z" fill="#551905"/>
<path d="M110.595 56.0964C109.195 56.0964 108.055 54.9892 108.055 53.589C108.055 52.1888 109.162 51.049 110.562 51.0165H110.595C111.995 51.0165 113.135 52.1236 113.135 53.5239C113.167 54.9241 112.028 56.0639 110.595 56.0964C110.627 56.0964 110.627 56.0964 110.595 56.0964ZM110.595 51.3095C109.976 51.3095 109.423 51.5375 108.999 51.9934C108.576 52.4167 108.348 52.9703 108.348 53.589C108.348 54.8264 109.357 55.8033 110.595 55.8033C110.595 55.8033 110.595 55.8033 110.627 55.8033C111.865 55.8033 112.842 54.7939 112.842 53.5564C112.842 52.9703 112.614 52.4167 112.158 51.9934C111.735 51.5375 111.181 51.3095 110.595 51.3095Z" fill="#551905"/>
<path d="M123.458 73.2901C125.379 73.9088 126.356 76.4488 126.746 77.5234C132.706 94.9776 134.562 112.074 133.976 130.342C133.389 130.895 132.315 130.602 131.826 129.951C131.338 129.3 131.24 128.421 131.143 127.607C130.882 125.164 130.524 122.689 130.198 120.247C129.905 118.261 129.645 116.242 129.352 114.255C128.407 107.58 127.463 100.904 125.997 94.3589C125.053 90.2558 123.881 86.0877 121.536 82.5708" fill="#F2F2F2"/>
<path d="M108.511 101.751C106.915 100.546 106.231 97.5501 106.134 96.1173C106.036 94.6845 108.999 79.9331 109.976 78.4352C110.953 76.9372 111.409 77.2954 111.702 78.4352C111.995 79.5749 111.507 93.6425 111.572 96.1499C111.637 98.6898 109.097 102.207 108.511 101.751Z" fill="#FFBE55"/>
<path d="M110.92 76.3836C110.595 75.1137 110.334 73.1273 110.009 71.8573C109.976 71.7596 109.976 71.6945 109.878 71.6293C109.813 71.5642 109.683 71.5968 109.585 71.5968C108.804 71.727 107.99 71.7596 107.208 71.727C108.25 73.4203 109.488 74.9834 110.92 76.3836Z" fill="#F2F2F2"/>
<path d="M110.92 76.3836C111.474 75.016 113.07 72.8016 113.623 71.4014C113.656 71.3037 113.688 71.206 113.786 71.1734C113.884 71.1083 114.014 71.1409 114.112 71.1734C114.991 71.4014 115.87 71.5642 116.782 71.6619C115.349 73.4203 113.135 75.5044 110.92 76.3836Z" fill="#F2F2F2"/>
<path d="M109.032 75.6347C110.009 74.7555 111.897 75.1462 112.972 75.6347C113.07 75.6673 113.167 75.7324 113.2 75.8301C113.265 75.9603 113.265 76.0906 113.233 76.2208C113.102 76.8721 112.874 77.4908 112.516 78.077C112.353 78.3375 112.19 78.598 111.897 78.7608C111.637 78.8911 111.311 78.8911 110.986 78.8911C110.693 78.8911 110.432 78.8911 110.139 78.8585C110.009 78.8585 109.846 78.8585 109.748 78.7934C109.585 78.6957 109.488 78.5003 109.455 78.3049C109.26 77.6862 108.804 76.579 109.032 75.6347Z" fill="#FFBE55"/>
<path d="M111.572 197.293C111.572 197.293 109.846 199.898 106.101 201.136C102.877 202.21 96.6901 202.503 94.3129 202.601C91.9683 202.699 89.4284 205.304 89.526 205.727C89.6237 206.183 98.7416 206.411 99.5231 206.378C100.305 206.378 106.134 204.034 107.859 204.034C109.585 204.034 112.777 204.815 114.209 204.49C115.675 204.164 116.717 203.773 116.391 202.829C116.066 201.885 114.372 197.033 114.372 197.033C114.372 197.033 114.079 197.651 111.572 197.293Z" fill="#181717"/>
<path d="M131.37 129.039C131.37 129.039 131.305 132.296 129.71 132.752C128.147 133.207 128.505 136.464 128.342 137.376C128.147 138.287 128.7 138.646 129.417 138.906C130.133 139.199 130.687 139.655 131.175 139.557C131.664 139.46 131.892 138.613 132.25 138.059C132.608 137.506 132.217 136.562 131.566 137.311C130.947 138.027 130.198 138.222 130.068 137.734C129.938 137.245 130.361 136.268 130.849 136.171C131.338 136.073 133.976 130.83 133.976 130.342C133.976 129.853 134.008 129.17 134.008 129.17C134.008 129.17 132.445 129.821 131.37 129.039Z" fill="#FFE3CA"/>
<path d="M125.216 141.902C125.249 141.023 125.281 140.144 125.574 139.297C125.835 138.45 126.388 137.669 127.202 137.311C127.788 137.05 128.44 137.05 129.091 137.017C131.957 136.952 134.855 136.92 137.72 136.855C138.209 136.855 138.762 136.855 139.153 137.18C139.414 137.408 139.511 137.766 139.609 138.092C139.902 139.46 139.739 140.86 139.577 142.228C139.577 142.325 139.544 142.456 139.479 142.553C139.414 142.618 139.349 142.684 139.251 142.716C138.86 142.911 138.437 143.042 138.014 143.139C137.916 143.172 137.818 143.172 137.753 143.139C137.655 143.107 137.59 143.009 137.558 142.911C137.297 142.358 137.297 141.707 137.167 141.088C137.069 140.469 136.809 139.85 136.288 139.525C135.929 139.297 135.474 139.264 135.05 139.264C133.194 139.199 131.338 139.297 129.482 139.395C129.091 139.427 128.635 139.46 128.342 139.72C128.016 139.981 127.919 140.404 127.886 140.827C127.821 141.511 127.919 142.195 127.691 142.846C127.463 143.498 126.779 144.051 126.128 143.791C125.411 143.53 125.379 142.586 125.216 141.902Z" fill="#F2F2F2"/>
<path d="M117.433 143.27C126.616 142.651 135.799 142.228 144.982 142C145.699 141.967 146.448 141.967 147.099 142.325C147.62 142.618 148.011 143.139 148.369 143.66C151.3 148.187 151.495 154.048 151.56 159.519C151.593 161.017 151.593 162.515 151.625 164.045C151.625 165.055 151.625 166.129 151.039 166.911C150.388 167.823 149.183 168.051 148.108 168.214C141.856 169.028 135.539 169.028 129.221 169.06C125.9 169.06 122.578 169.093 119.257 169.093C118.345 169.093 117.368 169.093 116.619 168.507C115.675 167.79 115.414 166.488 115.251 165.283C114.209 157.891 114.893 150.173 117.433 143.27Z" fill="#FFBE55"/>
<path d="M151.495 158.933C143.614 161.571 135.115 162.71 126.877 161.408C123.262 160.822 119.843 159.617 118.378 156.035C116.782 152.094 117.27 147.633 117.336 143.465C114.861 150.336 114.209 157.989 115.186 165.25C115.349 166.455 115.61 167.79 116.554 168.474C117.303 169.028 118.28 169.06 119.192 169.06C122.513 169.06 125.835 169.028 129.156 169.028C135.474 168.995 141.791 168.995 148.043 168.181C149.118 168.051 150.323 167.823 150.974 166.878C151.56 166.097 151.56 165.022 151.56 164.013C151.527 162.515 151.527 161.017 151.495 159.486C151.495 159.324 151.495 159.128 151.495 158.933Z" fill="#0E538C"/>
<path d="M129.938 163.752C129.938 163.752 130.068 160.528 129.775 159.78C129.482 159.031 127.43 159.226 127.235 159.877C127.04 160.528 126.584 164.078 127.398 164.176C128.244 164.273 129.645 164.404 129.938 163.752Z" fill="#F2F2F2"/>
<path d="M141.4 159.389C141.4 159.389 141.237 162.613 141.498 163.362C141.758 164.111 143.842 163.915 144.038 163.296C144.201 162.645 144.754 159.128 143.908 158.998C143.093 158.9 141.693 158.737 141.4 159.389Z" fill="#F2F2F2"/>
<path d="M130.687 136.236C130.687 136.236 131.794 136.073 131.566 137.701C131.338 139.329 130.98 140.437 130.491 140.697C130.003 140.958 130.198 141.544 130.85 141.544C131.501 141.544 132.087 141.316 132.413 140.925C132.413 140.925 132.445 141.674 133.227 141.544C134.008 141.414 134.236 141.023 134.236 141.023C134.236 141.023 134.432 141.479 134.725 141.544C135.018 141.576 135.702 141.414 135.962 141.023C136.157 140.697 136.157 140.697 136.157 140.697C136.157 140.697 136.255 141.023 136.841 140.958C137.395 140.925 137.655 140.013 137.916 139.427C138.176 138.841 138.73 137.799 138.763 137.245C138.795 136.692 133.878 133.37 133.976 129.919L132.543 131.384L130.687 136.236Z" fill="#FFE3CA"/>
<path d="M62.1399 20.1134C56.0504 18.0293 49.7331 18.7132 44.4577 21.4485L54.8781 41.4753L33.5163 34.181C29.5109 45.9691 35.7958 58.7992 47.5838 62.8371C59.3719 66.8425 72.2021 60.5577 76.24 48.7696C80.2453 36.9815 73.9605 24.1513 62.1399 20.1134Z" fill="#FFBE55"/>
<path d="M30.3576 31.4131C32.3114 25.6818 36.3168 21.2532 41.299 18.6806L51.7195 38.7074L30.3576 31.4131Z" fill="#FFBE55"/>
<path d="M193.958 39.6517C193.828 39.6517 193.73 39.6517 193.6 39.6191C192.069 39.4238 190.995 38.0235 191.19 36.493C191.386 34.9625 192.786 33.8879 194.316 34.0833C195.847 34.2787 196.921 35.6789 196.726 37.2094C196.628 37.9584 196.238 38.6097 195.651 39.0656C195.13 39.4563 194.544 39.6517 193.958 39.6517ZM193.926 35.3533C193.177 35.3533 192.558 35.9069 192.46 36.6558C192.362 37.4699 192.916 38.2189 193.73 38.3166C194.121 38.3817 194.512 38.2515 194.837 38.0235C195.163 37.7956 195.358 37.4374 195.391 37.0466C195.489 36.2325 194.935 35.4835 194.121 35.3858C194.056 35.3858 193.991 35.3533 193.926 35.3533Z" fill="#FFBE55"/>
<path d="M177.448 55.1521C177.318 55.1521 177.22 55.1521 177.09 55.1195C176.341 55.0218 175.69 54.6311 175.234 54.0449C174.778 53.4588 174.583 52.7098 174.68 51.9934C174.778 51.2444 175.169 50.5931 175.755 50.1372C176.341 49.6814 177.09 49.486 177.806 49.5837C179.337 49.779 180.412 51.1793 180.216 52.7098C180.118 53.4588 179.728 54.11 179.142 54.5659C178.653 54.9567 178.034 55.1521 177.448 55.1521ZM177.416 50.8862C177.09 50.8862 176.764 50.9839 176.504 51.1793C176.178 51.4072 175.983 51.7654 175.95 52.1562C175.885 52.547 176.015 52.9377 176.243 53.2634C176.471 53.589 176.83 53.7844 177.22 53.817C177.611 53.8495 178.002 53.7518 178.327 53.5239C178.653 53.2959 178.849 52.9377 178.881 52.547C178.979 51.7329 178.425 50.9839 177.611 50.8862C177.546 50.8862 177.481 50.8862 177.416 50.8862Z" fill="#FFBE55"/>
<path d="M162.501 40.8891C162.371 40.8891 162.274 40.8891 162.143 40.8566C160.613 40.6612 159.538 39.2609 159.734 37.7304C159.929 36.1999 161.329 35.1253 162.86 35.3207C164.39 35.5161 165.465 36.9163 165.269 38.4468C165.074 39.8471 163.869 40.8891 162.501 40.8891ZM161.004 37.8933C160.906 38.7074 161.459 39.4563 162.274 39.554C163.088 39.6517 163.837 39.0981 163.934 38.284C164.032 37.4699 163.478 36.721 162.664 36.6233C161.85 36.5256 161.101 37.0792 161.004 37.8933Z" fill="#FFBE55"/>
<path d="M144.233 62.5115C144.103 62.5115 144.005 62.5115 143.875 62.4789C142.344 62.2835 141.27 60.8833 141.465 59.3528C141.563 58.6038 141.954 57.9526 142.54 57.4967C143.126 57.0408 143.875 56.8454 144.591 56.9431C145.34 57.0408 145.992 57.4315 146.448 58.0177C146.903 58.6038 147.099 59.3528 147.001 60.0692C146.903 60.7856 146.513 61.4694 145.926 61.9253C145.438 62.3161 144.819 62.5115 144.233 62.5115ZM142.735 59.5482C142.638 60.3623 143.191 61.1112 144.005 61.2089C144.396 61.2741 144.787 61.1438 145.112 60.9159C145.438 60.6879 145.633 60.3297 145.666 59.9389C145.699 59.5482 145.601 59.1574 145.373 58.8318C145.145 58.5061 144.787 58.3108 144.396 58.2782C144.005 58.2131 143.614 58.3433 143.289 58.5713C142.963 58.7992 142.8 59.1574 142.735 59.5482Z" fill="#FFBE55"/>
<path d="M192.55 38.2698L178.32 50.188L179.157 51.1865L193.386 39.2683L192.55 38.2698Z" fill="#FFBE55"/>
<path d="M164.516 39.0724L163.588 39.9857L175.141 51.734L176.07 50.8207L164.516 39.0724Z" fill="#FFBE55"/>
<path d="M160.074 38.6847L144.758 57.4561L145.767 58.2796L161.083 39.5081L160.074 38.6847Z" fill="#FFBE55"/>
<path d="M166.995 115.688H159.799V136.724H166.995V115.688Z" fill="#FFBE55"/>
<path d="M178.458 111.52H171.261V136.724H178.458V111.52Z" fill="#2A94F4"/>
<path d="M189.953 107.645H182.756V136.724H189.953V107.645Z" fill="#0B4870"/>
<path d="M194.642 137.408H155.24C154.882 137.408 154.589 137.115 154.589 136.757C154.589 136.399 154.882 136.106 155.24 136.106H194.023V102.695C194.023 102.337 194.316 102.044 194.675 102.044C195.033 102.044 195.326 102.337 195.326 102.695V136.757C195.293 137.115 195 137.408 194.642 137.408Z" fill="#0B4870"/>
<path d="M40.0291 149.359C39.2475 149.359 38.4986 149.099 37.8798 148.578C37.196 147.991 36.8052 147.21 36.7401 146.331C36.675 145.451 36.9355 144.605 37.5216 143.921C38.1078 143.237 38.8893 142.846 39.7685 142.781C41.5921 142.618 43.1877 143.986 43.318 145.81C43.4808 147.633 42.1131 149.229 40.2896 149.359C40.1919 149.359 40.1268 149.359 40.0291 149.359ZM40.0291 144.051C39.9639 144.051 39.9314 144.051 39.8662 144.051C38.7591 144.149 37.945 145.093 38.0427 146.2C38.1404 147.308 39.1173 148.122 40.1919 148.024C41.299 147.926 42.1131 146.982 42.0154 145.875C41.9503 144.865 41.0711 144.051 40.0291 144.051Z" fill="#0E538C"/>
<path d="M62.6283 133.566C60.935 133.566 59.4696 132.263 59.3394 130.537C59.1766 128.714 60.5442 127.118 62.3678 126.988C63.247 126.923 64.0937 127.183 64.7775 127.769C65.4614 128.355 65.8521 129.137 65.9173 130.016C65.9824 130.895 65.7219 131.742 65.1357 132.426C64.5496 133.11 63.7681 133.501 62.8888 133.566C62.7912 133.566 62.726 133.566 62.6283 133.566ZM62.6283 128.258C62.5632 128.258 62.5306 128.258 62.4655 128.258C61.3583 128.355 60.5443 129.3 60.6419 130.407C60.7396 131.514 61.684 132.328 62.7912 132.231C63.8983 132.133 64.7124 131.189 64.6147 130.081C64.5496 129.039 63.6704 128.258 62.6283 128.258Z" fill="#0E538C"/>
<path d="M27.0035 109.403C25.3102 109.403 23.8449 108.101 23.7146 106.375C23.6495 105.496 23.91 104.649 24.4961 103.965C25.0823 103.281 25.8638 102.891 26.743 102.825C27.6223 102.76 28.4689 103.021 29.1528 103.607C29.8366 104.193 30.2274 104.975 30.2925 105.854C30.4553 107.677 29.0876 109.273 27.2641 109.403C27.1664 109.403 27.1012 109.403 27.0035 109.403ZM27.0035 104.095C26.9384 104.095 26.9059 104.095 26.8407 104.095C26.3197 104.128 25.8313 104.389 25.4731 104.779C25.1148 105.203 24.952 105.691 25.0172 106.245C25.1148 107.352 26.0592 108.166 27.1664 108.068C28.2735 107.971 29.0876 107.026 28.9899 105.919C28.9248 104.91 28.0456 104.095 27.0035 104.095Z" fill="#0E538C"/>
<path d="M40.4524 143.465L39.1498 143.367L40.4849 127.313L27.7525 108.817L28.7945 108.068L41.8201 126.955L40.4524 143.465Z" fill="#0E538C"/>
<path d="M41.2299 126.46L41.1061 127.757L60.2647 129.585L60.3885 128.288L41.2299 126.46Z" fill="#0E538C"/>
<path d="M87.8328 98.3968C87.3769 98.527 87.1489 98.2991 87.0838 97.8758C86.8884 96.964 86.4 96.3778 85.3905 96.4104C84.5438 96.443 84.2182 97.0291 84.3484 97.4524C84.7066 99.2109 91.1217 98.6899 91.1868 103.802C91.2194 104.356 90.8612 107.45 87.3769 108.264V109.696C87.3769 110.152 87.1489 110.38 86.693 110.38H84.0879C83.632 110.413 83.4041 110.152 83.4041 109.696V108.166C80.799 107.417 80.2454 105.137 80.1151 103.737C80.0826 103.346 80.3105 103.086 80.6687 102.988L83.111 102.402C83.5343 102.304 83.7623 102.467 83.8274 102.923C83.9577 103.998 84.2833 104.616 85.5533 104.584C86.8559 104.551 87.1489 103.802 87.0512 103.346C86.5953 101.425 80.5059 102.337 80.4082 97.1919C80.3757 96.6383 80.4408 93.6099 83.5995 92.7307V91.2979C83.5995 90.842 83.86 90.614 84.2833 90.614H86.8884C87.3443 90.614 87.5723 90.842 87.5723 91.2979V92.7958C90.1448 93.5448 90.7309 95.694 90.8286 96.9965C90.8612 97.4199 90.6984 97.6478 90.3076 97.7455L87.8328 98.3968Z" fill="#FFBE55"/>
<path d="M64.7125 42.7127C64.2566 42.843 64.0286 42.615 63.9635 42.1917C63.7681 41.2799 63.2797 40.6937 62.2702 40.7263C61.4235 40.7589 61.0979 41.345 61.2281 41.7684C61.5863 43.5268 68.0014 43.0058 68.0665 48.1183C68.0991 48.6719 67.7409 51.7654 64.2566 52.5795V54.0123C64.2566 54.4682 64.0286 54.6962 63.5727 54.6962H60.9676C60.5117 54.7287 60.2838 54.4682 60.2838 54.0123V52.4818C57.6787 51.7329 57.1251 49.4534 56.9948 48.0532C56.9623 47.6624 57.1902 47.4019 57.5484 47.3042L59.9907 46.718C60.414 46.6204 60.642 46.7832 60.7071 47.2391C60.8374 48.3137 61.163 48.9324 62.433 48.8998C63.7356 48.8673 64.0286 48.1183 63.9309 47.6624C63.475 45.7411 57.3856 46.6529 57.2879 41.5078C57.2554 40.9543 57.3205 37.9258 60.4792 37.0466V35.6138C60.4792 35.1579 60.7397 34.93 61.163 34.93H63.7681C64.224 34.93 64.452 35.1579 64.452 35.6138V37.1117C67.0245 37.8607 67.6106 40.0099 67.7083 41.3125C67.7409 41.7358 67.5781 41.9637 67.1873 42.0614L64.7125 42.7127Z" fill="#F7F7F7"/>
<path d="M76.9239 84.4921C76.6308 84.5572 76.5005 84.4269 76.4354 84.1339C76.3051 83.5477 76.0121 83.1895 75.3608 83.1895C74.8398 83.1895 74.6118 83.5803 74.677 83.8733C74.9049 85.0131 79.0079 84.6549 79.0731 87.9438C79.0731 88.302 78.8777 90.2884 76.6308 90.8094V91.7212C76.6308 92.0143 76.468 92.1771 76.1749 92.1771H74.5141C74.2211 92.1771 74.0582 92.0143 74.0582 91.7538V90.7769C72.3649 90.2884 72.0393 88.8556 71.9416 87.9438C71.9416 87.6833 72.0718 87.5205 72.2998 87.4554L73.8629 87.0972C74.1234 87.032 74.2862 87.1297 74.3188 87.4228C74.3839 88.1066 74.6118 88.4974 75.4259 88.4974C76.2726 88.4974 76.468 87.9764 76.3703 87.6833C76.0772 86.4459 72.1695 87.032 72.1044 83.7431C72.1044 83.3849 72.137 81.4636 74.1559 80.8775V79.9657C74.1559 79.6726 74.3188 79.5098 74.6118 79.5098H76.2726C76.5657 79.5098 76.7285 79.6726 76.7285 79.9657V80.91C78.3892 81.3985 78.7474 82.7662 78.8126 83.6128C78.8451 83.8733 78.7149 84.0362 78.4543 84.1013L76.9239 84.4921Z" fill="#FFBE55"/>
<path d="M84.7392 73.746C84.5438 73.8111 84.4461 73.7134 84.4135 73.5181C84.3484 73.1273 84.1205 72.8993 83.6971 72.8993C83.3389 72.8993 83.2087 73.1599 83.2412 73.3552C83.4041 74.1042 86.1068 73.8763 86.1394 76.058C86.1394 76.286 86.0092 77.5885 84.5112 77.9467V78.5654C84.5112 78.7608 84.4135 78.8585 84.2182 78.8585H83.111C82.9156 78.8585 82.8179 78.7608 82.8179 78.5654V77.9142C81.7107 77.5885 81.4828 76.6442 81.4177 76.0255C81.4177 75.8627 81.4828 75.765 81.6456 75.6998L82.6876 75.4393C82.8505 75.4068 82.9482 75.4719 82.9807 75.6673C83.0459 76.1232 83.1761 76.3837 83.6971 76.3837C84.2507 76.3837 84.381 76.058 84.3158 75.8627C84.1205 75.0486 81.5479 75.4393 81.5154 73.2575C81.5154 73.0296 81.5479 71.7596 82.8505 71.3688V70.7501C82.8505 70.5548 82.9482 70.4571 83.1436 70.4571H84.2507C84.4461 70.4571 84.5438 70.5548 84.5438 70.7501V71.3688C85.6184 71.6945 85.8789 72.6063 85.9115 73.1599C85.944 73.3227 85.8463 73.4204 85.6835 73.4855L84.7392 73.746Z" fill="#FFBE55"/>
</svg>
