<svg width="280" height="230" viewBox="0 0 280 230" fill="none" xmlns="http://www.w3.org/2000/svg">
<path d="M276.66 229.066H3.33996C1.50298 229.066 0 227.563 0 225.726V212.644C0 210.807 1.50298 209.304 3.33996 209.304H276.66C278.497 209.304 280 210.807 280 212.644V225.726C280 227.563 278.497 229.066 276.66 229.066Z" fill="#F7F7F7"/>
<path d="M142.227 214.036C193.568 214.036 235.189 172.415 235.189 121.074C235.189 69.7319 193.568 28.1113 142.227 28.1113C90.885 28.1113 49.2644 69.7319 49.2644 121.074C49.2644 172.415 90.885 214.036 142.227 214.036Z" fill="#F3FAFF"/>
<path d="M257.455 186.732C259.431 181.694 261.435 176.099 259.571 171.034C259.125 169.809 258.429 168.501 258.847 167.249C259.404 165.551 261.63 164.966 262.354 163.352C263.189 161.571 261.881 159.511 262.215 157.59C262.549 155.642 264.469 154.362 266.334 153.666C268.199 152.97 270.231 152.525 271.734 151.245C274.6 148.74 274.266 144.258 273.626 140.473C272.986 136.716 272.513 132.262 275.268 129.618C270.203 130.592 265.026 131.594 260.628 134.266C256.231 136.938 252.724 141.67 252.974 146.819C253.113 149.408 254.115 152.163 252.946 154.445C251.666 156.922 248.243 157.897 247.38 160.541C246.378 163.575 249.356 166.358 250.525 169.336C251.638 172.147 251.109 175.292 251.36 178.27C251.61 181.276 253.169 184.672 256.147 185.117L257.455 186.732Z" fill="#FFBE55"/>
<g opacity="0.31">
<path d="M257.455 186.732C259.431 181.694 261.435 176.099 259.571 171.034C259.125 169.809 258.429 168.501 258.847 167.249C259.404 165.551 261.63 164.966 262.354 163.352C263.189 161.571 261.881 159.511 262.215 157.59C262.549 155.642 264.469 154.362 266.334 153.666C268.199 152.97 270.231 152.525 271.734 151.245C274.6 148.74 274.266 144.258 273.626 140.473C272.986 136.716 272.513 132.262 275.268 129.618C270.203 130.592 265.026 131.594 260.628 134.266C256.231 136.938 252.724 141.67 252.974 146.819C253.113 149.408 254.115 152.163 252.946 154.445C251.666 156.922 248.243 157.897 247.38 160.541C246.378 163.575 249.356 166.358 250.525 169.336C251.638 172.147 251.109 175.292 251.36 178.27C251.61 181.276 253.169 184.672 256.147 185.117L257.455 186.732Z" fill="white"/>
</g>
<path d="M255.423 180.135C255.368 165.495 258.207 134.851 275.101 129.73" stroke="white" stroke-width="0.75" stroke-miterlimit="10" stroke-linecap="round"/>
<path d="M245.682 185.507C242.676 179.885 239.559 173.622 241.034 167.415C241.396 165.912 242.008 164.298 241.368 162.879C240.505 160.986 237.805 160.569 236.72 158.787C235.523 156.839 236.748 154.223 236.08 152.024C235.412 149.769 232.99 148.572 230.736 147.988C228.481 147.431 226.032 147.209 224.083 145.873C220.382 143.34 220.159 138.024 220.382 133.543C220.604 129.062 220.549 123.773 216.958 121.073C223.026 121.519 229.233 121.992 234.744 124.525C240.254 127.058 245.042 132.123 245.431 138.191C245.626 141.225 244.819 144.592 246.517 147.125C248.354 149.853 252.501 150.521 253.893 153.499C255.479 156.922 252.39 160.569 251.416 164.215C250.525 167.638 251.555 171.256 251.666 174.791C251.777 178.326 250.414 182.529 246.99 183.475L245.682 185.507Z" fill="#FFBE55"/>
<path d="M247.157 177.491C245.209 160.318 237.694 124.831 217.181 121.185" stroke="white" stroke-width="0.75" stroke-miterlimit="10" stroke-linecap="round"/>
<path d="M264.692 218.489H238.25C236.414 218.489 234.911 216.986 234.911 215.149L232.684 177.018C232.684 175.181 234.187 173.678 236.024 173.678H266.918C268.755 173.678 270.258 175.181 270.258 177.018L268.032 215.149C268.032 216.986 266.529 218.489 264.692 218.489Z" fill="#CCE9FF"/>
<path d="M41.9852 94.8017L24.9238 97.3884L36.5224 173.89L53.5839 171.303L41.9852 94.8017Z" fill="#FFBE55"/>
<path d="M41.9793 94.809L33.4485 96.1024L45.0472 172.604L53.5779 171.31L41.9793 94.809Z" fill="#FFBE55"/>
<path d="M42 94.8827L24.9384 97.4711L28.9463 87.2008L31.2286 81.4115L35.1252 86.2823L42 94.8827Z" fill="#FFEBC2"/>
<path d="M35.1253 86.2823L28.9464 87.2008L31.2287 81.4115L35.1253 86.2823Z" fill="#0E538C"/>
<path d="M72.8859 78.8257L55.6984 77.2866L48.7975 154.353L65.985 155.892L72.8859 78.8257Z" fill="#FFBE55"/>
<path d="M72.9026 78.832L64.3088 78.0625L57.4079 155.129L66.0017 155.898L72.9026 78.832Z" fill="#FFBE55"/>
<path d="M72.8946 78.9066L55.6938 77.3757L62.0397 68.3578L65.6302 63.2644L68.2465 68.9145L72.8946 78.9066Z" fill="#FFEBC2"/>
<path d="M68.2465 68.9145L62.0397 68.3578L65.6302 63.2644L68.2465 68.9145Z" fill="#0E538C"/>
<path d="M84.1948 218.767H16.3936L7.51489 113.837H89.6222L84.1948 218.767Z" fill="#CCE9FF"/>
<path opacity="0.5" d="M48.5686 218.767H84.1948L89.6223 113.837H48.5686V218.767Z" fill="#CCE9FF"/>
<path d="M235.745 189.153H63.4592V212.839H235.745V189.153Z" fill="#FFEBC2"/>
<path d="M64.1829 189.153V212.839H244.93V214.62C244.93 216.819 243.01 218.6 240.644 218.6H64.9622C59.3678 218.6 54.831 214.425 54.831 209.248V193.411C54.831 188.235 59.3678 184.06 64.9622 184.06H240.644C243.01 184.06 244.93 185.841 244.93 188.04V189.181H64.1829V189.153Z" fill="#FFBE55"/>
<path d="M235.745 199.702H63.4592V212.811H235.745V199.702Z" fill="#FFEBC2"/>
<path d="M225.726 160.318H85.7256V180.915H225.726V160.318Z" fill="#CCE9FF"/>
<path d="M85.7257 160.318V180.914H231.014V182.473C231.014 184.394 229.455 185.924 227.563 185.924H86.338C81.8569 185.924 78.2108 182.278 78.2108 177.797V164.02C78.2108 159.539 81.8569 155.893 86.338 155.893H227.563C229.455 155.893 231.014 157.451 231.014 159.344V160.346H85.7257V160.318Z" fill="#2A94F4"/>
<path d="M146.235 90.2067C144.314 87.6739 144.147 84.1948 145.956 81.5507C147.404 79.4354 148.378 76.8191 148.266 74.8986C148.044 71.4473 145.901 68.2743 142.978 66.3817C139.137 63.8767 134.016 63.5149 129.869 65.4632C125.722 67.4115 122.716 71.5865 122.187 76.1232C121.797 79.3797 122.549 82.9423 120.879 85.7813C119.654 87.8131 117.4 89.0099 115.173 89.8171C112.918 90.5964 110.553 91.1252 108.493 92.322C106.433 93.5189 104.68 95.5785 104.708 97.9721C104.736 99.7813 105.765 101.451 105.877 103.233C106.044 105.849 104.207 108.159 102.258 109.885C100.282 111.61 98.0278 113.113 96.6918 115.368C94.493 119.097 95.5228 124.135 98.3061 127.475C101.089 130.815 105.264 132.68 109.439 133.765C120.851 136.771 132.875 134.823 144.648 134.628C148.294 134.573 152.024 134.684 155.559 133.765C159.093 132.847 162.545 130.732 164.02 127.392C165.523 124.052 164.771 119.988 162.767 116.954C160.763 113.92 157.618 111.722 154.306 110.163C151.913 109.022 149.352 108.131 147.404 106.35C145.455 104.569 144.314 101.535 145.622 99.2246C146.123 98.334 146.958 97.6381 147.431 96.7475C148.378 95.0218 147.988 92.823 146.93 91.1531C146.736 90.8747 146.513 90.5686 146.235 90.2067Z" fill="#0E538C"/>
<path d="M225.726 169.503H85.7256V180.914H225.726V169.503Z" fill="#CCE9FF"/>
<path d="M148.907 140.278L166.163 152.525L187.316 196.223H183.419L159.761 157.535C159.761 157.535 151.69 157.813 148.907 155.308C146.123 152.803 130.119 141.948 130.119 141.948L148.907 140.278Z" fill="#0B4870"/>
<path d="M118.374 136.771C115.229 145.288 117.455 157.256 128.032 157.813C138.608 158.37 141.948 157.813 141.948 157.813L162.545 199.563H167.276L151.133 152.803L131.511 141.948L118.374 136.771Z" fill="#0E538C"/>
<path d="M134.433 88.2306C137.217 91.8489 143.897 101.869 146.402 113.002C148.907 124.135 155.865 140.278 155.865 140.278H147.793L140 113.837L132.763 89.0656L134.433 88.2306Z" fill="#4EA3FB"/>
<path d="M143.006 73.4512C143.423 80.2703 140.445 84.9463 136.187 85.1689C131.928 85.3916 129.145 79.2127 130.425 73.4512C133.404 68.33 137.467 67.9125 137.467 67.9125H140.028L143.006 73.4512Z" fill="#FFE3CA"/>
<path d="M140.167 69.3877C139.388 71.7813 137.662 73.8409 135.435 75.0099C133.209 76.1789 130.537 76.4572 128.115 75.7336L134.183 67.0775H139.388L144.37 71.0298L143.618 75.5666C141.67 74.0914 140.167 69.3877 140.167 69.3877Z" fill="#0E538C"/>
<path d="M134.907 84.3618C134.016 87.8131 134.294 91.4314 134.294 91.988C133.459 93.1013 129.563 92.823 129.006 88.9264C129.841 83.9165 131.511 78.3499 131.511 78.3499L132.903 81.4115L134.907 84.3618Z" fill="#FFE3CA"/>
<path d="M129.563 85.9762C126.083 87.1173 114.394 92.4056 113.837 93.5189C114.672 96.5806 118.847 141.948 118.847 141.948H137.773C137.773 141.948 135.268 116.899 136.66 115.229C138.052 113.559 142.505 107.714 141.948 106.879C141.392 106.044 134.322 88.0915 134.322 88.0915L129.563 85.9762Z" fill="#2A94F4"/>
<path d="M113.837 93.5188C111.109 95.6063 99.6421 114.394 103.26 124.413C106.879 134.433 118.708 140.334 118.708 140.334V134.823C118.708 134.823 109.105 127.197 109.662 121.63C110.219 116.064 116.899 104.652 116.899 104.652L113.837 93.5188Z" fill="#4EA3FB"/>
<path d="M158.676 145.149H117.706C116.425 145.149 115.368 144.091 115.368 142.811L114.254 116.592C114.254 115.312 115.312 114.255 116.592 114.255H159.233C160.513 114.255 161.571 115.312 161.571 116.592L161.014 142.811C161.014 144.091 159.956 145.149 158.676 145.149Z" fill="#FFBE55"/>
<path d="M166.608 199.562C169.364 200.175 173.093 203.209 174.875 204.767C175.237 205.073 175.014 205.686 174.513 205.686C171.646 205.63 165.161 205.324 163.658 204.044C161.71 202.374 162.266 199.59 162.266 199.59H166.608V199.562Z" fill="#1A87D8"/>
<path d="M187.26 196.111C189.71 196.779 192.938 199.618 194.553 201.149C194.915 201.483 194.636 202.068 194.163 202.04C191.463 201.845 185.674 201.316 184.366 200.064C182.64 198.449 183.28 195.917 183.28 195.917L187.26 196.111Z" fill="#1A87D8"/>
<path d="M138.052 133.877C140.357 133.877 142.227 132.008 142.227 129.702C142.227 127.396 140.357 125.527 138.052 125.527C135.746 125.527 133.877 127.396 133.877 129.702C133.877 132.008 135.746 133.877 138.052 133.877Z" fill="white"/>
<path d="M101.312 188.986L96.0239 185.924L90.7356 188.986V169.503H101.312V188.986Z" fill="#FFBE55"/>
<path d="M183.308 73.6183C183.308 74.1471 183.113 74.6203 182.779 75.01C183.113 75.3718 183.308 75.8728 183.308 76.4016V78.1273C183.308 78.4891 183.197 78.8509 183.03 79.1571C183.197 79.4632 183.308 79.8251 183.308 80.1869V81.9125C183.308 83.0537 182.39 83.9722 181.248 83.9722H163.324C162.183 83.9722 161.264 83.0537 161.264 81.9125V80.1591C161.264 79.7972 161.376 79.4354 161.543 79.1292C161.376 78.8231 161.264 78.4612 161.264 78.0994V76.3738C161.264 75.8449 161.459 75.3718 161.793 74.9821C161.459 74.6203 161.264 74.1193 161.264 73.5905V71.8648C161.264 70.7237 162.183 69.8052 163.324 69.8052H181.248C182.39 69.8052 183.308 70.7237 183.308 71.8648V73.6183Z" fill="#FFBE55"/>
<path d="M197.614 34.5963C197.614 44.6441 191.769 53.3001 183.308 57.4194V66.7713C183.308 67.4671 182.724 68.0516 182.028 68.0516H162.545C161.849 68.0516 161.264 67.4671 161.264 66.7713V57.4194C152.803 53.328 146.958 44.6441 146.958 34.5963C146.958 20.5963 158.286 9.26831 172.286 9.26831C186.286 9.26831 197.614 20.6242 197.614 34.5963Z" fill="#FFBE55"/>
<path opacity="0.23" d="M180.915 75.1492H163.936" stroke="#7F7F7F" stroke-width="2" stroke-miterlimit="10" stroke-linecap="round"/>
<path opacity="0.23" d="M180.915 79.0457H163.936" stroke="#7F7F7F" stroke-width="2" stroke-miterlimit="10" stroke-linecap="round"/>
<path d="M176.628 37.7136C176.322 37.4353 175.877 37.2962 175.404 37.3518C174.819 37.4075 174.262 37.7415 173.901 38.2146C173.594 38.6321 173.427 39.1331 173.344 39.6063C173.093 39.4671 172.815 39.328 172.565 39.161L172.481 39.1053H172.119L172.036 39.161C171.757 39.328 171.507 39.4671 171.256 39.6063C171.173 39.1331 171.006 38.6321 170.7 38.2146C170.366 37.7415 169.781 37.4075 169.197 37.3518C168.724 37.2962 168.306 37.4353 167.972 37.7136C167.555 38.1033 167.416 38.66 167.555 39.2445C167.777 40.0238 168.418 40.6639 169.169 40.8031C169.642 40.8866 170.087 40.8588 170.561 40.7474C171.256 49.7932 171.535 58.9502 171.34 67.9959H172.175C172.37 58.9224 172.091 49.7375 171.396 40.6918C171.396 40.6083 171.396 40.5248 171.368 40.4413C171.702 40.3021 172.008 40.1351 172.314 39.9403C172.62 40.1073 172.926 40.3021 173.26 40.4413C173.26 40.5248 173.26 40.6083 173.233 40.6918C172.537 49.7375 172.258 58.9224 172.453 67.9959H173.288C173.093 58.9502 173.372 49.7653 174.068 40.7474C174.513 40.8588 174.986 40.9144 175.459 40.8031C176.183 40.6639 176.851 40.0238 177.074 39.2445C177.185 38.66 177.046 38.1033 176.628 37.7136ZM169.308 40.0238C168.891 39.9403 168.473 39.5228 168.334 39.0496C168.278 38.8548 168.251 38.5486 168.501 38.3538C168.64 38.2146 168.835 38.1868 168.974 38.1868C169.002 38.1868 169.03 38.1868 169.086 38.1868C169.42 38.2146 169.781 38.4095 170.004 38.7156C170.254 39.0496 170.394 39.4671 170.449 39.9403C170.06 40.0516 169.698 40.0794 169.308 40.0238ZM176.239 39.0496C176.099 39.5228 175.71 39.9403 175.264 40.0238C174.903 40.1073 174.513 40.0516 174.151 39.9403C174.235 39.4671 174.346 39.0496 174.596 38.7156C174.791 38.4373 175.153 38.2425 175.515 38.1868C175.682 38.159 175.905 38.1868 176.099 38.3538C176.294 38.5486 176.266 38.8548 176.239 39.0496Z" fill="white"/>
<path d="M165.606 13.9165C159.483 16.1431 149.463 24.2147 150.298 37.2962" stroke="white" stroke-width="4" stroke-miterlimit="10" stroke-linecap="round"/>
<path d="M132.068 59.2843C135.987 59.2843 139.165 56.1067 139.165 52.1869C139.165 48.2671 135.987 45.0895 132.068 45.0895C128.148 45.0895 124.97 48.2671 124.97 52.1869C124.97 56.1067 128.148 59.2843 132.068 59.2843Z" fill="#FFBE55"/>
<path d="M208.052 32.0079C209.819 32.0079 211.252 30.5749 211.252 28.8071C211.252 27.0394 209.819 25.6063 208.052 25.6063C206.284 25.6063 204.851 27.0394 204.851 28.8071C204.851 30.5749 206.284 32.0079 208.052 32.0079Z" fill="#FFBE55"/>
<path d="M197.614 84.334C200.535 84.334 202.903 81.9663 202.903 79.0457C202.903 76.1251 200.535 73.7574 197.614 73.7574C194.694 73.7574 192.326 76.1251 192.326 79.0457C192.326 81.9663 194.694 84.334 197.614 84.334Z" fill="#FFBE55"/>
<path d="M146.958 10.5765C149.879 10.5765 152.247 8.2089 152.247 5.28827C152.247 2.36764 149.879 0 146.958 0C144.038 0 141.67 2.36764 141.67 5.28827C141.67 8.2089 144.038 10.5765 146.958 10.5765Z" fill="#FFBE55"/>
<path opacity="0.14" d="M101.312 188.986L96.0239 185.924L90.7356 188.986V169.503H101.312V188.986Z" fill="#0C0C0C"/>
</svg>
