<svg width="293" height="257" viewBox="0 0 293 257" fill="none" xmlns="http://www.w3.org/2000/svg">
<path d="M194.792 195.374C162.999 222.492 154.197 203.218 119.365 178.217C104.792 167.757 71.9335 164.199 47.5538 149.695C-3.05722 119.585 15.952 63.7798 61.045 25.3173C106.138 -13.1451 172.633 -6.25635 209.566 40.7036C246.5 87.6635 239.885 156.912 194.792 195.374Z" fill="#F7F7F7"/>
<path d="M289.749 256.164H3.73154C2.18073 256.164 0.912231 254.843 0.912231 253.228V245.021C0.912231 243.406 2.18102 242.085 3.73154 242.085H289.749C291.3 242.085 292.568 243.406 292.568 245.021V253.228C292.568 254.843 291.3 256.164 289.749 256.164Z" fill="#F7F7F7"/>
<path d="M247.559 219.331C249.458 214.302 251.374 208.713 249.594 203.636C249.162 202.403 248.51 201.097 248.901 199.849C249.428 198.163 251.557 197.562 252.278 195.955C253.071 194.19 251.829 192.108 252.151 190.188C252.479 188.236 254.313 186.971 256.092 186.267C257.871 185.562 259.826 185.137 261.26 183.835C264.018 181.329 263.686 176.843 263.079 173.084C262.472 169.325 262.019 164.889 264.657 162.247C259.803 163.213 254.832 164.226 250.611 166.902C246.391 169.578 243.013 174.313 243.261 179.452C243.386 182.031 244.365 184.78 243.232 187.076C242.008 189.555 238.715 190.518 237.884 193.168C236.929 196.212 239.779 198.969 240.905 201.95C241.962 204.75 241.461 207.89 241.698 210.888C241.935 213.886 243.445 217.278 246.301 217.726L247.559 219.331Z" fill="#1A87D8"/>
<path d="M245.592 212.72C245.546 198.092 248.253 167.48 264.481 162.371" stroke="white" stroke-width="0.75" stroke-miterlimit="10" stroke-linecap="round"/>
<path d="M236.246 218.105C233.357 212.488 230.376 206.219 231.789 200.02C232.132 198.514 232.722 196.892 232.1 195.487C231.26 193.588 228.687 193.189 227.631 191.412C226.469 189.458 227.648 186.843 227.017 184.641C226.376 182.402 224.061 181.184 221.885 180.614C219.709 180.044 217.363 179.827 215.512 178.507C211.952 175.969 211.748 170.668 211.962 166.18C212.176 161.692 212.12 156.433 208.682 153.717C214.493 154.153 220.447 154.626 225.743 157.154C231.038 159.683 235.619 164.743 236.008 170.796C236.202 173.833 235.418 177.192 237.049 179.718C238.81 182.445 242.793 183.101 244.116 186.084C245.637 189.512 242.664 193.149 241.74 196.8C240.872 200.23 241.874 203.835 241.992 207.379C242.111 210.924 240.791 215.111 237.506 216.045L236.246 218.105Z" fill="#2A94F4"/>
<path d="M237.675 210.082C235.797 192.949 228.581 157.494 208.904 153.837" stroke="white" stroke-width="0.75" stroke-miterlimit="10" stroke-linecap="round"/>
<path d="M254.49 251.051H229.124C227.362 251.051 225.92 249.549 225.92 247.714L223.784 209.619C223.784 207.784 225.225 206.282 226.988 206.282H256.626C258.388 206.282 259.83 207.783 259.83 209.619L257.694 247.714C257.694 249.549 256.252 251.051 254.49 251.051Z" fill="#CCE9FF"/>
<path d="M31.0638 229.43C29.7691 226.003 28.4637 222.193 29.6767 218.733C29.9712 217.892 30.4154 217.003 30.1491 216.152C29.7898 215.003 28.3381 214.592 27.847 213.498C27.3068 212.294 28.1535 210.876 27.9337 209.567C27.7101 208.237 26.4602 207.374 25.2478 206.894C24.0354 206.414 22.7024 206.124 21.7252 205.236C19.8453 203.528 20.0715 200.471 20.4852 197.909C20.8989 195.347 21.208 192.323 19.41 190.522C22.7181 191.181 26.1067 191.871 28.9833 193.695C31.8598 195.519 34.1625 198.747 33.993 202.25C33.9081 204.007 33.2403 205.881 34.0128 207.446C34.8469 209.135 37.0917 209.792 37.6581 211.598C38.3088 213.673 36.366 215.553 35.5991 217.584C34.8786 219.492 35.2199 221.633 35.0583 223.676C34.8966 225.72 33.8677 228.032 31.9206 228.337L31.0638 229.43Z" fill="#1A87D8"/>
<path d="M32.4044 224.924C32.4364 214.954 30.5908 194.089 19.5295 190.606" stroke="white" stroke-width="0.75" stroke-miterlimit="10" stroke-linecap="round"/>
<path d="M38.7751 228.595C40.744 224.767 42.776 220.493 41.8131 216.268C41.579 215.242 41.1769 214.136 41.6008 213.178C42.1733 211.884 43.9273 211.612 44.6472 210.401C45.4386 209.069 44.635 207.286 45.0653 205.786C45.5029 204.26 47.0804 203.429 48.5635 203.041C50.0466 202.652 51.6453 202.504 52.9072 201.605C55.334 199.874 55.4732 196.262 55.3273 193.203C55.1813 190.143 55.2191 186.559 57.5625 184.708C53.6023 185.005 49.5433 185.327 45.934 187.051C42.3248 188.774 39.2022 192.224 38.9377 196.349C38.8048 198.419 39.3392 200.709 38.2277 202.43C37.0278 204.289 34.3125 204.736 33.4107 206.769C32.3745 209.106 34.4006 211.585 35.0304 214.074C35.6218 216.411 34.9394 218.868 34.8586 221.284C34.7777 223.7 35.6773 226.554 37.9166 227.191L38.7751 228.595Z" fill="#2A94F4"/>
<path d="M37.8008 223.127C39.081 211.448 43.9994 187.283 57.411 184.79" stroke="white" stroke-width="0.75" stroke-miterlimit="10" stroke-linecap="round"/>
<path d="M26.3395 251.051H43.629C44.8301 251.051 45.8131 250.027 45.8131 248.776L47.2691 222.811C47.2691 221.56 46.2864 220.536 45.085 220.536H24.8835C23.6825 220.536 22.6995 221.56 22.6995 222.811L24.1555 248.776C24.1558 250.027 25.1385 251.051 26.3395 251.051Z" fill="#CCE9FF"/>
<path d="M254.008 12.3914V140.179C254.008 142.998 251.795 145.305 249.088 145.305H54.0826C51.3758 145.305 49.1604 142.998 49.1604 140.179V12.3914C49.1604 9.57257 51.3758 7.26843 54.0826 7.26843H249.088C251.795 7.26843 254.008 9.57257 254.008 12.3914Z" stroke="#CCE9FF" stroke-width="2" stroke-miterlimit="10"/>
<path d="M260.404 5.7303V133.518C260.404 135.056 259.744 136.442 258.706 137.381C258.552 137.526 258.386 137.657 258.215 137.778C257.432 138.326 256.49 138.644 255.485 138.644H60.4789C59.4729 138.644 58.5309 138.326 57.7488 137.778C56.4289 136.854 55.5566 135.286 55.5566 133.518V5.7303C55.5566 2.91144 57.7721 0.6073 60.4789 0.6073H255.485C258.191 0.6073 260.404 2.91144 260.404 5.7303Z" fill="#F3FAFF"/>
<path d="M154.384 111.264C175.533 111.264 192.679 93.4085 192.679 71.3832C192.679 49.3579 175.533 31.5028 154.384 31.5028C133.234 31.5028 116.089 49.3579 116.089 71.3832C116.089 93.4085 133.234 111.264 154.384 111.264Z" fill="#CCE9FF"/>
<path d="M157.748 114.767C178.897 114.767 196.043 96.9116 196.043 74.8862C196.043 52.8609 178.897 35.0059 157.748 35.0059C136.598 35.0059 119.453 52.8609 119.453 74.8862C119.453 96.9116 136.598 114.767 157.748 114.767Z" stroke="#CCE9FF" stroke-miterlimit="10"/>
<path d="M131.059 93.9398L131.729 92.1235C131.729 92.1235 134.717 89.8911 134.993 88.9779C134.758 88.8002 133.199 89.4935 132.793 89.5613C133.16 88.6082 134.061 86.5387 134.69 85.6607C134.873 85.4054 134.716 85.0385 134.41 85.0276C133.581 84.9982 132.16 85.3909 131.161 85.7137C129.561 87.4979 129.374 90.3477 129.91 91.1255C129.463 92.3608 128.738 93.7303 128.738 93.7303L131.059 93.9398Z" fill="#FFE3CA"/>
<path d="M129.318 91.907L131.644 93.7236L126.265 107.197L123.785 102.642L129.318 91.907Z" fill="#FFBE55"/>
<path d="M148.079 91.8292L144.461 95.0056C144.735 94.7652 144.978 94.4972 145.185 94.2042L148.803 91.0277C148.596 91.3208 148.353 91.5888 148.079 91.8292Z" fill="#FCAD00"/>
<path d="M155.573 79.4822L159.191 76.306L148.803 91.0277L145.185 94.2038L155.573 79.4822Z" fill="#FFEBC2"/>
<g opacity="0.55">
<path d="M140.752 42.6853C140.542 42.6623 140.331 42.6477 140.118 42.6423L139.676 42.632C137.905 42.5881 136.446 43.1358 135.442 44.0178L131.824 47.1942C132.828 46.3122 134.287 45.7645 136.058 45.8084L136.5 45.8187C136.713 45.8242 136.924 45.8387 137.134 45.8617C139.025 46.0685 140.812 46.9711 141.973 48.3351L154.177 62.6368L157.795 59.4604L145.591 45.1587C144.43 43.7943 142.643 42.8921 140.752 42.6853Z" fill="#FFBE55"/>
<path d="M182.695 86.106L166.422 67.9729L178.422 51.7056C180.799 48.4825 177.79 44.0035 173.151 43.4961C172.931 43.4718 172.707 43.4567 172.474 43.4503C170.808 43.4086 169.285 43.9254 168.223 44.858L164.605 48.0344C165.667 47.1019 167.19 46.5853 168.856 46.6268C169.089 46.6331 169.313 46.6483 169.533 46.6725C174.171 47.1803 177.181 51.6593 174.804 54.882L162.804 71.1494L179.077 89.2827C181.116 91.5557 180.793 94.2786 178.96 95.8881L182.578 92.7117C184.411 91.1018 184.734 88.3789 182.695 86.106Z" fill="#FFBE55"/>
</g>
<path d="M169.533 46.6719C174.171 47.1797 177.181 51.6587 174.803 54.8815L162.803 71.1488L179.077 89.2819C182.233 92.8004 179.729 97.3969 174.725 97.2731L174.266 97.261C174.053 97.2555 173.84 97.2413 173.629 97.218C171.756 97.013 169.984 96.1237 168.82 94.7812L155.573 79.4818L145.185 94.2035C144.176 95.6335 142.308 96.4628 140.212 96.4108C139.985 96.405 139.761 96.3899 139.541 96.3659C134.901 95.8579 131.891 91.3771 134.273 88.1522L147.028 70.8999L131.705 53.7945C128.553 50.2765 131.056 45.6843 136.059 45.8081L136.501 45.8184C136.713 45.8239 136.925 45.8384 137.135 45.8614C139.025 46.0682 140.812 46.9708 141.974 48.3348L154.178 62.6365L163.876 48.8416C164.886 47.4071 166.758 46.5738 168.856 46.6262C169.089 46.6329 169.313 46.648 169.533 46.6719Z" fill="#FFBE55"/>
<path d="M109.256 160.638C106.931 166.39 89.1954 217.257 94.7194 239.057C100.825 239.057 101.406 239.057 101.406 239.057C101.406 239.057 119.723 178.804 119.723 177.593C119.723 184.254 122.049 233.304 123.794 239.057C127.282 239.663 132.225 239.057 132.225 239.057C132.225 239.057 134.842 171.538 133.097 160.335C123.794 159.124 109.256 160.638 109.256 160.638Z" fill="#FFBE55"/>
<path d="M132.641 161.205L108.806 162.546C107.981 162.593 107.586 161.508 108.232 160.973C108.58 160.685 108.785 160.254 108.816 159.793C108.855 159.208 109.042 158.755 109.658 158.72L132.446 157.438C133.206 157.395 133.167 157.942 133.185 158.693C133.189 158.857 133.255 159.013 133.369 159.126C133.784 159.538 133.896 160.215 133.567 160.704C133.371 160.995 133.064 161.182 132.641 161.205Z" fill="#FFBE55"/>
<path opacity="0.09" d="M132.641 161.205L108.806 162.546C107.981 162.593 107.586 161.508 108.232 160.973C108.58 160.685 108.785 160.254 108.816 159.793C108.855 159.208 109.042 158.755 109.658 158.72L132.446 157.438C133.206 157.395 133.167 157.942 133.185 158.693C133.189 158.857 133.255 159.013 133.369 159.126C133.784 159.538 133.896 160.215 133.567 160.704C133.371 160.995 133.064 161.182 132.641 161.205Z" fill="#070707"/>
<path d="M128.684 117.296L143.855 93.7236L146.762 95.5403L129.463 128.694C129.463 128.694 131.486 138.365 131.934 141.865C132.254 144.365 133.631 146.59 134.805 148.589C136.207 150.98 136.152 154.004 134.657 156.332C133.708 157.81 132.807 159.124 132.807 159.124C129.608 159.426 111.873 161.849 108.384 159.124C104.895 156.399 107.512 153.371 107.512 153.371C107.512 153.371 111.668 146.223 111.334 140.865C111.001 135.507 110.129 120.974 110.129 120.974L128.684 117.296Z" fill="#FFBE55"/>
<path d="M144.357 94.0372L145.308 92.5125C145.308 92.5125 144.145 88.8791 144.436 87.9708C144.727 87.9708 145.599 89.4847 145.89 89.7875C146.129 88.791 146.565 86.5647 146.55 85.4695C146.546 85.151 146.88 84.9497 147.133 85.1277C147.822 85.6106 148.751 86.7963 149.379 87.668C149.669 90.0902 148.216 92.5125 147.344 92.8152C146.471 94.0263 146.355 95.2859 146.355 95.2859L144.357 94.0372Z" fill="#FFE3CA"/>
<path d="M95.58 239.057L95.5916 241.782H99.662V239.057H95.58Z" fill="#FFE3CA"/>
<path d="M125.526 239.057L125.538 241.782H129.608V239.057H125.526Z" fill="#FFE3CA"/>
<path d="M131.353 248.14C131.353 248.386 130.827 248.607 130.042 248.773C127.905 249.221 123.849 249.245 123.212 248.14C122.814 247.45 123.261 245.888 123.866 244.398C124.584 242.624 125.526 240.946 125.526 240.946H129.608C130.481 242.993 131.353 247.232 131.353 248.14Z" fill="#0E538C"/>
<path d="M101.988 248.14C101.988 248.422 101.203 248.667 100.095 248.828C97.6356 249.182 93.5768 249.112 92.975 248.068C92.5999 247.417 92.975 246 93.5245 244.595C94.2513 242.727 95.2893 240.874 95.2893 240.874H99.3713C100.244 242.92 101.988 247.232 101.988 248.14Z" fill="#0E538C"/>
<path d="M100.095 248.828C97.6356 249.182 93.5768 249.112 92.975 248.068C92.5999 247.417 92.975 246 93.5245 244.595C94.1438 244.247 94.8474 244.053 95.5917 244.053C98.0571 244.053 100.063 246.184 100.095 248.828Z" fill="#1469A3"/>
<path d="M130.042 248.773C127.905 249.221 123.849 249.245 123.212 248.14C122.814 247.45 123.261 245.888 123.866 244.398C124.384 244.174 124.948 244.053 125.538 244.053C127.989 244.053 129.98 246.154 130.042 248.773Z" fill="#1469A3"/>
<path d="M127.137 107.349C127.137 110.793 126.743 113.218 124.084 113.218C121.425 113.218 117.979 110.67 117.979 107.226C117.979 103.782 120.134 100.99 122.793 100.99C125.452 100.99 127.137 103.904 127.137 107.349Z" fill="#FFE3CA"/>
<path d="M123.212 103.412C126.41 102.807 131.062 97.3569 126.701 95.2375C122.34 93.1181 114.199 92.5125 110.71 98.2653C107.221 104.018 111.582 108.56 112.164 111.587C112.745 114.615 110.274 116.886 106.785 119.914C103.296 122.942 98.2083 134.901 106.931 139.14C115.653 143.379 129.608 140.049 130.481 126.424C131.353 112.799 119.723 110.982 119.723 109.771C119.723 108.56 123.212 103.412 123.212 103.412Z" fill="#0E538C"/>
<path d="M121.482 107.98C122.3 107.736 122.71 106.618 122.398 105.483C122.086 104.348 121.17 103.625 120.353 103.868C119.535 104.112 119.125 105.23 119.437 106.365C119.749 107.5 120.664 108.223 121.482 107.98Z" fill="#FFE3CA"/>
<path d="M260.404 5.7303V12.125H55.5566V5.7303C55.5566 2.91144 57.7721 0.6073 60.4789 0.6073H255.485C258.191 0.6073 260.404 2.91144 260.404 5.7303Z" fill="#FFBE55"/>
<path d="M127.584 27.4341H65.3436C64.1504 27.4341 63.1741 26.4173 63.1741 25.1747V23.7704C63.1741 22.5278 64.1504 21.5111 65.3436 21.5111H127.584C128.778 21.5111 129.754 22.5278 129.754 23.7704V25.1747C129.754 26.4173 128.777 27.4341 127.584 27.4341Z" fill="#FFBE55"/>
<path d="M110.16 36.9528H65.0322C64.0102 36.9528 63.1741 36.082 63.1741 35.0177V32.9652C63.1741 31.9009 64.0102 31.0302 65.0322 31.0302H110.16C111.182 31.0302 112.019 31.9009 112.019 32.9652V35.0177C112.019 36.082 111.182 36.9528 110.16 36.9528Z" fill="#FFBE55"/>
<path d="M115.011 46.3388H65.1241C64.0515 46.3388 63.1741 45.4251 63.1741 44.3081V42.4466C63.1741 41.3297 64.0515 40.4159 65.1241 40.4159H115.011C116.084 40.4159 116.961 41.3297 116.961 42.4466V44.3081C116.961 45.4251 116.084 46.3388 115.011 46.3388Z" fill="#FFBE55"/>
<path d="M252.737 133.236H220.756C218.837 133.236 217.267 131.601 217.267 129.603V100.839C217.267 98.8406 218.837 97.2056 220.756 97.2056H252.737C254.656 97.2056 256.226 98.8406 256.226 100.839V129.603C256.226 131.601 254.656 133.236 252.737 133.236Z" fill="#FFBE55"/>
<path opacity="0.2" d="M127.584 27.4341H65.3436C64.1504 27.4341 63.1741 26.4173 63.1741 25.1747V23.7704C63.1741 22.5278 64.1504 21.5111 65.3436 21.5111H127.584C128.778 21.5111 129.754 22.5278 129.754 23.7704V25.1747C129.754 26.4173 128.777 27.4341 127.584 27.4341Z" fill="white"/>
<path opacity="0.2" d="M110.16 36.9528H65.0322C64.0102 36.9528 63.1741 36.082 63.1741 35.0177V32.9652C63.1741 31.9009 64.0102 31.0302 65.0322 31.0302H110.16C111.182 31.0302 112.019 31.9009 112.019 32.9652V35.0177C112.019 36.082 111.182 36.9528 110.16 36.9528Z" fill="white"/>
<path opacity="0.2" d="M115.011 46.3388H65.1241C64.0515 46.3388 63.1741 45.4251 63.1741 44.3081V42.4466C63.1741 41.3297 64.0515 40.4159 65.1241 40.4159H115.011C116.084 40.4159 116.961 41.3297 116.961 42.4466V44.3081C116.961 45.4251 116.084 46.3388 115.011 46.3388Z" fill="white"/>
<path opacity="0.2" d="M252.737 133.236H220.756C218.837 133.236 217.267 131.601 217.267 129.603V100.839C217.267 98.8406 218.837 97.2056 220.756 97.2056H252.737C254.656 97.2056 256.226 98.8406 256.226 100.839V129.603C256.226 131.601 254.656 133.236 252.737 133.236Z" fill="white"/>
</svg>
