<svg width="205" height="201" viewBox="0 0 205 201" fill="none" xmlns="http://www.w3.org/2000/svg">
<path d="M204.621 18.5573H98.7812V200.972H204.621V18.5573Z" fill="#D3D3D3"/>
<path d="M190.949 9.30371H79.7383V200.953H190.949V9.30371Z" fill="#F2F2F2"/>
<path d="M177.102 0.644653H60.8516V200.972H177.102V0.644653Z" fill="#FFBE55"/>
<path opacity="0.33" d="M177.102 0.644653H60.8516V200.972H177.102V0.644653Z" fill="white"/>
<path d="M159.797 107.922H78.1367V25.0763H159.797V107.922ZM83.7422 102.255H154.191V30.7631H83.7422V102.255Z" fill="white"/>
<path d="M74.875 62.8037C78.1758 67.5791 81.4765 72.3544 84.7773 77.1496C90.0117 84.7387 95.2461 92.308 100.5 99.897C101.73 101.661 102.941 103.424 104.172 105.207C104.836 106.159 107.531 109.329 108.703 107.347C112.199 101.324 115.891 95.4189 119.621 89.5537C127.922 76.5155 136.613 63.7152 145.891 51.3705C151.535 43.8607 157.414 36.5293 163.703 29.5743C166.242 26.7606 159.367 17.4278 157.687 19.2706C146.34 31.8133 136.203 45.4261 126.594 59.3559C119.289 69.937 112.297 80.7361 105.617 91.7333C105.109 92.5655 104.602 93.3978 104.094 94.23C103.332 95.4981 103.625 96.2115 102.258 94.23C100.324 91.4361 98.3906 88.6422 96.457 85.8285C91.2226 78.2394 85.9883 70.6702 80.7343 63.0811C79.5039 61.3176 78.2929 59.5541 77.0625 57.7707C76.4375 56.8593 73.5859 53.57 72.5312 55.6307C71.5156 57.7113 73.8203 61.278 74.875 62.8037Z" fill="#0B4870"/>
<path d="M159.797 133.107H78.1367V139.229H159.797V133.107Z" fill="white"/>
<path d="M159.797 146.541H78.1367V152.664H159.797V146.541Z" fill="white"/>
<path d="M133.313 161.422H78.1367V167.545H133.313V161.422Z" fill="white"/>
<path d="M36.3203 50.6968C36.3203 50.6968 40.5781 41.5028 38.625 37.3218C36.6719 33.1409 33.4297 32.2096 29.6211 32.9031C25.8125 33.5966 24.4844 31.5359 23.918 32.1105C23.3516 32.6852 22.9219 34.6072 23.4102 34.6072C23.918 34.6072 21.7891 36.1924 22.1211 37.3218C22.4531 38.4513 19.4844 49.9439 27.5703 51.3111C35.6563 52.6783 36.3203 50.6968 36.3203 50.6968Z" fill="#0B4870"/>
<path d="M13.3906 195.563H18.625L19.2695 189.44H14.0547L13.3906 195.563Z" fill="#FCD2B1"/>
<path d="M13.3906 193.225C13.3906 193.225 8.70312 197.089 5.30468 196.732C1.90625 196.395 1.71094 199.348 1.65234 200.873H12.4922C12.4922 200.873 14.6797 198.773 16.0859 200.873H19.2891V198.436V193.225C19.2695 193.225 16.2812 194.592 13.3906 193.225Z" fill="#0B4870"/>
<path d="M45.0312 195.563H39.8164L39.1523 189.44H44.3867L45.0312 195.563Z" fill="#FCD2B1"/>
<path d="M15.1875 106.634L12.6094 190.391H20.4414C20.4414 190.391 23.3516 131.997 29.0352 128.589C35.3242 124.824 38.6055 190.391 38.6055 190.391H45.2461C45.2461 190.391 43.5273 109.25 42.8633 106.634C42.6484 105.663 19.5625 96.1322 15.1875 106.634Z" fill="#0E538C"/>
<path d="M19.0937 58.9596C19.0937 58.9596 26.7109 51.8263 38.625 57.6518C41.5351 59.0785 42.9023 104.375 42.9023 106.654C42.9023 106.654 33.0976 112.559 15.207 106.654C15.1875 106.634 18.3515 59.4748 19.0937 58.9596Z" fill="#FFBE55"/>
<path d="M47.3555 68.2726C47.3555 68.2726 58.7227 80.5379 61.2422 79.9237C65.1484 78.9726 76.8281 75.7626 76.8281 75.7626L78.0976 78.18C78.0976 78.18 65.9492 86.3041 60.7539 86.7994C55.5586 87.2948 42.8633 73.1272 42.8633 73.1272L47.3555 68.2726Z" fill="#FCD2B1"/>
<path d="M15.9101 72.5922C15.9101 72.5922 7.16014 82.8761 7.04296 85.8285C6.92577 88.7809 14.3281 100.729 14.3281 100.729L12.6289 103.84C12.6289 103.84 2.02343 92.0305 0.304676 87.7505C-1.41407 83.4705 11.1641 68.1933 11.1641 68.1933L15.9101 72.5922Z" fill="#FCD2B1"/>
<path d="M16.457 74.6727L9.79688 67.5989C9.79688 67.5989 18.3906 56.5026 24.0937 56.7403C28.4687 56.9187 25.2852 69.2633 16.457 74.6727Z" fill="#FFBE55"/>
<path d="M41.5742 74.4548L48.3125 67.4601C48.3125 67.4601 42.4531 57.1763 36.75 57.3546C32.3945 57.4735 32.8242 68.9264 41.5742 74.4548Z" fill="#FFBE55"/>
<path d="M25.1289 46.8329V57.0772C25.1289 59.0983 26.75 60.7429 28.7422 60.7429C30.7344 60.7429 32.3555 59.0983 32.3555 57.0772V46.2385L25.1289 46.8329Z" fill="#FCD2B1"/>
<path d="M37.2187 37.3218C37.2187 37.3218 41.2422 50.6968 35.6562 52.6585C30.0703 54.6202 25.5195 50.5383 25.4414 47.5265C25.4414 47.5265 21.4765 44.5741 24.6211 42.3152C25.6562 41.5622 26.6328 43.0681 26.6328 44.1976C26.6328 45.327 27.375 44.4948 27.375 43.9796C27.375 43.4644 27.375 38.907 27.375 38.907C27.375 38.907 36.1055 42.6718 37.2187 37.3218Z" fill="#FFE3CA"/>
<path d="M45.0508 193.225C45.0508 193.225 49.7383 197.089 53.1367 196.732C56.5352 196.395 56.7305 199.348 56.7891 200.873H45.9492C45.9492 200.873 43.7617 198.773 42.3555 200.873H39.1523V198.436V193.225C39.1523 193.225 42.1406 194.592 45.0508 193.225Z" fill="#0B4870"/>
<path d="M14.3086 100.729C14.3086 100.729 16.6524 102.334 15.8906 105.306C15.1289 108.298 12.9805 111.152 10.8906 111.013C10.168 110.954 9.54297 110.736 8.9961 110.458C7.80469 109.864 7.23828 108.417 7.82422 107.209C8 106.832 8.23438 106.654 8.52735 107.03C9.32813 108.081 12.8242 105.861 12.6094 103.82C12.3945 101.799 10.5586 98.1533 14.3086 100.729Z" fill="#FCD2B1"/>
<path d="M78.0976 47.249H62.3359V185.616H78.0976V47.249Z" fill="#FFBE55"/>
<path d="M62.3359 47.249L70.207 31.0405L78.0781 47.249C78.0781 47.249 75.0312 48.8342 70.207 48.8342C65.3828 48.8342 62.3359 47.249 62.3359 47.249Z" fill="#FCD2B1"/>
<path d="M66.9258 37.7974L70.207 31.0405L73.4883 37.7974H66.9258Z" fill="#0B4870"/>
<path d="M75.4023 200.953H65.0312C63.5469 200.953 62.3359 199.724 62.3359 198.218V185.299H78.0781V198.218C78.0781 199.724 76.8867 200.953 75.4023 200.953Z" fill="#EC4561"/>
<path d="M78.0976 179.553H62.3359V189.302H78.0976V179.553Z" fill="#D3D3D3"/>
<path d="M78.0781 71.1061C78.0781 71.1061 80.207 78.6555 76.8476 78.5565C73.5078 78.4376 71.9453 73.6027 78.0781 71.1061Z" fill="#FFE3CA"/>
</svg>
