<svg width="259" height="259" viewBox="0 0 259 259" fill="none" xmlns="http://www.w3.org/2000/svg">
<g clip-path="url(#clip0_19_1163)">
<path d="M7.71107 185.05C32.5125 242.198 108.258 255.277 159.244 242.421C169.254 239.897 240.358 220.672 255.9 153.247C266.811 105.915 245.153 57.3348 208.508 31.647C157.217 -4.30634 90.3947 14.2778 51.986 46.6133C17.228 75.8751 -14.638 133.554 7.71107 185.05Z" fill="#C2E5FF"/>
<path d="M111.191 67.1552C110.914 67.1552 110.64 67.1688 110.365 67.1761C107.186 53.731 95.1143 43.7233 80.6979 43.7233C70.7182 43.7233 61.8593 48.5182 56.2965 55.9291C51.7823 54.104 46.8496 53.0967 41.6813 53.0967C20.1329 53.0967 2.66467 70.5649 2.66467 92.1133C2.66467 113.662 20.1329 131.13 41.6813 131.13C47.2012 131.13 52.4522 129.981 57.2116 127.914C62.073 133.206 69.0492 136.526 76.8021 136.526C85.7378 136.526 93.6384 132.114 98.4612 125.356C102.336 127.139 106.645 128.141 111.191 128.141C128.031 128.141 141.683 114.489 141.683 97.6482C141.683 80.8075 128.031 67.1552 111.191 67.1552Z" fill="white"/>
<path d="M175.379 113.901C175.597 113.901 175.814 113.89 176.031 113.884C178.544 124.51 188.083 132.419 199.477 132.419C207.363 132.419 214.365 128.629 218.761 122.772C222.328 124.215 226.227 125.011 230.311 125.011C247.341 125.011 261.146 111.206 261.146 94.1765C261.146 77.147 247.34 63.3421 230.311 63.3421C225.949 63.3421 221.799 64.2499 218.038 65.884C214.196 61.7014 208.683 59.0781 202.556 59.0781C195.494 59.0781 189.25 62.5643 185.439 67.9057C182.376 66.4963 178.971 65.7046 175.379 65.7046C162.07 65.7046 151.281 76.4937 151.281 89.8026C151.281 103.112 162.07 113.901 175.379 113.901Z" fill="white"/>
<path d="M11.0716 234.533C11.0716 234.533 60.4871 108.595 85.8812 101.809C108.52 95.7592 169.36 185.288 169.36 185.288C169.36 185.288 195.238 146.15 213.116 130.029C217.412 126.155 224.119 126.878 227.511 131.564C238.701 147.024 264.263 184.815 285.534 234.533H11.0716Z" fill="#FFBE55"/>
<path opacity="0.25" d="M11.0716 234.533C11.0716 234.533 60.4871 108.595 85.8812 101.809C108.52 95.7592 169.36 185.288 169.36 185.288C169.36 185.288 195.238 146.15 213.116 130.029C217.412 126.155 224.119 126.878 227.511 131.564C238.701 147.024 264.263 184.815 285.534 234.533H11.0716Z" fill="#282828"/>
<path d="M66.912 189.558L48.3875 249.556H70.5712L66.912 189.558Z" fill="#FFBE55"/>
<path d="M273.52 249.556C259.237 238.398 247.064 229.266 238.043 222.606C205.583 198.638 160.092 166.908 124.819 164.297C119.944 163.936 115.913 164.179 115.036 164.236C106.083 164.814 84.8374 166.185 71.8211 182.042C50.6034 207.89 69.7565 247.838 70.5714 249.555H273.52V249.556Z" fill="#FFBE55"/>
<path opacity="0.5" d="M273.52 249.556C259.237 238.398 247.064 229.266 238.043 222.606C205.583 198.638 160.092 166.908 124.819 164.297C119.944 163.936 115.913 164.179 115.036 164.236C106.083 164.814 84.8374 166.185 71.8211 182.042C50.6034 207.89 69.7565 247.838 70.5714 249.555H273.52V249.556Z" fill="white"/>
<path opacity="0.5" d="M93.4282 202.876L138.016 249.556H163.888L105.581 202.876H93.4282Z" fill="#0B4870"/>
<path opacity="0.5" d="M127.1 202.876L188.179 249.556H214.051L139.253 202.876H127.1Z" fill="#0B4870"/>
<path opacity="0.5" d="M138.016 176.895L216.379 234.533C216.379 234.533 237.239 229.533 253.992 234.533L141.305 176.895H138.016Z" fill="#0B4870"/>
<path d="M138.016 176.895V61.2815H141.305V176.895C141.276 176.938 140.623 177.851 139.517 177.772C138.586 177.705 138.079 176.987 138.016 176.895Z" fill="#0B4870"/>
<path d="M119.23 104.637C119.649 104.05 120.271 103.116 120.897 101.9C122.061 99.6363 123.855 96.1491 122.448 94.0147C122.229 93.6823 121.811 93.1982 120.966 92.8147C120.905 93.0042 120.811 93.2971 120.695 93.6539C118.947 99.0169 118.278 100.194 118.469 102.08C118.531 102.694 118.704 103.585 119.23 104.637Z" fill="#0B4870"/>
<path d="M118.923 102.256C117.795 106.299 112.352 106.5 112.352 106.5Z" fill="#EFB68F"/>
<path d="M112.968 108.365C112.968 108.365 106.278 110.649 104.898 111.527C104.898 111.527 114.02 121.145 127.357 111.19C126.295 110.534 126.106 110.508 124.666 109.879C122.809 109.067 120.187 107.973 118.713 107.621L112.968 108.365Z" fill="#EFB68F"/>
<path d="M112.679 106.475L113.103 109.249L118.923 109.019L119.843 101.809H118.448L112.679 106.475Z" fill="#EFB68F"/>
<path d="M121.31 100.129C121.079 100.846 120.553 101.448 119.843 101.809C117.825 102.811 117.357 100.249 118.228 99.0836C119.264 97.6945 121.926 98.2032 121.31 100.129Z" fill="#EFB68F"/>
<path d="M111.848 108.881C111.848 108.881 115.397 113.289 120.7 108.256C121.577 108.328 122.521 108.818 123.678 109.143C125.202 109.572 126.436 110.158 127.357 110.684L126.656 142.635H106.838L104.708 111.637C105.512 111.19 106.454 110.436 107.532 110.026C109.141 109.414 110.619 109.074 111.848 108.881Z" fill="#FFBE55"/>
<path d="M127.902 152.804C126.454 154.943 124.985 155.616 124.064 155.865C123.779 155.942 122.872 155.965 121.058 156.043C119.661 156.104 118.207 156.136 116.677 156.132C115.793 156.13 114.924 156.116 114.073 156.092C111.378 156.016 110.03 155.992 109.506 155.857C108.54 155.609 106.844 154.864 105.213 152.123C105.737 148.961 106.262 145.798 106.786 142.635H126.643C127.062 146.024 127.482 149.414 127.902 152.804Z" fill="#0B4870"/>
<path d="M132.556 199.312L130.984 189.558L127.1 190.086L128.664 199.829L132.556 199.312Z" fill="#FFBE55"/>
<path d="M128.047 199.015L127.357 202.074H139.509V201.984C139.509 201.28 139.104 200.638 138.468 200.335L132.828 198.085C132.625 197.988 132.365 197.992 132.21 198.155C131.481 198.925 130.681 200.178 128.456 198.818C128.294 198.72 128.083 198.829 128.047 199.015Z" fill="#0B4870"/>
<path d="M139.509 202.073H127.357V202.876H139.509V202.073Z" fill="#FFBE55"/>
<path d="M122.024 171.823L129.93 170.778L127.754 151.492C127.45 148.795 124.991 146.873 122.3 147.229C121.547 147.483 120.24 148.035 118.986 149.222C117.576 150.557 116.947 152.021 116.678 152.789C118.459 159.134 120.241 165.478 122.024 171.823Z" fill="#0B4870"/>
<path d="M126.264 195.492L132.917 194.613L129.217 164.15C128.928 161.783 126.764 160.107 124.401 160.42C122.003 160.737 120.343 162.973 120.733 165.36L126.264 195.492Z" fill="#0B4870"/>
<path d="M100.651 199.312L102.223 189.558L106.107 190.086L104.543 199.829L100.651 199.312Z" fill="#FFBE55"/>
<path d="M111.008 171.823L103.277 170.778L105.278 151.492C105.583 148.795 108.041 146.873 110.732 147.229C110.882 147.249 111.411 147.326 112.052 147.609C112.052 147.609 113.273 148.155 114.046 149.222C114.902 150.403 114.934 151.851 114.848 153.006C114.64 155.819 113.302 162.745 111.008 171.823Z" fill="#0B4870"/>
<path d="M106.943 195.492L100.29 194.613L103.99 164.15C104.279 161.783 106.443 160.107 108.806 160.42C111.204 160.737 112.864 162.973 112.474 165.36L106.943 195.492Z" fill="#0B4870"/>
<path d="M125.42 140.855C125.966 140.673 126.275 140.793 126.275 140.793C126.586 140.356 127.161 140.301 127.535 140.672L127.799 140.934C128.145 141.277 128.19 141.862 127.903 142.266L127.886 142.29C127.886 142.29 127.377 143.66 126.225 144.896C124.735 146.493 123.376 146.461 122.968 145.908C122.582 145.384 124.251 143.403 124.862 142.659L123.917 142.963C123.798 143.002 123.669 142.949 123.6 142.833C123.526 142.708 123.54 142.542 123.634 142.434L124.375 141.582C124.665 141.249 125.021 140.988 125.42 140.855Z" fill="#EFB68F"/>
<path d="M126.7 140.47L134.423 127.448C135.099 126.327 136.504 126.129 137.408 127.028C138.224 127.84 138.304 129.234 137.588 130.157L128.084 141.785L126.7 140.47Z" fill="#EFB68F"/>
<path d="M128.999 112.815C130.925 115.414 133.543 118.14 137.373 125.299C137.779 126.058 138.524 127.494 138.142 128.92C137.965 129.582 137.599 130.04 137.317 130.323C136.924 130.265 136.305 130.118 135.634 129.698C134.778 129.162 134.267 128.452 134.017 128.051C130.545 123.864 127.074 119.678 123.602 115.491C122.644 114.245 122.784 112.367 123.907 111.388C124.952 110.478 128.126 111.637 128.999 112.815Z" fill="#EFB68F"/>
<path d="M121.327 108.666C122.619 108.825 124.179 109.171 125.836 109.902C130.882 112.128 133.34 116.394 134.209 118.118C132.682 120.053 131.155 121.988 129.628 123.923C128.891 123.287 127.842 122.328 126.685 121.064C124.781 118.984 123.128 117.179 122.137 114.487C121.707 113.317 121.164 111.337 121.327 108.666Z" fill="#FFBE55"/>
<path d="M107.861 140.855C107.317 140.673 107.01 140.793 107.01 140.793C106.701 140.356 106.129 140.301 105.758 140.672L105.495 140.934C105.152 141.277 105.106 141.862 105.392 142.266L105.408 142.29C105.408 142.29 105.915 143.66 107.061 144.896C108.541 146.493 109.893 146.461 110.299 145.908C110.682 145.384 109.023 143.403 108.415 142.659L109.354 142.963C109.473 143.002 109.601 142.949 109.67 142.833C109.743 142.708 109.729 142.542 109.636 142.434L108.899 141.582C108.611 141.249 108.257 140.988 107.861 140.855Z" fill="#EFB68F"/>
<path d="M106.588 140.47L98.9095 127.448C98.238 126.327 96.8405 126.129 95.9422 127.028C95.1309 127.84 95.0508 129.234 95.7626 130.157L105.212 141.785L106.588 140.47Z" fill="#EFB68F"/>
<path d="M104.302 112.815C102.387 115.414 99.7847 118.14 95.9763 125.299C95.5729 126.058 94.832 127.494 95.2114 128.92C95.3875 129.582 95.7514 130.04 96.032 130.323C96.4229 130.265 97.0376 130.118 97.7047 129.698C98.5558 129.162 99.0643 128.452 99.3127 128.051C102.764 123.864 106.216 119.678 109.667 115.491C110.62 114.245 110.481 112.367 109.364 111.388C108.325 110.478 105.17 111.637 104.302 112.815Z" fill="#EFB68F"/>
<path d="M111.938 108.666C110.655 108.822 109.091 109.166 107.429 109.902C102.513 112.08 100.099 116.204 99.2356 117.89C100.789 120.098 102.342 122.305 103.895 124.512C104.541 123.918 105.474 123.012 106.502 121.821C108.17 119.888 110.056 117.702 111.128 114.488C111.537 113.262 112.031 111.275 111.938 108.666Z" fill="#FFBE55"/>
<path d="M104.891 199.015L105.581 202.074H93.4283V201.984C93.4283 201.28 93.8335 200.638 94.4695 200.335L100.11 198.085C100.313 197.988 100.573 197.992 100.728 198.155C101.457 198.925 102.257 200.178 104.482 198.818C104.644 198.72 104.855 198.829 104.891 199.015Z" fill="#0B4870"/>
<path d="M93.4281 202.876L105.581 202.876L105.581 202.074L93.4281 202.074L93.4281 202.876Z" fill="#FFBE55"/>
<path d="M112.679 106.475C112.902 106.799 113.229 107.14 113.689 107.263C115.131 107.65 116.777 105.591 117.438 104.763C118.14 103.885 118.607 103.007 118.924 102.256C118.608 102.766 118.194 103.326 112.679 106.475Z" fill="#E0A882"/>
<path d="M119.77 92.8113C117.592 90.1466 112.747 89.6673 110.341 91.7677C109.25 92.7209 108.955 93.9483 108.52 95.7594C108.387 96.313 107.452 100.461 109.519 104.281C110.32 105.76 111.015 106.164 111.5 106.333C112.478 106.675 113.411 106.329 114.272 106.03C116.017 105.424 117.085 104.321 117.476 103.909C119.344 101.935 122.633 96.3162 119.77 92.8113Z" fill="#EFB68F"/>
<path d="M116.841 94.3724C116.841 94.3724 120.055 95.6212 118.588 99.7285L119.681 99.8768C119.681 99.8768 119.916 98.2507 121.344 98.495C121.344 98.495 122.5 92.7832 119.587 91.3943L116.841 94.3724Z" fill="#0B4870"/>
<path d="M116.841 94.3724C116.841 94.3724 113.079 91.8292 109.971 93.3675C109.632 93.2857 108.852 93.0453 108.276 92.327C107.509 91.3708 107.418 89.9597 108.026 88.7096C108.026 88.7096 108.606 88.9395 109.364 89.1177C110.432 89.3694 111.276 89.2546 111.758 89.2159C112.805 89.1322 114.756 88.9761 116.132 89.2692C117.039 89.4622 118.267 89.9716 119.587 91.3943C120.392 92.1483 120.455 93.4076 119.759 94.2146C119.031 95.0592 117.698 95.1481 116.841 94.3724Z" fill="#0B4870"/>
<path d="M109.971 93.3676C109.971 93.3676 108.931 94.7247 108.323 97.6113C108.323 97.6113 108.596 93.1044 109.622 92.8767C110.648 92.649 109.971 93.3676 109.971 93.3676Z" fill="#0B4870"/>
<path d="M195.619 88.6479C191.75 87.9329 185.833 87.2152 178.747 87.9611C168.553 89.034 164.524 92.2314 155.841 92.553C151.453 92.7155 145.06 92.174 137.148 88.6479C137.148 77.6395 137.148 66.6312 137.148 55.623C142.439 58.4658 149.307 60.9347 157.093 60.2732C163.777 59.7051 166.771 57.2004 174.529 55.623C179.776 54.5562 186.827 53.9898 195.619 55.623C195.619 66.6312 195.619 77.6395 195.619 88.6479Z" fill="#FFBE55"/>
<path d="M166.823 64.0312L169.928 70.3237L176.872 71.3327L171.847 76.2306L173.034 83.1465L166.823 79.8812L160.612 83.1465L161.798 76.2306L156.773 71.3327L163.717 70.3237L166.823 64.0312Z" fill="white"/>
</g>
<defs>
<clipPath id="clip0_19_1163">
<rect width="259" height="259" fill="white"/>
</clipPath>
</defs>
</svg>
