<svg width="236" height="246" viewBox="0 0 236 246" fill="none" xmlns="http://www.w3.org/2000/svg">
<path opacity="0.11" d="M127.8 243.545C181.789 243.545 225.557 237.585 225.557 230.233C225.557 222.881 181.789 216.921 127.8 216.921C73.8098 216.921 30.0424 222.881 30.0424 230.233C30.0424 237.585 73.8098 243.545 127.8 243.545Z" fill="#2A94F4"/>
<path opacity="0.11" d="M231.803 155.344C232.97 184.028 204.897 248.748 122.926 244.878C45.6897 241.231 -30.7392 179.731 12.5673 82.669C54.4166 -11.1271 129.716 -3.33806 156.26 4.09018C185.61 12.3035 269.456 45.5755 221.489 100.952C144.525 189.805 229.422 96.8614 231.803 155.344Z" fill="#2A94F4"/>
<path d="M90.2688 64.1601L73.1626 47.7058L43.2463 78.8262L60.351 95.2788C67.1127 82.2411 77.5396 71.4131 90.2688 64.1601Z" fill="#FFBE55"/>
<path d="M51.8598 130.208C51.8598 122.708 52.9518 115.465 54.9759 108.621H31.2484V151.795H54.9759C52.9518 144.952 51.8598 137.708 51.8598 130.208Z" fill="#FFBE55"/>
<path d="M127.8 54.2462C135.297 54.2462 142.539 55.3384 149.38 57.3632V33.6287H106.219V57.3632C113.06 55.3384 120.302 54.2462 127.8 54.2462Z" fill="#FFBE55"/>
<path d="M195.248 95.2788L212.353 78.8262L182.436 47.7058L165.33 64.1601C178.06 71.4131 188.486 82.2411 195.248 95.2788Z" fill="#FFBE55"/>
<path d="M200.623 108.621C202.647 115.465 203.739 122.708 203.739 130.208C203.739 137.708 202.647 144.952 200.623 151.795H224.351V108.621H200.623Z" fill="#FFBE55"/>
<path d="M165.33 196.257L182.436 212.711L212.353 181.591L195.248 165.138C188.486 178.176 178.06 189.004 165.33 196.257Z" fill="#FFBE55"/>
<path d="M60.351 165.138L43.2463 181.591L73.1628 212.711L90.2691 196.257C77.5396 189.004 67.1127 178.176 60.351 165.138Z" fill="#FFBE55"/>
<path d="M127.8 206.171C120.302 206.171 113.06 205.079 106.219 203.054V226.788H149.38V203.054C142.539 205.079 135.297 206.171 127.8 206.171Z" fill="#FFBE55"/>
<path d="M210.245 128.302C209.249 82.7626 172.058 46.1453 126.293 46.1453C116.656 46.1453 107.408 47.79 98.787 50.778C92.5185 52.9509 86.6024 55.8647 81.1112 59.3845C75.1908 63.1799 69.7672 67.6824 64.9828 72.7965C59.7771 78.3608 55.3068 84.622 51.7554 91.4426C45.721 103.032 42.2934 116.196 42.2934 130.17C42.2934 132.814 42.4259 135.426 42.664 138.008C45.9596 173.627 71.4729 202.804 105.219 211.526C111.954 213.266 119.014 214.194 126.293 214.194C172.684 214.194 210.293 176.575 210.293 130.17C210.293 129.544 210.259 128.925 210.245 128.302ZM126.293 184.877C121.541 184.877 116.932 184.269 112.537 183.13C90.1459 177.328 73.3569 157.686 71.7592 133.88C71.6766 132.651 71.6013 131.419 71.6013 130.17C71.6013 120.868 73.9403 112.121 78.0352 104.454C80.5992 99.6538 83.8735 95.2984 87.6898 91.485C90.3874 88.7897 93.3731 86.3885 96.5793 84.2973C100.461 81.7649 104.672 79.6954 109.16 78.2156C114.55 76.4373 120.307 75.4616 126.293 75.4616C155.872 75.4616 179.951 98.9538 180.937 128.302C180.958 128.923 180.984 129.544 180.984 130.17C180.984 160.384 156.498 184.877 126.293 184.877Z" fill="#FFBE55"/>
<path fill-rule="evenodd" clip-rule="evenodd" d="M85.75 168.5C85.75 168.5 82.9419 170.597 81.5056 171.669C81.0111 172.038 80.3372 172.056 79.823 171.715C79.2498 171.333 78.859 170.732 78.7433 170.053C78.6279 169.374 78.7976 168.677 79.2124 168.128C80.3602 166.607 81.7055 164.825 81.7055 164.825L85.75 168.5Z" fill="#FCD2B1"/>
<path fill-rule="evenodd" clip-rule="evenodd" d="M135.25 150.592C137.343 152.133 141.099 153.726 142.465 155.476C151.237 166.715 141.978 175.349 129.343 166.718C109.036 152.844 111.211 147.658 85.5726 170.246L79.7643 165.697C98.5937 134.392 105.917 129.009 135.25 150.592Z" fill="#0E538C"/>
<path fill-rule="evenodd" clip-rule="evenodd" d="M111.473 203.41C111.473 203.41 110.375 207.477 109.813 209.557C109.629 210.242 108.966 210.686 108.263 210.596C107.799 210.537 107.378 210.296 107.093 209.926C106.807 209.557 106.68 209.089 106.739 208.626C107.071 206.032 107.655 201.465 107.655 201.465L111.473 203.41Z" fill="#FCD2B1"/>
<path fill-rule="evenodd" clip-rule="evenodd" d="M111.227 208.94C111.217 208.651 105.584 208.16 105.518 208.382C105.499 208.409 105.49 208.441 105.481 208.473C104.577 211.515 101.616 213.466 98.4647 213.094C98.2834 213.072 98.0997 213.085 97.9232 213.132C95.9744 213.653 94.8915 214.759 94.6951 216.465C100.199 217.192 105.789 217.059 111.472 215.999L111.227 208.94Z" fill="#0B4870"/>
<path fill-rule="evenodd" clip-rule="evenodd" d="M82.6926 171.805C82.8267 171.548 78.1693 168.34 78.0026 168.501C77.9722 168.515 77.9488 168.538 77.9252 168.561C75.6386 170.761 72.1008 170.997 69.5431 169.118C69.3961 169.011 69.2299 168.931 69.0534 168.884C67.1013 168.375 65.614 168.802 64.6013 170.19C69.03 173.538 73.9576 176.182 79.4241 178.065L82.6926 171.805Z" fill="#0B4870"/>
<path d="M74.0109 173.309C74.0109 173.309 74.0337 173.318 74.0109 173.309V173.309Z" fill="#0B4870"/>
<path fill-rule="evenodd" clip-rule="evenodd" d="M142.957 162.346C145.554 162.448 149.557 161.663 151.669 162.346C165.231 166.736 160.637 183.083 145.337 183.017C120.746 182.911 120.453 179.072 112.319 204.897L106.36 204.329C104.415 167.846 106.572 160.916 142.957 162.346Z" fill="#0E538C"/>
<path fill-rule="evenodd" clip-rule="evenodd" d="M146.519 148.778C146.519 148.778 150.33 151.363 152.04 149.529C153.75 147.694 152.565 153.296 152.565 153.296L150.621 155.344L147.101 151.969L143.537 148.168L146.519 148.778Z" fill="#FCD2B1"/>
<path fill-rule="evenodd" clip-rule="evenodd" d="M166.304 131.225C163.829 128.44 159.374 123.55 159.374 123.55C159.374 123.55 151.695 126.028 152.565 130.823C153.434 135.619 153.938 139.528 153.938 139.528L163.788 136.819C163.788 136.819 168.779 134.01 166.304 131.225Z" fill="#FCD2B1"/>
<path fill-rule="evenodd" clip-rule="evenodd" d="M152.543 130.823C152.543 130.823 155.115 155.829 145.901 157.758L145.337 162.346C145.337 162.346 153.829 160.116 155.686 156.329C157.543 152.543 159.792 133.562 159.792 133.562C156.34 133.822 153.831 133.015 152.543 130.823Z" fill="#0B4870"/>
<path fill-rule="evenodd" clip-rule="evenodd" d="M143.361 109.898C139.985 112.342 138.7 116.724 139.68 121.029C139.855 121.795 140.652 125.429 141.619 126.826C146.504 133.88 154.69 132.031 157.761 129.809C162.498 126.381 163.117 119.137 159.144 113.643C155.17 108.148 148.098 106.471 143.361 109.898Z" fill="#FFE3CA"/>
<path fill-rule="evenodd" clip-rule="evenodd" d="M132.896 116.187C133.314 124.98 146.82 116.398 147.308 114.394C147.236 117.19 148.586 119.361 151.233 120.962C151.233 120.962 150.657 123.787 153.152 125.067C155.647 126.347 159.63 129.209 161.761 126.773C163.217 125.11 163.579 121.539 163.9 118.568C165.28 105.754 154.364 107.366 151.988 106.262C151.988 106.262 132.177 101.043 132.896 116.187Z" fill="#0B4870"/>
<path fill-rule="evenodd" clip-rule="evenodd" d="M150.935 121.437C150.935 119.852 152.219 118.568 153.803 118.568C155.387 118.568 156.671 119.852 156.671 121.437C156.671 121.529 156.671 121.622 156.671 121.715C156.671 123.452 155.263 124.861 153.526 124.861C152.19 124.861 150.935 124.861 150.935 124.861V121.437Z" fill="#FFE3CA"/>
<path d="M138.768 120.306C138.768 120.306 138.768 120.283 138.768 120.306V120.306Z" fill="#602600"/>
<path d="M161.34 109.812C161.327 109.752 161.34 109.812 161.34 109.812V109.812Z" fill="#602600"/>
<path d="M126.683 136.275L148.538 153.717L149.202 152.875L127.656 135.854C127.287 135.728 126.904 135.994 126.683 136.275Z" fill="#D3D3D3"/>
<path fill-rule="evenodd" clip-rule="evenodd" d="M127.273 136.275L148.87 153.296L145.343 162.237L123.746 145.216L127.273 136.275Z" fill="#F7F7F7"/>
<path d="M144.838 162.151C144.655 163.024 144.934 163.287 145.857 162.701L149.54 153.296C149.378 152.798 148.988 152.733 148.37 153.101L144.838 162.151Z" fill="#D3D3D3"/>
<path d="M123.139 145.018C123.032 145.345 123.061 145.416 123.302 145.635L144.892 162.933L145.562 162.095L124.282 145.047L127.422 136.275H126.683L123.139 145.018Z" fill="#D3D3D3"/>
<path fill-rule="evenodd" clip-rule="evenodd" d="M147.558 161.404C151.576 162.998 153.692 171.466 154.695 181.114C192.834 170.487 180.136 139.032 164.448 129.152C163.784 132.349 161.551 133.077 157.841 133.562C157.735 144.011 157.113 149.947 147.558 161.404Z" fill="#0B4870"/>
<path fill-rule="evenodd" clip-rule="evenodd" d="M150.779 162.793C149.598 162.311 148.569 161.979 147.8 161.761C146.949 161.539 146.241 160.948 145.873 160.149C145.15 158.567 143.973 157.205 142.313 156.074C142 155.862 141.742 155.579 141.56 155.249C141.274 154.737 140.881 154.026 140.881 154.026C140.594 153.515 140.217 153.291 139.822 153.296C139.486 153.294 139.178 153.48 139.023 153.777C138.867 154.074 138.891 154.433 139.084 154.708C139.591 155.478 140.441 156.685 141 157.479C141.054 157.555 141.052 157.658 140.995 157.732C140.939 157.807 140.841 157.836 140.752 157.805C140.437 157.689 140.098 157.677 139.745 157.75C139.081 157.881 138.393 157.692 137.891 157.238C137.202 156.622 136.403 156.039 135.477 155.49C134.817 155.098 134.206 155.878 134.248 156.702L139.316 160.556C143.36 161.001 146.517 163.178 149.498 165.697C149.497 165.697 153.363 163.847 150.779 162.793Z" fill="#FCD2B1"/>
<path fill-rule="evenodd" clip-rule="evenodd" d="M159.457 162.702C156.242 163.712 152.468 163.381 150.87 162.847C149.792 162.486 148.085 164.787 149.275 165.479C151.905 167.007 157.016 169.5 161.383 170.807C162.153 168.052 160.614 165.028 159.457 162.702Z" fill="#FCD2B1"/>
<path fill-rule="evenodd" clip-rule="evenodd" d="M161.037 170.7C169.432 173.136 186.04 167.821 175.262 139.913C174.722 138.515 170.948 134.165 165.921 135.967C163.928 136.681 159.657 139.942 162.372 145.749C168.323 158.478 163.211 161.537 158.507 163.015C160.59 165.283 161.806 167.949 161.037 170.7Z" fill="#0E538C"/>
<path d="M141.698 146.436C141.124 146.443 140.494 146.578 140.329 147.103C140.143 147.693 140.728 148.323 141.396 148.201C142.757 147.97 144.131 148.856 145.427 149.747C145.427 149.747 146.561 150.083 146.763 149.231C146.948 148.452 145.838 147.886 144.886 147.376C143.894 146.845 142.827 146.421 141.698 146.436Z" fill="#FCD2B1"/>
</svg>
