<svg width="229" height="202" viewBox="0 0 229 202" fill="none" xmlns="http://www.w3.org/2000/svg">
<g clip-path="url(#clip0_19_1131)">
<path opacity="0.18" d="M127.691 20.0817C115.107 27.4748 100.872 31.4674 86.8544 35.5683C72.8368 39.6692 58.6565 43.9867 46.4114 51.928C34.1663 59.8692 23.9038 71.9926 21.5179 86.3763C20.6401 91.6817 20.84 97.1733 19.3149 102.333C16.3494 112.386 7.42567 119.566 3.04685 129.08C-3.04351 142.243 0.572745 158.321 8.91012 170.194C19.8402 185.739 37.891 195.202 56.4908 199.198C75.0906 203.195 94.375 202.244 113.321 200.511C134.493 198.549 155.899 195.537 175.427 187.112C194.956 178.687 212.64 164.236 220.947 144.689C226.407 131.831 230.156 117.421 227.854 103.656C209.946 -3.49176 135.669 15.3988 127.691 20.0817Z" fill="#68E1FD"/>
<path d="M85.6344 49.864C85.3107 49.848 84.9875 49.9044 84.6885 50.0291C84.3894 50.1538 84.122 50.3436 83.9059 50.5847C83.6402 50.9505 83.4722 51.3779 83.4178 51.8265C83.1974 53.1654 83.336 54.5387 83.8193 55.8069C84.3027 57.0751 85.1136 58.193 86.1699 59.047C86.8714 59.5985 87.7492 60.0384 88.6304 59.8862C88.7313 59.8775 88.8266 59.8359 88.9015 59.7677C88.9774 59.6643 89.0123 59.5366 88.9998 59.4091C89.071 57.0406 89.1286 54.6179 88.2169 52.4457C87.5797 50.9332 87.5323 49.8877 85.6344 49.864Z" fill="url(#paint0_linear_19_1131)"/>
<path d="M140.532 49.864C140.856 49.848 141.18 49.9044 141.48 50.0291C141.779 50.1537 142.047 50.3436 142.264 50.5847C142.527 50.9518 142.693 51.3787 142.749 51.8265C142.97 53.1651 142.832 54.5384 142.349 55.8066C141.867 57.0749 141.056 58.1929 140 59.047C139.299 59.5986 138.417 60.0384 137.536 59.8862C137.435 59.8768 137.34 59.8353 137.265 59.7677C137.191 59.6636 137.156 59.5365 137.167 59.4091C137.096 57.0406 137.041 54.6179 137.953 52.4457C138.587 50.9332 138.634 49.8877 140.532 49.864Z" fill="url(#paint1_linear_19_1131)"/>
<path d="M215.813 166.868H14.7531C8.62485 166.868 3.65692 171.828 3.65692 177.946V190.827C3.65692 196.945 8.62485 201.905 14.7531 201.905H215.813C221.941 201.905 226.909 196.945 226.909 190.827V177.946C226.909 171.828 221.941 166.868 215.813 166.868Z" fill="#68E1FD"/>
<path d="M215.813 166.868H14.7531C8.62485 166.868 3.65692 171.828 3.65692 177.946V190.827C3.65692 196.945 8.62485 201.905 14.7531 201.905H215.813C221.941 201.905 226.909 196.945 226.909 190.827V177.946C226.909 171.828 221.941 166.868 215.813 166.868Z" fill="url(#paint2_linear_19_1131)"/>
<path d="M89.4777 72.6693C89.4777 72.6693 63.381 71.1433 51.973 85.0498C40.5651 98.9564 46.5131 164.507 46.5131 164.507L167.073 167.247L171.98 93.0858C172.465 77.4435 153.662 72.5982 133.832 72.6625H132.795C97.8896 73.0178 89.4777 72.6693 89.4777 72.6693Z" fill="#68E1FD"/>
<path d="M89.4777 72.6693C89.4777 72.6693 63.381 71.1433 51.973 85.0498C40.5651 98.9564 46.5131 164.507 46.5131 164.507L167.073 167.247L171.98 93.0858C172.465 77.4435 153.662 72.5982 133.832 72.6625H132.795C97.8896 73.0178 89.4777 72.6693 89.4777 72.6693Z" fill="url(#paint3_linear_19_1131)"/>
<path d="M68.5326 75.7686C68.5326 75.7686 47.0587 75.7686 26.5406 129.151L52.861 141.075L66.133 124.57L68.5326 75.7686Z" fill="#FFBE55"/>
<path d="M156.346 75.7686C156.346 75.7686 177.82 75.7686 198.338 129.151L172.018 141.075L158.746 124.57L156.346 75.7686Z" fill="#FFBE55"/>
<path opacity="0.24" d="M39.2569 130.315C38.6784 130.05 38.1595 129.67 37.7309 129.2C37.3024 128.73 36.973 128.179 36.7624 127.579C36.5517 126.979 36.4642 126.343 36.505 125.709C36.5457 125.074 36.714 124.455 36.9997 123.887C42.3952 113.157 58.9175 88.0205 70.1323 86.5385C84.1804 84.6742 100.194 82.7218 100.194 82.7218C100.194 82.7218 148.856 81.8353 156.939 87.4589C163.267 91.8575 177.613 110.63 185.429 121.048C187.235 123.46 186.561 127.886 183.822 129.168L164.504 144.804C163.871 145.099 163.31 145.528 162.86 146.063L149.897 161.532C149.425 162.095 148.829 162.541 148.156 162.834C147.482 163.128 146.75 163.261 146.016 163.224L77.9376 159.871C77 159.826 76.0967 159.505 75.342 158.948C74.5873 158.391 74.0151 157.623 73.6977 156.741L65.6314 134.389C65.3252 133.529 64.7766 132.776 64.0518 132.22C63.3269 131.664 62.4566 131.329 61.5455 131.255C60.6344 131.181 59.7213 131.371 58.916 131.803C58.1107 132.235 57.4474 132.89 57.006 133.689V133.689C56.423 134.738 55.4632 135.527 54.3202 135.897C53.1773 136.266 51.9363 136.19 50.8478 135.682L39.2569 130.315Z" fill="white"/>
<path d="M217.904 160.192H16.8442C10.716 160.192 5.74805 165.152 5.74805 171.27V184.152C5.74805 190.27 10.716 195.229 16.8442 195.229H217.904C224.032 195.229 229 190.27 229 184.152V171.27C229 165.152 224.032 160.192 217.904 160.192Z" fill="#68E1FD"/>
<path opacity="0.18" d="M22.5279 172.844C23.3718 173.372 24.3682 173.395 25.3206 173.412L42.9036 173.663C41.7188 174.305 40.6142 175.086 39.6127 175.987C35.7152 179.486 38.0571 185.935 43.2968 186.114C83.1027 187.468 122.942 186.997 162.759 186.527C168.974 186.453 175.214 186.378 181.399 185.745C182.29 185.657 183.141 185.336 183.868 184.813C184.594 184.291 185.17 183.587 185.536 182.771C185.902 181.956 186.046 181.058 185.954 180.17C185.861 179.281 185.535 178.432 185.008 177.709V177.709C184.883 177.389 184.833 177.044 184.863 176.701C184.892 176.359 185 176.027 185.179 175.733C185.357 175.439 185.6 175.189 185.891 175.004C186.181 174.819 186.51 174.702 186.852 174.664C193.353 173.91 200.07 174.15 206.509 173.05C207.78 172.834 209.265 172.434 209.78 171.02C210.119 170.144 209.926 169.125 209.648 168.229C208.343 164.057 204.95 161.197 201.361 159.918C197.772 158.639 193.956 158.707 190.211 158.782L43.0324 161.735C37.9487 161.837 29.7638 160.044 24.9952 162.213C22.0093 163.576 18.2846 170.194 22.5279 172.844Z" fill="#1D2741"/>
<path d="M53.8744 178.356L48.6042 163.766C48.6042 163.766 46.4487 161.282 52.1968 160.179C57.9448 159.076 169.164 160.179 169.164 160.179L171.753 178.342L53.8744 178.356Z" fill="url(#paint4_linear_19_1131)"/>
<path d="M171.753 178.356V179.858C171.753 181.059 171.276 182.21 170.425 183.059C169.575 183.908 168.421 184.385 167.219 184.385H58.426C57.2234 184.385 56.0699 183.908 55.2195 183.059C54.3691 182.21 53.8913 181.059 53.8913 179.858V178.356C53.8895 177.76 54.0056 177.171 54.2328 176.62C54.46 176.07 54.7939 175.57 55.2153 175.149C55.6367 174.728 56.1373 174.394 56.6883 174.167C57.2393 173.94 57.8299 173.824 58.426 173.825H167.219C167.815 173.824 168.405 173.94 168.956 174.167C169.507 174.394 170.008 174.728 170.429 175.149C170.851 175.57 171.185 176.07 171.412 176.62C171.639 177.171 171.755 177.76 171.753 178.356Z" fill="url(#paint5_linear_19_1131)"/>
<path d="M171.564 177.046C171.281 177.977 170.706 178.792 169.923 179.371C169.141 179.951 168.193 180.264 167.219 180.264H58.426C57.4519 180.264 56.5037 179.951 55.7213 179.371C54.9389 178.792 54.3639 177.977 54.0811 177.046C54.3633 176.115 54.9381 175.299 55.7205 174.719C56.5029 174.139 57.4515 173.825 58.426 173.825H167.219C168.193 173.825 169.142 174.139 169.924 174.719C170.707 175.299 171.281 176.115 171.564 177.046V177.046Z" fill="#68E1FD"/>
<path d="M53.8744 178.356L48.6042 163.766C48.6042 163.766 46.4487 161.282 52.1968 160.179C57.9448 159.076 169.164 160.179 169.164 160.179L171.753 178.342L53.8744 178.356Z" fill="url(#paint6_linear_19_1131)"/>
<path d="M171.564 177.046C171.281 177.977 170.706 178.792 169.923 179.371C169.141 179.951 168.193 180.264 167.219 180.264H58.426C57.4519 180.264 56.5037 179.951 55.7213 179.371C54.9389 178.792 54.3639 177.977 54.0811 177.046C54.3633 176.115 54.9381 175.299 55.7205 174.719C56.5029 174.139 57.4515 173.825 58.426 173.825L169.181 171.991C171.214 171.991 170.998 175.182 171.564 177.046Z" fill="url(#paint7_linear_19_1131)"/>
<path d="M169.164 104.627V167.247C169.164 168.992 168.47 170.665 167.234 171.898C165.999 173.132 164.323 173.825 162.575 173.825H63.0523C62.1868 173.826 61.3296 173.656 60.5299 173.326C59.7301 172.996 59.0034 172.511 58.3914 171.9C57.7795 171.289 57.2942 170.564 56.9634 169.765C56.6326 168.967 56.4628 168.111 56.4637 167.247V104.627C56.4637 102.883 57.1578 101.21 58.3934 99.9761C59.629 98.7426 61.3049 98.0496 63.0523 98.0496H162.575C163.441 98.0487 164.298 98.2182 165.098 98.5484C165.898 98.8787 166.624 99.3632 167.236 99.9741C167.848 100.585 168.334 101.311 168.664 102.109C168.995 102.907 169.165 103.763 169.164 104.627Z" fill="#68E1FD"/>
<path d="M169.164 104.627V167.247C169.164 168.992 168.47 170.665 167.234 171.898C165.999 173.132 164.323 173.825 162.575 173.825H63.0523C62.1868 173.826 61.3296 173.656 60.5299 173.326C59.7301 172.996 59.0034 172.511 58.3914 171.9C57.7795 171.289 57.2942 170.564 56.9634 169.765C56.6326 168.967 56.4628 168.111 56.4637 167.247V104.627C56.4637 102.883 57.1578 101.21 58.3934 99.9761C59.629 98.7426 61.3049 98.0496 63.0523 98.0496H162.575C163.441 98.0487 164.298 98.2182 165.098 98.5484C165.898 98.8787 166.624 99.3632 167.236 99.9741C167.848 100.585 168.334 101.311 168.664 102.109C168.995 102.907 169.165 103.763 169.164 104.627Z" fill="url(#paint8_linear_19_1131)"/>
<path d="M169.164 104.627V167.25C169.165 168.316 168.906 169.367 168.408 170.31C167.911 171.253 167.191 172.061 166.31 172.664C166.294 172.679 166.275 172.691 166.256 172.701C165.271 173.37 164.121 173.755 162.931 173.815C162.813 173.815 162.697 173.815 162.572 173.815H63.0489C62.082 173.815 61.1271 173.601 60.2528 173.189C59.8385 172.315 59.6243 171.36 59.6258 170.394V107.784C59.6258 106.039 60.3199 104.366 61.5555 103.133C62.7911 101.899 64.467 101.206 66.2144 101.206H165.738C166.705 101.205 167.662 101.417 168.537 101.829C168.952 102.704 169.166 103.659 169.164 104.627V104.627Z" fill="#D3D3D3"/>
<path d="M31.6515 131.466C31.6515 131.466 20.1995 150.793 21.6738 158.152C23.1481 165.511 56.4637 162.862 56.4637 162.862V145.196H49.3972L52.861 141.075L31.6515 131.466Z" fill="url(#paint9_linear_19_1131)"/>
<path d="M193.227 131.466C193.227 131.466 203.056 153.148 203.344 157.563C203.632 161.979 201.385 163.789 192.339 164.946C183.294 166.104 169.164 164.946 169.164 164.946V143.126L174.082 142.831L172.018 141.065L193.227 131.466Z" fill="url(#paint10_linear_19_1131)"/>
<path d="M100.181 79.1218C100.181 79.1218 99.8621 86.5962 106.186 91.3027C112.511 96.0093 119.743 91.455 121.502 88.3624C123.261 85.2698 125.874 77.7515 125.874 77.7515L100.181 79.1218Z" fill="url(#paint11_linear_19_1131)"/>
<path d="M86.7053 48.3852C86.7053 48.3852 88.9558 77.0847 106.19 82.2447C123.424 87.4047 137.882 69.2686 139.346 48.3852C140.81 27.5017 127.145 8.56376 108.776 12.4312C90.4063 16.2986 84.2007 35.7745 86.7053 48.3852Z" fill="url(#paint12_linear_19_1131)"/>
<path d="M147.097 33.9848C147.5 35.4804 147.097 37.0639 146.609 38.5324C144.876 43.7709 142.134 48.6204 138.536 52.8077C138.631 52.2325 138.712 51.6505 138.777 51.0719C139.308 46.4726 138.988 41.8148 137.831 37.3312C135.235 36.2045 132.49 39.3613 129.697 38.8707C127.209 38.4478 126.067 35.4871 123.868 34.2386C121.668 32.9901 118.784 33.8021 116.611 35.1217C114.439 36.4413 112.5 38.2448 110.114 39.1549C104.651 41.2291 98.72 38.0925 93.7243 35.0608L92.7584 38.4681C92.6601 38.4681 92.5619 38.4681 92.467 38.4681L91.8739 38.4918C90.8133 38.5354 89.7918 38.9036 88.9479 39.5464C88.104 40.1891 87.4784 41.0755 87.1561 42.0851C86.0614 45.4687 86.6952 48.3583 87.2408 52.4795C87.2815 52.784 87.5018 54.1713 87.6035 54.4691C84.2143 48.9267 80.7336 41.2731 82.1808 34.9593C82.4596 33.9567 82.6859 32.9402 82.8586 31.9141C83.0315 30.4761 82.7909 29.0245 82.7061 27.5797C82.4994 24.0878 83.3365 20.3422 85.8479 17.8993C91.8095 12.1133 96.6933 4.21267 104.573 1.55994C108.531 0.252393 112.713 -0.241813 116.867 0.10709C121.021 0.455992 125.061 1.64078 128.745 3.59009C132.473 5.5864 135.723 8.32711 138.953 11.034C141.413 13.1149 143.898 15.2262 145.609 17.9331C147.321 20.64 148.182 24.0608 147.09 27.0688C146.65 28.2869 145.894 29.4644 145.982 30.7535C146.06 31.8802 146.795 32.875 147.097 33.9848Z" fill="#3F3D56"/>
<path opacity="0.24" d="M142.21 44.4365C141.224 46.7137 140.193 49.0517 138.777 51.0717C139.308 46.4723 138.988 41.8146 137.831 37.331C135.235 36.2043 132.49 39.3611 129.697 38.8705C127.209 38.4476 126.067 35.4869 123.868 34.2384C121.668 32.9899 118.784 33.8019 116.611 35.1215C114.439 36.4411 112.5 38.2446 110.114 39.1547C104.692 41.2153 98.798 38.1397 93.826 35.1215C93.5786 32.9256 98.4387 30.9089 106.529 34.0489C113.165 36.6272 119.069 24.629 127.609 27.9009C128.582 28.2765 129.101 29.41 130.073 29.7924C131.429 30.3202 132.917 29.9006 134.347 29.6976C135.777 29.4946 137.492 29.6604 138.255 30.8886C138.838 31.8293 138.631 33.044 138.895 34.12C139.16 35.1959 140.509 36.1941 141.298 35.4193C141.579 37.1137 141.671 38.8341 141.573 40.5488C142.067 39.9162 142.714 39.42 143.454 39.1074C143.694 40.9413 142.945 42.7413 142.21 44.4365Z" fill="white"/>
<path opacity="0.24" d="M88.5457 38.6338C86.5325 42.8429 86.4037 49.9789 87.6102 54.4791C86.7121 52.2865 84.9192 48.0503 84.3905 45.7258C83.9364 43.7531 83.6754 41.4963 84.8718 39.8586C85.1938 39.5014 85.4704 39.1059 85.6953 38.6811C85.8077 38.3295 85.8793 37.9663 85.9089 37.5984C86.0953 36.404 86.9595 35.1216 88.1695 35.1825C88.6593 35.2436 89.1257 35.4276 89.5251 35.7171C90.2538 36.1807 92.3449 37.3852 92.4771 38.4781L88.5457 38.6338Z" fill="white"/>
<path d="M169.042 167.251C169.042 167.251 168.703 170.776 166.188 172.664C166.172 172.679 166.153 172.691 166.134 172.702C165.165 173.402 164.005 173.79 162.809 173.815C162.691 173.815 162.575 173.815 162.45 173.815H62.9269C61.9589 173.814 61.0031 173.6 60.1274 173.189C59.7157 172.314 59.5028 171.36 59.5038 170.394V137.516L169.042 167.251Z" fill="url(#paint13_linear_19_1131)"/>
<path opacity="0.24" d="M69.7595 172.901H60.2698L59.6428 163.85V107.784C59.6428 106.039 60.3369 104.366 61.5725 103.133C62.8081 101.899 64.4839 101.206 66.2313 101.206H90.4063C90.4063 101.206 65.0146 101.294 63.8453 106.921C62.6761 112.548 63.8453 169.044 63.8453 169.044C63.8453 169.044 62.6693 172.021 69.7595 172.901Z" fill="white"/>
</g>
<defs>
<linearGradient id="paint0_linear_19_1131" x1="87.8" y1="54.7431" x2="83.5639" y2="55.4458" gradientUnits="userSpaceOnUse">
<stop stop-color="#ECC4D7"/>
<stop offset="0.16" stop-color="#EDCBD5"/>
<stop offset="0.42" stop-color="#EFD4D1"/>
<stop offset="0.7" stop-color="#F2EAC9"/>
</linearGradient>
<linearGradient id="paint1_linear_19_1131" x1="138.367" y1="54.7431" x2="142.606" y2="55.4458" gradientUnits="userSpaceOnUse">
<stop stop-color="#ECC4D7"/>
<stop offset="0.16" stop-color="#EDCBD5"/>
<stop offset="0.42" stop-color="#EFD4D1"/>
<stop offset="0.7" stop-color="#F2EAC9"/>
</linearGradient>
<linearGradient id="paint2_linear_19_1131" x1="115.249" y1="180.846" x2="115.925" y2="251.603" gradientUnits="userSpaceOnUse">
<stop offset="0.01" stop-opacity="0"/>
<stop offset="0.26" stop-color="#0D0D12" stop-opacity="0.21"/>
<stop offset="0.77" stop-color="#2F2E40" stop-opacity="0.75"/>
<stop offset="0.99" stop-color="#3F3D56"/>
</linearGradient>
<linearGradient id="paint3_linear_19_1131" x1="108.555" y1="105.828" x2="113.758" y2="-7.97584" gradientUnits="userSpaceOnUse">
<stop offset="0.01" stop-color="#FFBE55"/>
<stop offset="0.26" stop-color="#FFBE55"/>
<stop offset="0.77" stop-color="#2F2E40" stop-opacity="0.75"/>
<stop offset="0.99" stop-color="#3F3D56"/>
</linearGradient>
<linearGradient id="paint4_linear_19_1131" x1="48.2077" y1="169.027" x2="171.753" y2="169.027" gradientUnits="userSpaceOnUse">
<stop offset="0.01" stop-opacity="0"/>
<stop offset="0.26" stop-color="#0D0D12" stop-opacity="0.21"/>
<stop offset="0.77" stop-color="#2F2E40" stop-opacity="0.75"/>
<stop offset="0.99" stop-color="#3F3D56"/>
</linearGradient>
<linearGradient id="paint5_linear_19_1131" x1="111.843" y1="196.769" x2="113.106" y2="173.703" gradientUnits="userSpaceOnUse">
<stop stop-color="#68E1FD"/>
<stop offset="1" stop-color="#69B9EB"/>
</linearGradient>
<linearGradient id="paint6_linear_19_1131" x1="109.945" y1="178.883" x2="110.138" y2="133.834" gradientUnits="userSpaceOnUse">
<stop offset="0.01" stop-opacity="0"/>
<stop offset="0.26" stop-color="#0D0D12" stop-opacity="0.21"/>
<stop offset="0.77" stop-color="#2F2E40" stop-opacity="0.75"/>
<stop offset="0.99" stop-color="#3F3D56"/>
</linearGradient>
<linearGradient id="paint7_linear_19_1131" x1="149.673" y1="163.735" x2="6.22658" y2="215.703" gradientUnits="userSpaceOnUse">
<stop offset="0.01" stop-opacity="0"/>
<stop offset="0.26" stop-color="#0D0D12" stop-opacity="0.21"/>
<stop offset="0.77" stop-color="#2F2E40" stop-opacity="0.75"/>
<stop offset="0.99" stop-color="#3F3D56"/>
</linearGradient>
<linearGradient id="paint8_linear_19_1131" x1="110.816" y1="81.3516" x2="114.613" y2="185.448" gradientUnits="userSpaceOnUse">
<stop offset="0.01" stop-color="#D3D3D3"/>
<stop offset="0.494792" stop-color="#D3D3D3"/>
<stop offset="0.77" stop-color="#D3D3D3"/>
<stop offset="0.99"/>
</linearGradient>
<linearGradient id="paint9_linear_19_1131" x1="36.0913" y1="208.182" x2="44.3236" y2="70.3871" gradientUnits="userSpaceOnUse">
<stop stop-color="#ECC4D7"/>
<stop offset="0.16" stop-color="#EDCBD5"/>
<stop offset="0.42" stop-color="#EFD4D1"/>
<stop offset="0.7" stop-color="#F2EAC9"/>
</linearGradient>
<linearGradient id="paint10_linear_19_1131" x1="180.833" y1="241.486" x2="190.001" y2="88.0323" gradientUnits="userSpaceOnUse">
<stop stop-color="#ECC4D7"/>
<stop offset="0.16" stop-color="#EDCBD5"/>
<stop offset="0.42" stop-color="#EFD4D1"/>
<stop offset="0.7" stop-color="#F2EAC9"/>
</linearGradient>
<linearGradient id="paint11_linear_19_1131" x1="111.263" y1="107.865" x2="115.57" y2="35.7468" gradientUnits="userSpaceOnUse">
<stop stop-color="#ECC4D7"/>
<stop offset="0.16" stop-color="#EDCBD5"/>
<stop offset="0.42" stop-color="#EFD4D1"/>
<stop offset="0.7" stop-color="#F2EAC9"/>
</linearGradient>
<linearGradient id="paint12_linear_19_1131" x1="113.243" y1="1.83719" x2="112.067" y2="117.843" gradientUnits="userSpaceOnUse">
<stop stop-color="#ECC4D7"/>
<stop offset="0.16" stop-color="#EDCBD5"/>
<stop offset="0.42" stop-color="#EFD4D1"/>
<stop offset="0.7" stop-color="#F2EAC9"/>
</linearGradient>
<linearGradient id="paint13_linear_19_1131" x1="119.289" y1="115.993" x2="86.2804" y2="356.333" gradientUnits="userSpaceOnUse">
<stop offset="0.01" stop-opacity="0"/>
<stop offset="0.26" stop-color="#0D0D12" stop-opacity="0.21"/>
<stop offset="0.77" stop-color="#2F2E40" stop-opacity="0.75"/>
<stop offset="0.99" stop-color="#3F3D56"/>
</linearGradient>
<clipPath id="clip0_19_1131">
<rect width="229" height="202" fill="white"/>
</clipPath>
</defs>
</svg>
